<svg width="301" height="301" viewBox="0 0 301 301" fill="none" xmlns="http://www.w3.org/2000/svg">
<mask id="mask0_20270_43967" style="mask-type:luminance" maskUnits="userSpaceOnUse" x="0" y="0" width="301" height="301">
<path d="M300.023 0.662354H0.0234375V300.662H300.023V0.662354Z" fill="white"/>
</mask>
<g mask="url(#mask0_20270_43967)">
<path d="M179.544 40.76H190.796V48.261H179.544V40.76Z" fill="#E5E5E5"/>
<path d="M129.287 -1.99585H194.546V44.5105H129.287V-1.99585Z" fill="#2FFAB2"/>
<path d="M28.0232 117.71C28.0232 115.396 29.8995 113.52 32.2141 113.52H117.595C119.91 113.52 121.786 115.396 121.786 117.71V267.6C121.786 269.915 119.91 271.791 117.595 271.791H32.2141C29.8995 271.791 28.0232 269.915 28.0232 267.6V117.71Z" fill="#53CCA1"/>
<path fill-rule="evenodd" clip-rule="evenodd" d="M0.181396 297.67C0.181396 297.207 0.556661 296.831 1.01958 296.831H299.185C299.648 296.831 300.024 297.207 300.024 297.67C300.024 298.133 299.648 298.508 299.185 298.508H1.01958C0.556661 298.508 0.181396 298.133 0.181396 297.67Z" fill="#3D3E3E"/>
<path d="M85.031 86.0274C85.031 76.7692 92.5363 69.2639 101.795 69.2639H183.783C193.042 69.2639 200.547 76.7692 200.547 86.0275V232.524C200.547 241.783 193.042 249.288 183.783 249.288H101.795C92.5363 249.288 85.031 241.783 85.031 232.524V86.0274Z" fill="#F1F1F1"/>
<path fill-rule="evenodd" clip-rule="evenodd" d="M84.1929 86.0273C84.1929 76.3061 92.0735 68.4255 101.795 68.4255H183.783C193.504 68.4255 201.385 76.3061 201.385 86.0273V232.524C201.385 242.246 193.504 250.126 183.783 250.126H101.795C92.0735 250.126 84.1929 242.246 84.1929 232.524V86.0273ZM101.795 70.1019C92.9993 70.1019 85.8693 77.2319 85.8693 86.0273V232.524C85.8693 241.32 92.9993 248.45 101.795 248.45H183.783C192.579 248.45 199.709 241.32 199.709 232.524V86.0273C199.709 77.2319 192.579 70.1019 183.783 70.1019H101.795Z" fill="#3D3E3E"/>
<path fill-rule="evenodd" clip-rule="evenodd" d="M91.0317 73.1747C93.9437 70.7337 97.6975 69.2639 101.795 69.2639H183.783C187.88 69.2639 191.634 70.7337 194.546 73.1747V245.377C191.634 247.818 187.88 249.288 183.783 249.288H101.795C97.6975 249.288 93.9437 247.818 91.0317 245.377V73.1747Z" fill="white"/>
<path d="M254.554 169.402C254.554 177.895 247.67 184.779 239.177 184.779C230.685 184.779 223.8 177.895 223.8 169.402C223.8 160.91 230.685 154.025 239.177 154.025C247.67 154.025 254.554 160.91 254.554 169.402Z" fill="#2FFAB2"/>
<path opacity="0.5" d="M100.033 105.709C100.033 103.394 101.909 101.518 104.224 101.518H181.354C183.668 101.518 185.545 103.394 185.545 105.709V155.085C185.545 157.399 183.668 159.276 181.354 159.276H104.224C101.909 159.276 100.033 157.399 100.033 155.085V105.709Z" fill="#F1F1F1"/>
<path d="M100.033 174.278H121.786V187.78H100.033V174.278ZM130.787 174.278H152.54V187.78H130.787V174.278ZM161.542 174.278H185.545V187.78H161.542V174.278ZM100.033 196.031H121.786V209.533H100.033V196.031ZM130.787 196.031H152.54V209.533H130.787V196.031ZM161.542 196.031H185.545V209.533H161.542V196.031Z" fill="#53CCA1"/>
<path d="M100.033 218.534H121.786V232.036H100.033V218.534Z" fill="#46F1B4"/>
<path d="M130.787 218.534H152.54V232.036H130.787V218.534Z" fill="#53CCA1"/>
<path d="M161.542 218.534H185.545V232.036H161.542V218.534Z" fill="#46F1B4"/>
<path fill-rule="evenodd" clip-rule="evenodd" d="M84.1929 86.0273C84.1929 76.3061 92.0735 68.4255 101.795 68.4255H183.783C193.504 68.4255 201.385 76.3061 201.385 86.0273V232.524C201.385 242.246 193.504 250.126 183.783 250.126H101.795C92.0735 250.126 84.1929 242.246 84.1929 232.524V86.0273ZM101.795 70.1019C92.9993 70.1019 85.8693 77.2319 85.8693 86.0273V232.524C85.8693 241.32 92.9993 248.45 101.795 248.45H183.783C192.579 248.45 199.709 241.32 199.709 232.524V86.0273C199.709 77.2319 192.579 70.1019 183.783 70.1019H101.795Z" fill="#3D3E3E"/>
<path d="M106.034 36.2593H179.544V88.0163H106.034V36.2593Z" fill="#F1F1F1"/>
<path fill-rule="evenodd" clip-rule="evenodd" d="M109.792 28.0083H183.295L179.544 32.1338V36.2594H106.034V32.1338L106.051 32.1155C106.04 31.9981 106.034 31.8791 106.034 31.7588C106.034 29.6874 107.713 28.0083 109.784 28.0083C109.787 28.0083 109.79 28.0083 109.792 28.0083Z" fill="#F1F1F1"/>
<path d="M194.546 44.5105C194.546 46.5819 192.867 48.261 190.796 48.261C188.724 48.261 187.045 46.5819 187.045 44.5105C187.045 42.4392 188.724 40.76 190.796 40.76C192.867 40.76 194.546 42.4392 194.546 44.5105Z" fill="#2FFAB2"/>
<path d="M187.045 31.7588C187.045 33.8301 185.366 35.5093 183.295 35.5093C181.223 35.5093 179.544 33.8301 179.544 31.7588C179.544 29.6874 181.223 28.0083 183.295 28.0083C185.366 28.0083 187.045 29.6874 187.045 31.7588Z" fill="#E5E5E5"/>
<path d="M179.544 31.7588H187.045V48.261H179.544V31.7588Z" fill="#E5E5E5"/>
<path d="M47.5259 113.52H68.5288V271.791H47.5259V113.52Z" fill="#06DB8F"/>
<path d="M166.792 130.397C166.792 143.446 156.214 154.025 143.164 154.025C130.115 154.025 119.536 143.446 119.536 130.397C119.536 117.347 130.115 106.769 143.164 106.769C156.214 106.769 166.792 117.347 166.792 130.397Z" fill="white"/>
<path fill-rule="evenodd" clip-rule="evenodd" d="M143.164 108.864C131.272 108.864 121.631 118.505 121.631 130.397C121.631 142.289 131.272 151.93 143.164 151.93C155.056 151.93 164.697 142.289 164.697 130.397C164.697 118.505 155.056 108.864 143.164 108.864ZM117.44 130.397C117.44 116.19 128.957 104.673 143.164 104.673C157.371 104.673 168.888 116.19 168.888 130.397C168.888 144.604 157.371 156.12 143.164 156.12C128.957 156.12 117.44 144.604 117.44 130.397Z" fill="#E5E5E5"/>
<path fill-rule="evenodd" clip-rule="evenodd" d="M173.172 117.533L138.973 145.08L124.37 124.513L131.204 119.66L140.651 132.966L167.914 111.006L173.172 117.533Z" fill="#53CCA1"/>
<path d="M71.9042 81.6405C71.9042 90.133 64.8517 97.0176 56.152 97.0176C47.4524 97.0176 40.3999 90.133 40.3999 81.6405C40.3999 73.1479 47.4524 66.2634 56.152 66.2634C64.8517 66.2634 71.9042 73.1479 71.9042 81.6405Z" fill="#46F1B4"/>
<path fill-rule="evenodd" clip-rule="evenodd" d="M67.4116 78.5275L49.8665 89.8065L43.8689 80.1181L47.4323 77.9122L51.1861 83.976L65.1453 75.0022L67.4116 78.5275Z" fill="white"/>
<path d="M243.303 116.895C243.303 132.844 230.373 145.774 214.424 145.774C198.474 145.774 185.545 132.844 185.545 116.895C185.545 100.946 198.474 88.0166 214.424 88.0166C230.373 88.0166 243.303 100.946 243.303 116.895Z" fill="#46F1B4"/>
<path fill-rule="evenodd" clip-rule="evenodd" d="M200.547 204.657L175.418 184.404C170.922 180.945 163.108 165.683 170.864 151.563C171.004 151.308 171.168 151.08 171.352 150.878C172.64 149.465 174.892 149.354 176.502 150.599C191.985 162.57 217.809 182.731 218.924 184.404C219.197 184.813 219.638 185.261 220.19 185.822C220.812 186.453 221.574 187.228 222.394 188.249C224.852 191.313 227.823 196.597 229.051 206.907C229.312 209.106 229.625 211.371 229.945 213.681C231.912 227.919 234.118 243.881 226.05 256.789C225.8 260.164 229.051 272.991 244.053 297.295H145.789C145.039 295.544 142.939 291.744 140.539 290.544C140.143 290.346 139.539 290.089 138.775 289.765C133.74 287.628 121.745 282.536 116.535 271.791H117.595C119.909 271.791 121.786 269.915 121.786 267.6V265.79V249.288H184.621C193.417 249.288 200.547 242.158 200.547 233.363V204.657Z" fill="#96EFCF"/>
<path d="M106.034 82.7656H179.544V88.0163H106.034V82.7656Z" fill="#E5E5E5"/>
<path fill-rule="evenodd" clip-rule="evenodd" d="M168.292 45.3488H117.286V43.6724H168.292V45.3488ZM168.292 58.4756H117.286V56.7992H168.292V58.4756ZM168.292 70.4772H117.286V68.8008H168.292V70.4772Z" fill="#3D3E3E"/>
<path fill-rule="evenodd" clip-rule="evenodd" d="M214.799 97.9226C215.956 97.9226 216.894 98.8608 216.894 100.018V101.721C221.467 101.814 225.145 105.549 225.145 110.144H220.954C220.954 107.806 219.059 105.911 216.721 105.911H213.299C210.727 105.911 208.643 107.995 208.643 110.566C208.643 113.137 210.727 115.221 213.299 115.221H216.721C221.374 115.221 225.145 118.993 225.145 123.646C225.145 128.241 221.467 131.976 216.894 132.069V133.772C216.894 134.93 215.956 135.868 214.799 135.868C213.641 135.868 212.703 134.93 212.703 133.772V132.07H212.033C207.846 132.07 204.452 128.676 204.452 124.49H208.643C208.643 126.362 210.161 127.879 212.033 127.879H216.721C219.059 127.879 220.954 125.984 220.954 123.646C220.954 121.308 219.059 119.412 216.721 119.412H213.299C208.413 119.412 204.452 115.452 204.452 110.566C204.452 105.88 208.095 102.046 212.703 101.739V100.018C212.703 98.8608 213.641 97.9226 214.799 97.9226ZM239.552 158.769C240.247 158.769 240.809 159.331 240.809 160.026V160.886C243.319 161.027 245.31 163.107 245.31 165.652H242.796C242.796 164.404 241.784 163.393 240.537 163.393H238.802C237.425 163.393 236.309 164.509 236.309 165.886C236.309 167.263 237.425 168.379 238.802 168.379H240.537C243.173 168.379 245.31 170.516 245.31 173.153C245.31 175.697 243.319 177.777 240.809 177.918V178.778C240.809 179.473 240.247 180.036 239.552 180.036C238.858 180.036 238.295 179.473 238.295 178.778V177.926H238.099C235.722 177.926 233.794 175.999 233.794 173.621H236.309C236.309 174.61 237.11 175.411 238.099 175.411H240.537C241.784 175.411 242.796 174.4 242.796 173.153C242.796 171.905 241.784 170.894 240.537 170.894H238.802C236.036 170.894 233.794 168.652 233.794 165.886C233.794 163.291 235.767 161.158 238.295 160.904V160.026C238.295 159.331 238.858 158.769 239.552 158.769Z" fill="white"/>
</g>
</svg>
