<svg width="262" height="39" viewBox="0 0 262 39" fill="none" xmlns="http://www.w3.org/2000/svg">
<path d="M174.635 30.1923C174.381 30.207 174.124 30.2172 173.875 30.239C173.714 30.2526 173.644 30.2134 173.536 30.1931C173.5 30.186 173.461 30.1718 173.428 30.1736C173.177 30.1883 172.925 30.2047 172.674 30.2211C172.597 30.256 172.549 30.3025 172.431 30.3196C172.316 30.3358 172.18 30.336 172.051 30.3443C171.882 30.3543 171.713 30.3644 171.543 30.3736C171.459 30.3782 171.389 30.3952 171.362 30.4274C171.357 30.4327 171.413 30.446 171.444 30.454C171.547 30.4806 171.647 30.5108 171.761 30.5311C171.869 30.5506 172.002 30.5183 172.118 30.5431C172.378 30.5989 172.38 30.598 172.578 30.587C172.747 30.5769 172.916 30.566 173.086 30.5586C173.119 30.5567 173.158 30.5701 173.194 30.5771C173.302 30.5966 173.372 30.6411 173.531 30.6239C173.651 30.6104 173.785 30.6075 173.91 30.6002C174.016 30.6259 174.114 30.6552 174.227 30.6755C174.332 30.695 174.363 30.7101 174.307 30.736C174.256 30.7602 174.184 30.7701 174.089 30.7721C174.005 30.7731 173.92 30.7812 173.835 30.7858C173.792 30.7885 173.751 30.7904 173.71 30.7931C173.548 30.8032 173.548 30.8032 173.252 30.7465C173.136 30.7244 173.006 30.7558 172.895 30.7346C172.821 30.7204 172.756 30.6991 172.684 30.6841C172.653 30.6779 172.604 30.677 172.566 30.6789C172.438 30.6853 172.309 30.69 172.186 30.7017C172.099 30.7099 172.048 30.735 172.059 30.7599C172.061 30.7697 172.123 30.7839 172.159 30.7847C172.241 30.7864 172.328 30.7738 172.408 30.7799C172.485 30.786 172.565 30.8038 172.621 30.8233C172.737 30.8642 172.868 30.8274 172.978 30.8379C173.094 30.8494 173.189 30.8849 173.3 30.9061C173.328 30.9114 173.382 30.9024 173.426 30.8997C173.552 30.8933 173.677 30.8877 173.803 30.8813C173.909 30.907 174.022 30.93 174.117 30.9593C174.29 31.0126 174.475 31.0328 174.698 31.0066C174.824 30.9922 174.947 30.9973 175.047 31.032C175.15 31.0675 175.269 31.0638 175.399 31.0564C175.52 31.0491 175.643 31.0293 175.766 31.0541C176.034 31.109 176.037 31.1117 176.352 31.0898C176.447 31.0834 176.519 31.0815 176.591 31.1019C176.658 31.1206 176.73 31.1365 176.8 31.1542C176.925 31.1478 177.054 31.1414 177.179 31.134C177.341 31.124 177.431 31.1363 177.47 31.1862C177.493 31.2165 177.504 31.2442 177.561 31.2646C177.628 31.2895 177.7 31.2885 177.797 31.2812C177.89 31.2748 177.956 31.2649 177.994 31.2327C178.01 31.2193 178.04 31.2068 178.068 31.196C178.091 31.188 178.127 31.1755 178.148 31.1772C178.186 31.1807 178.238 31.1904 178.251 31.202C178.378 31.3098 178.378 31.3107 178.506 31.3417C178.648 31.3763 178.795 31.4073 178.924 31.4463C179.039 31.4809 179.155 31.4656 179.281 31.4654C179.376 31.4653 179.437 31.4884 179.43 31.5116C179.425 31.525 179.389 31.5446 179.359 31.5465C179.107 31.5647 178.853 31.5802 178.599 31.5931C178.568 31.5949 178.53 31.5789 178.494 31.5709C178.422 31.555 178.357 31.5301 178.28 31.5249C178.203 31.5196 178.113 31.5331 178.029 31.5377C177.944 31.5423 177.854 31.5541 177.777 31.547C177.7 31.54 177.638 31.5142 177.566 31.4974C177.533 31.4894 177.486 31.4779 177.458 31.4806C177.271 31.5023 177.132 31.4731 176.998 31.434C176.97 31.426 176.921 31.4208 176.885 31.4226C176.587 31.4382 176.292 31.4565 175.995 31.4739C175.874 31.4812 175.776 31.4501 175.75 31.3975C175.737 31.3681 175.711 31.3387 175.71 31.3093C175.71 31.2558 175.568 31.2265 175.466 31.2329C175.296 31.2421 175.124 31.2495 174.958 31.2631C174.822 31.274 174.706 31.2635 174.613 31.2315C174.505 31.1951 174.382 31.2024 174.259 31.2124C174.166 31.2197 174.141 31.2492 174.147 31.3232C174.153 31.383 174.109 31.4018 173.943 31.4118C173.732 31.4246 173.519 31.4374 173.306 31.4476C173.273 31.4494 173.234 31.4343 173.201 31.4263C173.129 31.4104 173.064 31.3846 172.987 31.3793C172.91 31.3732 172.82 31.3867 172.736 31.3922C172.651 31.3968 172.561 31.4094 172.484 31.4033C172.407 31.3972 172.343 31.3705 172.273 31.3537C172.24 31.3457 172.198 31.3341 172.165 31.336C171.996 31.3434 171.826 31.3543 171.657 31.3644C171.467 31.3754 171.467 31.3754 171.197 31.3205C171.074 31.2957 170.951 31.3155 170.83 31.3228C170.702 31.3301 170.581 31.3339 170.481 31.2983C170.413 31.2753 170.339 31.2611 170.259 31.2657C170.046 31.2767 169.836 31.2904 169.623 31.3014C169.587 31.3032 169.538 31.2989 169.51 31.2909C169.374 31.2536 169.24 31.2244 169.05 31.2434C168.886 31.2597 168.709 31.2608 168.545 31.2763C168.455 31.2844 168.414 31.313 168.432 31.3353C168.443 31.3469 168.497 31.3602 168.533 31.3601C168.615 31.3609 168.705 31.3474 168.782 31.3526C168.941 31.3631 169.021 31.4379 169.229 31.4171C169.352 31.4044 169.48 31.3997 169.609 31.396C169.642 31.395 169.678 31.4119 169.714 31.4208C169.817 31.4447 169.907 31.4758 170.056 31.4595C170.179 31.4469 170.31 31.4431 170.436 31.4358C170.636 31.4239 170.636 31.4248 170.896 31.4788C171.019 31.5045 171.142 31.4838 171.263 31.4774C171.353 31.4728 171.437 31.4637 171.509 31.4761C171.62 31.4947 171.7 31.5374 171.836 31.5345C171.964 31.5316 172.09 31.5189 172.218 31.5143C172.298 31.5115 172.373 31.5257 172.437 31.5496C172.504 31.5736 172.576 31.5842 172.663 31.5787C172.789 31.5714 172.917 31.5623 173.046 31.5577C173.082 31.5567 173.123 31.5647 173.156 31.5718C173.228 31.5877 173.298 31.6063 173.367 31.6232C173.493 31.6176 173.621 31.6157 173.744 31.6048C173.839 31.5966 173.906 31.6001 173.983 31.6178C174.081 31.6417 174.161 31.6844 174.32 31.6637C174.4 31.6538 174.492 31.6563 174.572 31.6473C174.669 31.6355 174.736 31.6399 174.805 31.6665C174.937 31.7172 175.101 31.7178 175.271 31.6979C175.455 31.6763 175.594 31.701 175.733 31.7401C175.88 31.7809 175.88 31.78 175.994 31.8788C176.028 31.9073 176.123 31.9206 176.202 31.9151C176.336 31.906 176.451 31.9103 176.549 31.944C176.652 31.9804 176.775 31.9758 176.901 31.9658C177.068 31.9522 177.235 31.9403 177.371 31.9918C177.438 32.0167 177.51 32.0229 177.6 32.0165C177.854 32 178.111 31.9899 178.359 31.9699C178.511 31.9571 178.598 31.9856 178.701 32.0095C178.84 32.0423 178.992 32.0715 178.993 32.142C178.993 32.1536 179.029 32.1669 179.06 32.1758C179.127 32.1944 179.199 32.2103 179.269 32.2281C179.372 32.2547 179.472 32.2768 179.613 32.2623C179.736 32.2506 179.867 32.2468 179.993 32.2386C180.118 32.2304 180.234 32.2257 180.347 32.2595C180.479 32.2976 180.618 32.334 180.767 32.3623C180.872 32.3827 181.011 32.3477 181.124 32.3752C181.193 32.392 181.26 32.4115 181.335 32.4257C181.366 32.4319 181.415 32.4273 181.456 32.4255C181.54 32.4218 181.628 32.419 181.71 32.41C181.805 32.4 181.876 32.4017 181.949 32.4221C182.015 32.4407 182.083 32.4665 182.16 32.4717C182.275 32.4796 182.403 32.4437 182.519 32.4846C182.578 32.505 182.653 32.5245 182.73 32.5306C182.807 32.5368 182.897 32.5233 182.979 32.524C183.015 32.524 183.059 32.5382 183.08 32.5497C183.092 32.556 183.075 32.5729 183.057 32.5819C183.034 32.5926 183.001 32.607 182.967 32.6088C182.713 32.6252 182.459 32.639 182.205 32.6545C182.054 32.6637 182.054 32.6637 181.748 32.6079C181.676 32.5947 181.596 32.5974 181.506 32.6038C181.386 32.612 181.263 32.6274 181.137 32.6115C180.972 32.5511 180.769 32.546 180.554 32.5696C180.464 32.5795 180.382 32.5796 180.315 32.5628C180.173 32.5291 180.024 32.4981 179.898 32.4582C179.8 32.4271 179.754 32.4245 179.713 32.4674C179.7 32.4807 179.688 32.495 179.69 32.5075C179.706 32.5521 179.735 32.5958 179.751 32.6403C179.756 32.6528 179.736 32.6671 179.723 32.6805C179.682 32.718 179.628 32.7154 179.538 32.6844C179.448 32.6533 179.34 32.6329 179.196 32.6474C179.073 32.6601 178.94 32.6585 178.817 32.6721C178.627 32.692 178.493 32.6636 178.357 32.6255C178.328 32.6175 178.279 32.6131 178.244 32.6149C177.861 32.636 177.482 32.6598 177.099 32.6809C177.017 32.6854 176.943 32.6722 176.878 32.6482C176.811 32.6242 176.736 32.6118 176.654 32.6164C176.316 32.6356 175.977 32.6531 175.638 32.6768C175.5 32.6868 175.389 32.6754 175.294 32.6443C175.222 32.6212 175.155 32.6142 175.065 32.617C174.968 32.6198 174.898 32.6288 174.85 32.6548C174.804 32.6798 174.838 32.6949 174.94 32.7144C175.051 32.7356 175.154 32.7632 175.26 32.788C175.344 32.7843 175.429 32.777 175.511 32.7778C175.547 32.7777 175.581 32.7937 175.617 32.8026C175.72 32.8283 175.815 32.854 175.961 32.8395C176.084 32.8269 176.215 32.824 176.341 32.8158C176.515 32.8057 176.515 32.8057 176.798 32.8615C176.87 32.8757 176.947 32.8746 177.04 32.8665C177.119 32.8601 177.201 32.8725 177.258 32.8992C177.282 32.9098 177.274 32.9277 177.226 32.9866C177.226 33.0303 177.28 33.0106 177.298 32.9821C177.325 32.941 177.271 32.9277 177.169 32.9501C177.097 32.9663 177.062 32.9895 177.08 33.0083C177.09 33.018 177.139 33.0305 177.226 32.9866C177.451 32.9328 177.623 32.9263 177.787 32.9117C177.885 32.9036 177.946 32.907 178.024 32.9301C178.116 32.9576 178.209 32.9869 178.36 32.9724C178.525 32.9561 178.699 32.9541 178.866 32.9405C179.02 32.9277 179.1 32.9669 179.198 32.9899C179.316 33.0174 179.447 32.986 179.555 33.0019C179.668 33.0178 179.748 33.0569 179.879 33.0638C180.068 33.0395 180.19 33.0839 180.334 33.1131C180.447 33.1352 180.58 33.1154 180.701 33.1054C180.837 33.0945 180.95 33.1042 181.045 33.1361C181.153 33.1725 181.274 33.1643 181.397 33.1561C181.684 33.1379 181.695 33.1352 181.862 33.184C181.983 33.2195 182.099 33.2032 182.219 33.1986C182.325 33.2225 182.428 33.2482 182.538 33.2695C182.567 33.2748 182.62 33.2658 182.664 33.2631C182.79 33.2557 182.918 33.2484 183.044 33.2411C183.128 33.2365 183.218 33.223 183.295 33.2282C183.372 33.2343 183.437 33.2601 183.506 33.277C183.576 33.2938 183.648 33.3106 183.715 33.3284C183.818 33.355 183.916 33.3771 184.059 33.3636C184.182 33.3518 184.311 33.348 184.439 33.3398C184.6 33.3297 184.595 33.3324 184.896 33.3855C185.058 33.4147 185.225 33.3788 185.389 33.375C185.471 33.373 185.551 33.3827 185.608 33.4085C185.631 33.4192 185.624 33.437 185.631 33.4522C185.208 33.4769 184.782 33.4981 184.364 33.5281C184.202 33.54 184.117 33.508 184.03 33.4813C183.885 33.4387 183.696 33.5015 183.559 33.4464C183.477 33.4135 183.359 33.3949 183.218 33.4112C183.136 33.4202 183.048 33.4195 182.964 33.4276C182.748 33.4476 182.551 33.4488 182.378 33.3875C182.319 33.3661 182.234 33.3547 182.172 33.3343C182.1 33.3121 182.03 33.2997 181.946 33.3043C181.563 33.3262 181.184 33.3482 180.804 33.372C180.771 33.3738 180.737 33.3872 180.709 33.3971C180.638 33.4222 180.661 33.4418 180.777 33.4576C180.815 33.4629 180.846 33.4745 180.882 33.4834C180.952 33.5002 181.016 33.5269 181.093 33.533C181.17 33.5391 181.26 33.5265 181.345 33.5219C181.429 33.5173 181.519 33.5038 181.596 33.509C181.673 33.5152 181.738 33.541 181.81 33.5569C181.843 33.5649 181.885 33.5782 181.918 33.5773C182.087 33.5716 182.254 33.5616 182.423 33.5533C182.529 33.5772 182.619 33.6119 182.745 33.6197C182.825 33.625 182.909 33.615 182.991 33.6167C183.027 33.6175 183.074 33.6308 183.092 33.6424C183.102 33.6495 183.069 33.6674 183.043 33.6764C182.946 33.7104 182.813 33.7044 182.692 33.7152C182.561 33.727 182.443 33.7236 182.343 33.689C182.276 33.6659 182.201 33.6535 182.119 33.6581C181.906 33.67 181.696 33.6837 181.483 33.6939C181.447 33.6957 181.403 33.6877 181.37 33.6815C181.099 33.6275 181.099 33.6258 180.91 33.6376C180.63 33.655 180.63 33.655 180.442 33.608C180.406 33.5991 180.367 33.5822 180.336 33.5832C180.039 33.5979 179.744 33.6126 179.449 33.6336C179.351 33.6399 179.285 33.6401 179.212 33.617C179.151 33.5974 179.078 33.5752 179.001 33.57C178.922 33.5648 178.835 33.5783 178.75 33.5829C178.665 33.5875 178.575 33.5992 178.501 33.5922C178.424 33.5851 178.357 33.5603 178.29 33.5425C178.22 33.5239 178.146 33.5249 178.051 33.5322C177.759 33.5531 177.756 33.5505 177.465 33.4956C177.432 33.4894 177.388 33.4823 177.352 33.4842C177.139 33.4952 176.929 33.5089 176.716 33.5199C176.634 33.5245 176.554 33.513 176.497 33.4872C176.474 33.4766 176.482 33.4587 176.466 33.4239C176.448 33.4159 176.468 33.4302 176.474 33.4435C176.512 33.4417 176.558 33.4434 176.587 33.4362C176.658 33.4192 176.694 33.3968 176.676 33.3781C176.665 33.3683 176.616 33.3559 176.586 33.356C176.529 33.356 176.481 33.3757 176.466 33.4239C176.304 33.4536 176.132 33.4601 175.966 33.4746C175.868 33.4837 175.807 33.4793 175.729 33.4563C175.637 33.4279 175.541 33.4003 175.39 33.4148C175.226 33.4311 175.051 33.4341 174.882 33.4468C174.687 33.4614 174.601 33.3812 174.437 33.3832C174.268 33.3853 174.098 33.4007 173.929 33.4117C173.78 33.4208 173.78 33.4208 173.472 33.3633C173.358 33.342 173.225 33.3735 173.115 33.3513C173.04 33.3372 172.976 33.3159 172.904 33.3008C172.873 33.2946 172.824 33.2947 172.785 33.2965C172.572 33.3075 172.357 33.315 172.152 33.3349C171.918 33.3585 171.741 33.3338 171.573 33.2814C171.363 33.2915 171.15 33.2972 170.942 33.3144C170.791 33.3271 170.703 33.2978 170.6 33.2739C170.564 33.2659 170.533 33.2526 170.495 33.2491C170.456 33.2456 170.41 33.2528 170.369 33.2555C170.2 33.2656 170.025 33.2703 169.861 33.2866C169.658 33.3074 169.581 33.2344 169.424 33.2257C169.319 33.2696 169.263 33.3294 169.055 33.3342C168.886 33.338 168.717 33.3525 168.547 33.3626C168.463 33.3672 168.378 33.3727 168.293 33.3773C168.158 33.3855 168.094 33.4204 168.123 33.4738C168.138 33.5032 168.151 33.5327 168.165 33.5621C168.191 33.6147 168.127 33.6594 168.019 33.6658C167.722 33.6832 167.427 33.7014 167.129 33.717C167.05 33.7216 166.972 33.7066 166.908 33.6826C166.841 33.6586 166.766 33.648 166.684 33.6526C166.387 33.67 166.092 33.6883 165.794 33.7039C165.761 33.7057 165.717 33.6969 165.683 33.6898C165.611 33.6738 165.542 33.6552 165.472 33.6383C165.303 33.6466 165.136 33.6522 164.969 33.6632C164.7 33.6796 164.7 33.6805 164.502 33.6318C164.466 33.6229 164.43 33.606 164.396 33.607C164.268 33.6107 164.142 33.6198 164.014 33.628C163.637 33.6518 163.637 33.6518 163.526 33.6252C163.426 33.6004 163.336 33.5702 163.184 33.5847C163.02 33.601 162.846 33.6066 162.676 33.6158C162.551 33.6222 162.425 33.6295 162.299 33.6315C162.266 33.6324 162.23 33.6155 162.194 33.6067C162.091 33.5792 161.99 33.557 161.849 33.5724C161.767 33.5814 161.68 33.5833 161.595 33.5879C161.375 33.6008 161.375 33.6007 161.012 33.5478C160.976 33.5425 160.932 33.5363 160.896 33.539C160.599 33.5555 160.304 33.5738 160.006 33.5894C159.97 33.5912 159.926 33.586 159.89 33.5815C159.484 33.5304 159.484 33.5304 159.053 33.556C158.889 33.5652 158.884 33.5688 158.711 33.5218C158.634 33.5014 158.57 33.4916 158.48 33.498C158.141 33.5199 157.8 33.5347 157.464 33.5602C157.313 33.5711 157.225 33.5445 157.122 33.5206C157.086 33.5126 157.047 33.4948 157.017 33.4958C156.678 33.5132 156.339 33.5342 156.001 33.5517C155.97 33.5535 155.931 33.5357 155.895 33.5277C155.826 33.5118 155.759 33.4878 155.681 33.4826C155.602 33.4773 155.515 33.4909 155.427 33.4954C155.214 33.5074 155.214 33.5065 154.967 33.4542C154.934 33.4471 154.89 33.4374 154.857 33.4392C154.518 33.4575 154.177 33.4732 153.841 33.4996C153.649 33.5142 153.517 33.4885 153.381 33.4512C153.352 33.4432 153.304 33.4397 153.268 33.4416C152.885 33.4627 152.506 33.4864 152.123 33.5075C152.044 33.5121 151.967 33.497 151.902 33.4739C151.799 33.4375 151.679 33.4422 151.55 33.4504C151.255 33.4695 151.253 33.4687 151.078 33.4261C151.042 33.4172 151.011 33.4057 150.972 33.4013C150.936 33.3969 150.89 33.3996 150.851 33.4015C150.682 33.4106 150.513 33.4207 150.343 33.4308C150.174 33.4408 150.002 33.4464 149.835 33.4619C149.63 33.4809 149.532 33.4231 149.388 33.3965C149.178 33.4084 148.962 33.4159 148.754 33.4349C148.595 33.4494 148.52 33.4103 148.415 33.3899C148.379 33.3829 148.34 33.3677 148.307 33.3696C147.925 33.3898 147.542 33.4118 147.163 33.4364C147.07 33.4419 147.009 33.4348 146.931 33.4136C146.759 33.3656 146.751 33.3674 146.464 33.3857C146.338 33.3939 146.217 33.4012 146.109 33.3648C146.014 33.332 145.898 33.3241 145.762 33.335C145.596 33.3486 145.424 33.356 145.254 33.3652C145.085 33.3753 144.916 33.3889 144.746 33.3936C144.61 33.3983 144.528 33.3565 144.42 33.3352C144.386 33.3291 144.34 33.3282 144.301 33.3301C144.132 33.3383 143.958 33.3448 143.793 33.3603C143.593 33.3793 143.482 33.3304 143.341 33.3021C143.31 33.2959 143.259 33.2995 143.22 33.3022C142.923 33.3187 142.628 33.337 142.33 33.3544C142.224 33.3305 142.116 33.3075 142.011 33.2835C141.842 33.2927 141.672 33.3028 141.503 33.3119C141.375 33.3193 141.244 33.3221 141.123 33.3357C140.967 33.3538 140.889 33.312 140.784 33.2916C140.748 33.2845 140.709 33.2694 140.676 33.2712C140.463 33.2814 140.25 33.2924 140.039 33.3079C139.839 33.3233 139.759 33.2432 139.595 33.2443C139.425 33.2455 139.251 33.2573 139.087 33.2736C138.897 33.2926 138.763 33.2643 138.626 33.2261C138.598 33.2181 138.549 33.2138 138.513 33.2156C138.3 33.2266 138.09 33.2403 137.877 33.2513C137.841 33.2532 137.798 33.2488 137.762 33.2435C137.355 33.1915 137.355 33.1906 137.178 33.2015C137.053 33.2089 136.924 33.218 136.796 33.2226C136.76 33.2245 136.716 33.2165 136.683 33.2094C136.415 33.1554 136.415 33.1545 136.223 33.1655C136.053 33.1756 135.884 33.1856 135.715 33.1957C135.609 33.1718 135.501 33.1487 135.396 33.1248C135.185 33.1367 134.97 33.146 134.762 33.1623C134.664 33.1696 134.6 33.167 134.526 33.1448C134.433 33.1182 134.34 33.0871 134.186 33.1025C134.022 33.1188 133.848 33.1209 133.681 33.1345C133.481 33.1509 133.398 33.0698 133.236 33.0709C133.067 33.0721 132.892 33.0839 132.728 33.1002C132.538 33.1193 132.404 33.0909 132.268 33.0528C132.24 33.0448 132.191 33.0404 132.155 33.0422C131.688 33.0688 131.223 33.0953 130.757 33.1237C130.469 33.1411 130.469 33.142 129.922 33.0937C129.883 33.0902 129.842 33.0867 129.804 33.0885C129.634 33.0968 129.46 33.1033 129.296 33.1187C129.096 33.1378 128.985 33.0898 128.843 33.0605C128.812 33.0543 128.764 33.058 128.722 33.0598C128.594 33.0663 128.468 33.0745 128.34 33.0818C128.171 33.0919 128.002 33.1019 127.832 33.112C127.727 33.089 127.619 33.065 127.513 33.042C127.303 33.0539 127.087 33.0605 126.879 33.0795C126.72 33.094 126.645 33.0567 126.54 33.0354C126.504 33.0284 126.465 33.0132 126.432 33.0142C126.05 33.0344 125.667 33.0555 125.288 33.081C125.131 33.0919 125.059 33.0519 124.953 33.0316C124.917 33.0254 124.876 33.0138 124.843 33.0157C124.589 33.0285 124.335 33.0441 124.081 33.0596C123.937 33.0687 123.937 33.0687 123.623 33.0139C123.587 33.0077 123.546 33.0015 123.51 33.0034C122.705 33.0492 121.902 33.0977 121.096 33.1435C121.014 33.148 120.939 33.1348 120.875 33.1108C120.808 33.0868 120.733 33.0744 120.651 33.079C120.312 33.0982 119.971 33.1157 119.635 33.1394C119.497 33.1494 119.386 33.138 119.291 33.1069C119.219 33.0838 119.152 33.075 119.062 33.0805C118.893 33.0914 118.723 33.1006 118.554 33.1107C118.385 33.1207 118.215 33.1308 118.046 33.1409C117.877 33.1509 117.705 33.1565 117.538 33.1719C117.333 33.191 117.232 33.1358 117.091 33.1084C116.837 33.1222 116.583 33.1359 116.331 33.1506C115.992 33.1698 115.654 33.1908 115.315 33.2092C115.284 33.211 115.246 33.195 115.21 33.187C115.104 33.1649 115.027 33.1338 114.87 33.1438C114.111 33.1922 113.346 33.2335 112.584 33.281C112.425 33.2911 112.355 33.2528 112.247 33.2325C112.211 33.2263 112.17 33.2139 112.137 33.2157C111.714 33.2386 111.29 33.2642 110.867 33.2889C110.695 33.299 110.695 33.299 110.407 33.2441C110.373 33.2379 110.33 33.23 110.294 33.2318C109.742 33.263 109.193 33.2959 108.641 33.3279C108.559 33.3325 108.485 33.3201 108.418 33.2962C108.353 33.2722 108.276 33.2589 108.197 33.2635C107.689 33.2928 107.178 33.3212 106.673 33.3532C106.537 33.3623 106.424 33.3544 106.326 33.3225C106.256 33.2994 106.187 33.2897 106.099 33.2951C105.337 33.34 104.575 33.3831 103.813 33.4306C103.667 33.4397 103.564 33.4229 103.472 33.3936C103.397 33.3705 103.333 33.3662 103.24 33.3699C103.143 33.3745 103.084 33.3844 103.03 33.4112C102.961 33.4461 102.918 33.4899 102.754 33.4928C102.584 33.4957 102.413 33.5067 102.246 33.5221C102.087 33.5375 102.012 33.4975 101.912 33.4735C101.837 33.4567 101.768 33.4541 101.673 33.4623C101.586 33.4696 101.532 33.4848 101.481 33.5134C101.368 33.5743 101.358 33.5743 101.219 33.5361C101.144 33.5157 101.077 33.4998 100.995 33.5035C100.657 33.5218 100.318 33.5419 99.9794 33.5629C99.7844 33.5748 99.7819 33.5766 99.6351 33.5322C99.5629 33.5101 99.4935 33.4994 99.4088 33.5049C98.4775 33.5598 97.5462 33.613 96.6149 33.6705C96.4712 33.6797 96.3734 33.6611 96.2704 33.6345C96.237 33.6256 96.2035 33.6132 96.1649 33.6097C96.1264 33.6062 96.0828 33.6098 96.0417 33.6116C95.3644 33.651 94.6844 33.6886 94.0097 33.7324C93.8558 33.7424 93.7734 33.714 93.6679 33.691C93.6318 33.683 93.6008 33.6706 93.5623 33.6671C93.5237 33.6645 93.4776 33.6708 93.4366 33.6735C92.7592 33.7129 92.0793 33.7505 91.4046 33.7943C91.243 33.8043 91.1733 33.767 91.0678 33.7475C91.0318 33.7404 90.9931 33.7271 90.9598 33.7289C90.7468 33.7391 90.5364 33.7527 90.3235 33.7647C89.8155 33.7949 89.3074 33.8233 88.7995 33.8544C88.6045 33.8662 88.5189 33.787 88.3546 33.7908C88.1416 33.7956 87.9313 33.8137 87.7183 33.8265C87.549 33.8366 87.3797 33.8458 87.2103 33.8567C87.0436 33.8668 87.0436 33.8668 86.6271 33.8157C86.5911 33.8113 86.5474 33.8051 86.5115 33.8069C85.9188 33.8408 85.3236 33.8747 84.7335 33.9113C84.5975 33.9195 84.4845 33.9152 84.3866 33.8823C84.317 33.8593 84.245 33.8478 84.1604 33.8532C83.2701 33.9054 82.3823 33.9576 81.4921 34.0089C81.4587 34.0107 81.415 34.0018 81.3815 33.9947C81.3095 33.9788 81.2399 33.9602 81.1704 33.9433C81.1193 33.9639 81.0528 33.9827 81.0197 34.006C80.9738 34.0373 80.9123 34.0463 80.8148 34.0518C80.7173 34.0573 80.6557 34.0556 80.5784 34.0325C80.4857 34.0041 80.3904 33.9819 80.239 33.9911C79.3078 34.0487 78.3764 34.1009 77.4451 34.1576C77.2911 34.1668 77.2189 34.1276 77.1108 34.1073C77.0748 34.1011 77.0336 34.0913 77.0002 34.0932C76.6179 34.1142 76.2382 34.1371 75.856 34.1591C74.7963 34.2213 73.7368 34.2809 72.6798 34.3467C72.4873 34.3586 72.3562 34.3365 72.2197 34.2983C72.1913 34.2903 72.1425 34.2859 72.1066 34.2878C70.6237 34.3738 69.1407 34.4608 67.6603 34.5477C67.5808 34.5523 67.5036 34.5381 67.4392 34.515C67.3721 34.4911 67.2976 34.4796 67.2155 34.4842C66.5382 34.5235 65.8609 34.5629 65.1835 34.6031C65.0142 34.6132 65.0116 34.6141 64.8366 34.5715C64.8005 34.5627 64.7619 34.5458 64.7336 34.5476C64.6746 34.5522 64.6184 34.5745 64.5776 34.6049C64.5369 34.6371 64.4728 34.6461 64.3779 34.6525C64.2804 34.6589 64.2162 34.6563 64.1416 34.635C64.0463 34.6084 63.9587 34.5827 63.8047 34.5918C61.8575 34.7089 59.9101 34.8215 57.9629 34.9377C57.8064 34.9468 57.734 34.9095 57.626 34.8891C57.59 34.883 57.5539 34.8741 57.5154 34.8724C57.4743 34.8706 57.4307 34.8761 57.3897 34.8788C54.2134 35.0646 51.0372 35.2513 47.861 35.4371C47.6711 35.4481 47.6737 35.4481 47.4667 35.5305C47.4411 35.5403 47.4079 35.5537 47.3719 35.5556C46.3996 35.6141 45.4247 35.6709 44.4497 35.7276C44.0264 35.7523 43.6031 35.7779 43.1798 35.8018C43.0284 35.81 43.0284 35.81 42.6675 35.9069C42.6368 35.915 42.6009 35.9257 42.565 35.9276C40.8717 36.0273 39.1784 36.1271 37.4825 36.225C37.3491 36.2324 37.2414 36.2486 37.1803 36.2915C37.137 36.3219 37.0807 36.3398 36.9961 36.3453C35.8108 36.4148 34.6255 36.4853 33.4376 36.5531C33.2965 36.5613 33.212 36.5864 33.1431 36.624C33.1201 36.6365 33.0997 36.6508 33.0665 36.6598C33.0358 36.6678 32.9896 36.6706 32.9511 36.6733C31.9351 36.7328 30.9192 36.7941 29.9006 36.8509C29.7492 36.8592 29.6879 36.8923 29.6139 36.9272C29.5883 36.9388 29.5705 36.9549 29.5373 36.963C29.504 36.9701 29.4552 36.9702 29.4141 36.9721C28.5675 37.0215 27.7209 37.0718 26.8742 37.1212C26.7098 37.117 26.6745 37.1688 26.5952 37.2002C26.5671 37.2109 26.5468 37.2252 26.5135 37.2324C26.4776 37.2396 26.4313 37.2387 26.3877 37.2406C25.7104 37.28 25.0331 37.322 24.3532 37.3587C24.1967 37.367 24.1664 37.4125 24.082 37.4438C24.0539 37.4537 24.0258 37.4689 23.9925 37.4716C23.5692 37.4981 23.1459 37.5228 22.7225 37.5467C22.5814 37.5549 22.5814 37.554 22.3334 37.6427C22.3052 37.6525 22.272 37.6633 22.236 37.666C21.6024 37.7044 20.9661 37.7411 20.3298 37.7786C20.2477 37.7832 20.1915 37.8047 20.1508 37.835C20.11 37.8654 20.0512 37.8851 19.9691 37.8897C19.4611 37.9199 18.9531 37.951 18.4451 37.9785C18.3039 37.9859 18.2118 38.0083 18.1506 38.0485C18.1048 38.0789 18.0485 38.0942 17.9587 38.0997C17.4507 38.129 16.9427 38.1609 16.4321 38.1867C16.2833 38.194 16.2066 38.2245 16.1454 38.262C16.097 38.2924 16.0406 38.3032 15.9457 38.3087C15.0143 38.3618 14.0804 38.415 13.1517 38.4734C12.9952 38.4835 12.9153 38.4524 12.8123 38.4302C12.6657 38.3992 12.5293 38.3655 12.5285 38.296C12.5283 38.2853 12.4846 38.2728 12.4536 38.264C12.2244 38.1974 12.2244 38.1974 12.1877 38.1261C12.1666 38.0824 12.143 38.0379 12.1245 37.9933C12.0903 37.9202 12.008 37.9016 11.7719 37.9153C11.6872 37.9199 11.6026 37.9263 11.5179 37.93C11.3922 37.9364 11.2969 37.9071 11.2732 37.8536C11.26 37.8242 11.2443 37.7948 11.2311 37.7654C11.3594 37.7581 11.3568 37.7572 11.5815 37.6489C11.676 37.6033 11.676 37.6033 11.4932 37.5581C11.4237 37.5412 11.3568 37.5226 11.2821 37.5066C11.2487 37.4995 11.205 37.4952 11.1691 37.497C10.9561 37.508 10.7457 37.5208 10.5354 37.5336C10.1967 37.5537 10.1967 37.5537 9.85162 37.4633C9.8233 37.4562 9.77951 37.4429 9.78456 37.4357C9.81243 37.4027 9.88158 37.3883 9.96883 37.3846C10.0971 37.3791 10.2228 37.37 10.3485 37.3626C10.4332 37.358 10.5179 37.3526 10.6025 37.348C10.6817 37.314 10.7636 37.2808 10.8376 37.2459C10.9551 37.1923 10.955 37.1905 10.7929 37.1532C10.6899 37.1284 10.5793 37.1063 10.4738 37.0833C10.348 37.0906 10.2198 37.0988 10.094 37.1052C9.93497 37.1135 9.87059 37.0966 9.82886 37.0387C9.79234 36.9879 9.8355 36.9442 9.95861 36.9333C10.0843 36.9224 10.2023 36.9151 10.266 36.8695C10.3271 36.8257 10.4348 36.8086 10.5682 36.8048C10.6529 36.802 10.7375 36.7956 10.8222 36.7902C10.9325 36.7829 10.9911 36.7373 10.9674 36.6865C10.9542 36.6535 10.9282 36.6259 10.828 36.6189C10.3835 36.5883 10.3783 36.5892 10.1569 36.5289C10.1363 36.5236 10.1207 36.5076 10.1283 36.4995C10.141 36.4861 10.1691 36.4665 10.1998 36.4637C10.4948 36.4437 10.7899 36.4254 11.085 36.4116C11.1825 36.407 11.2543 36.4006 11.2873 36.3676C11.333 36.322 11.312 36.2801 11.2218 36.249C11.1934 36.2393 11.147 36.2268 11.1162 36.2278C10.7775 36.2443 10.4415 36.2654 10.1028 36.2819C10.072 36.2837 10.0154 36.2687 10.0024 36.2571C9.97648 36.2357 10.0146 36.2071 10.1044 36.1972C10.2223 36.1836 10.343 36.1825 10.4221 36.1378C10.5317 36.0743 10.6671 36.0162 10.7897 35.9553C10.8101 35.9446 10.8433 35.924 10.8356 35.9222C10.7712 35.9027 10.6965 35.8877 10.6296 35.869C10.5163 35.838 10.5157 35.7943 10.5409 35.7523C10.5611 35.7184 10.638 35.7049 10.733 35.7048C10.774 35.7047 10.8254 35.7046 10.8587 35.6965C10.9457 35.6768 10.9737 35.6518 10.9298 35.6331C10.904 35.6224 10.8577 35.6073 10.8269 35.6092C10.2778 35.6394 9.72616 35.6688 9.17974 35.7062C9.01812 35.7171 8.94334 35.6833 8.84551 35.6594C8.77085 35.6408 8.70141 35.6337 8.60914 35.6473C8.52199 35.6599 8.43722 35.6529 8.38298 35.6235C8.33907 35.5995 8.41584 35.5789 8.62353 35.5554C8.66198 35.5509 8.70558 35.5481 8.73372 35.5392C9.03044 35.4424 9.03042 35.4415 9.23566 35.4287C9.43578 35.4168 9.43581 35.4159 9.54049 35.364C9.589 35.3399 9.6426 35.3157 9.68852 35.2906C9.70639 35.2808 9.73703 35.2629 9.7267 35.2576C9.66991 35.23 9.59279 35.2239 9.50301 35.2303C9.30293 35.2457 9.06664 35.2336 8.96233 35.3185C8.92162 35.3507 8.85753 35.3597 8.76517 35.3652C7.8364 35.4183 6.90764 35.475 5.97629 35.5263C5.82491 35.5346 5.756 35.5677 5.69737 35.6043C5.64636 35.6347 5.58997 35.6437 5.49247 35.6492C5.39498 35.6547 5.31795 35.6575 5.26114 35.6282C5.22757 35.6104 5.25553 35.5854 5.33227 35.5603C5.44226 35.5244 5.42121 35.4799 5.3848 35.438C5.35881 35.4104 5.27901 35.3909 5.19431 35.3928C5.06855 35.3966 4.94803 35.4065 4.84238 35.371C4.78053 35.3506 4.70334 35.3364 4.63382 35.3187C4.49991 35.2823 4.36598 35.2451 4.17885 35.2694C4.05038 35.2607 3.96017 35.2287 3.85719 35.2039C3.68473 35.1631 3.66925 35.1569 3.79199 35.113C3.93007 35.0638 3.8215 34.9997 3.89798 34.9514C3.97955 34.8995 4.09203 34.8539 4.19161 34.8056C4.21715 34.7931 4.24013 34.7814 4.26566 34.7689C4.20641 34.7511 4.15226 34.7289 4.0828 34.7165C3.99277 34.7006 3.94633 34.6811 3.95085 34.6258C3.93279 34.6178 3.94067 34.6383 3.96126 34.6436C3.98443 34.6489 4.0409 34.6444 4.06907 34.6381C4.14076 34.621 4.17642 34.5987 4.15824 34.58C4.14786 34.5702 4.09897 34.5577 4.06817 34.5578C4.01169 34.5579 3.96314 34.5776 3.94828 34.6258C3.66115 34.6628 3.3635 34.6811 3.06586 34.6958C3.03507 34.6976 2.99639 34.6798 2.96035 34.6709C2.84191 34.6408 2.8419 34.6417 2.49522 34.6333C2.45927 34.6324 2.41038 34.62 2.39227 34.6076C2.3172 34.5533 2.31912 34.4935 2.28252 34.4356C2.34885 34.398 2.41514 34.3613 2.48404 34.3247C2.62184 34.2504 2.80085 34.1851 2.90777 34.1037C2.88417 34.0601 2.85286 34.0164 2.96542 33.9805C3.28583 33.9355 3.28328 33.9355 3.37009 33.8925C3.61775 33.7709 3.86281 33.6483 4.12076 33.5284C4.18973 33.497 4.18955 33.4801 4.06617 33.4669C4.02762 33.4634 3.98648 33.4626 3.94542 33.4644C3.81713 33.4708 3.68895 33.4871 3.56311 33.4837C3.43728 33.4812 3.34442 33.4421 3.24146 33.4182C3.13592 33.3934 3.03038 33.3677 2.92483 33.3419C2.8042 33.3448 2.68384 33.37 2.56272 33.33C2.46995 33.2989 2.35418 33.2768 2.24863 33.2511C2.32745 33.1832 2.4758 33.1312 2.59065 33.0713C2.6953 33.0167 2.69782 33.0176 2.97974 32.9753C3.11302 32.9554 3.1581 32.8546 3.04481 32.8253C2.90834 32.7898 2.76423 32.757 2.62522 32.7233C2.50459 32.7262 2.38165 32.7505 2.26568 32.7105C2.17548 32.6803 2.07254 32.66 1.92377 32.6718C1.6724 32.6918 1.41579 32.702 1.16181 32.7184C1.07458 32.7239 0.979524 32.7205 0.940674 32.6902C0.91476 32.6688 0.988884 32.6393 1.07353 32.6329C1.2018 32.6238 1.31719 32.6129 1.38087 32.5682C1.44198 32.5235 1.55478 32.51 1.68821 32.5035C1.72413 32.5017 1.76512 32.4909 1.78297 32.4802C1.8748 32.4283 1.977 32.3836 2.1747 32.3851C2.25665 32.3671 2.30002 32.3447 2.2741 32.3234C2.25857 32.3118 2.20451 32.2967 2.17373 32.2986C1.96074 32.3078 1.74777 32.317 1.54 32.3334C1.44252 32.3407 1.36805 32.3426 1.30614 32.3159C1.26229 32.2981 1.28513 32.274 1.36699 32.248C1.43862 32.2256 1.45889 32.1997 1.45341 32.1694C1.43978 32.0989 1.36252 32.0785 1.11611 32.0834C0.939011 32.0872 0.895234 32.0757 0.856043 32.0151C0.845613 32.0008 0.819764 31.9812 0.837625 31.9714C0.947335 31.9106 1.01838 31.8356 1.22601 31.8067C1.30804 31.7959 1.39529 31.7957 1.44638 31.7725C1.49746 31.7492 1.54339 31.7224 1.59705 31.7C1.6635 31.6731 1.70939 31.6481 1.67839 31.6312C1.6267 31.601 1.54455 31.5984 1.44968 31.6092C1.36763 31.6183 1.28035 31.6193 1.19569 31.6248C1.04433 31.6348 0.920871 31.6118 0.902458 31.5726C0.852515 31.4692 0.800001 31.3667 0.755192 31.2633C0.749917 31.2508 0.762538 31.2347 0.782955 31.224C0.854417 31.1864 0.931064 31.1506 1.0051 31.114C1.09192 31.0719 1.23066 31.0797 1.34867 31.0715C1.51541 31.0597 1.51536 31.0606 1.73775 30.9746C1.82466 30.9406 1.97628 30.9537 2.0658 30.9233C2.09393 30.9134 2.13739 30.8973 2.12959 30.8884C2.11919 30.8768 2.06777 30.868 2.0292 30.8627C1.9932 30.8574 1.94953 30.8548 1.91105 30.8575C1.4441 30.8841 0.979751 30.9124 0.512789 30.9381C0.433254 30.9427 0.345744 30.9232 0.317192 30.8956C0.288661 30.8697 0.295987 30.8385 0.290521 30.8091C0.36456 30.7724 0.448866 30.7384 0.512605 30.699C0.561042 30.6686 0.617382 30.6552 0.714918 30.6532C0.843251 30.6504 0.968939 30.6395 1.11262 30.6312C1.37815 30.5006 1.63845 30.3638 1.92452 30.2331C2.03946 30.1803 2.01066 30.1268 2.03313 30.0706C2.05566 30.0188 2.22774 30.0266 2.3431 30.0113C2.43538 29.9986 2.46583 29.97 2.42966 29.9505C2.40899 29.9389 2.36266 29.9256 2.32672 29.9256C2.242 29.9258 2.15737 29.9339 2.0727 29.9385C1.98803 29.9431 1.89045 29.9406 1.8213 29.9558C1.75472 29.9702 1.71139 30.0006 1.66804 30.0265C1.61958 30.0551 1.55555 30.0651 1.45802 30.067C1.33224 30.069 1.20654 30.0772 1.08082 30.0836C0.941792 30.049 0.797613 30.0153 0.663704 29.979C0.637951 29.9719 0.632558 29.9514 0.634975 29.938C0.639718 29.9032 0.600977 29.8818 0.516067 29.865C0.444023 29.8509 0.38474 29.8304 0.31779 29.8127C0.368864 29.7885 0.425103 29.7653 0.465888 29.7393C0.55513 29.6848 0.667661 29.6454 0.862793 29.6469C0.93942 29.612 1.00053 29.5691 1.10039 29.5448C1.19511 29.5215 1.35712 29.5444 1.42841 29.4917C1.46406 29.4658 1.51767 29.4363 1.58687 29.4255C1.69707 29.4083 1.84094 29.4171 1.90456 29.367C1.94274 29.3384 1.99891 29.3125 2.07328 29.3052C2.15791 29.2971 2.24515 29.2951 2.30658 29.2781C2.33985 29.2691 2.37564 29.2548 2.3755 29.2423C2.37541 29.2343 2.32396 29.2219 2.28796 29.2166C2.25452 29.2104 2.21077 29.206 2.17228 29.2078C2.04398 29.2134 1.9183 29.2234 1.78999 29.2289C1.75407 29.2308 1.71294 29.2246 1.67437 29.2193C1.56125 29.2052 1.56873 29.1873 1.65823 29.1551C1.74773 29.1237 1.81149 29.0835 1.88553 29.0468C1.96762 29.0404 2.07032 29.043 2.12661 29.0259C2.22129 28.9981 2.28757 28.9579 2.36419 28.923C2.44885 28.9175 2.53612 28.9156 2.61559 28.9057C2.64893 28.9021 2.66412 28.8824 2.69223 28.8708C2.74332 28.8484 2.78664 28.8162 2.85584 28.8054C2.96862 28.7892 3.10732 28.7952 3.17351 28.7461C3.2117 28.7175 3.27038 28.6871 3.34225 28.6852C3.54245 28.6813 3.62662 28.6321 3.72879 28.5856C3.80542 28.5507 3.96993 28.5683 4.05426 28.5334C4.11049 28.511 4.15128 28.4833 4.20752 28.4618C4.23052 28.4528 4.27923 28.4483 4.31771 28.4456C4.52808 28.4319 4.74104 28.4217 4.9514 28.4072C4.98474 28.4044 5.01542 28.391 5.04098 28.3803C5.09463 28.357 5.1276 28.3248 5.19418 28.3096C5.26076 28.2943 5.35574 28.2942 5.43784 28.2896C5.70212 28.2758 5.72271 28.2793 5.84252 28.2033C5.93939 28.1417 6.17866 28.185 6.25749 28.1171C6.30326 28.0778 6.38758 28.0455 6.53899 28.0409C6.75201 28.0343 6.96233 28.017 7.17528 28.0051C7.36514 27.9941 7.36258 27.9941 7.56703 27.9109C7.65903 27.8733 7.79518 27.8784 7.91576 27.8711C8.04404 27.8638 8.16201 27.8529 8.22312 27.8082C8.28424 27.7644 8.39702 27.75 8.52788 27.7435C8.64848 27.7371 8.78462 27.7414 8.87921 27.7056C9.1093 27.6196 9.10673 27.6187 9.26836 27.6095C9.52236 27.5949 9.77635 27.5802 10.0303 27.5647C10.1997 27.5546 10.3768 27.5526 10.5357 27.5327C10.6511 27.5183 10.7019 27.4682 10.7759 27.4333C10.9863 27.4197 11.1967 27.406 11.407 27.3932C11.7021 27.3749 11.9997 27.3584 12.2973 27.341C12.4253 27.3069 12.4424 27.232 12.658 27.2281C12.7864 27.2261 12.9121 27.2143 13.0403 27.207C13.2533 27.1942 13.4636 27.1778 13.6766 27.1712C13.8383 27.1665 13.866 27.1183 13.9503 27.0879C13.9785 27.0771 14.004 27.0619 14.0373 27.0592C14.3708 27.0337 14.7147 27.0279 15.0404 26.9908C15.0737 26.9872 15.1043 26.9684 15.1118 26.955C15.1169 26.9479 15.0731 26.9346 15.0448 26.9284C15.0113 26.9213 14.9676 26.9142 14.9317 26.916C13.8721 26.9774 12.8125 27.0396 11.7529 27.101C11.6041 27.1101 11.6041 27.1092 11.2432 27.2079C11.2125 27.2159 11.1766 27.2249 11.1382 27.2276C10.9688 27.2386 10.7969 27.2451 10.6302 27.2587C10.4942 27.2696 10.3812 27.2591 10.2833 27.2271C10.2137 27.204 10.1417 27.197 10.0544 27.1989C9.95691 27.2018 9.89287 27.2117 9.83666 27.2358C9.76258 27.269 9.72454 27.3118 9.56804 27.321C8.84707 27.3604 8.12611 27.4043 7.40773 27.4464C7.30747 27.4341 7.25849 27.4154 7.28391 27.3931C7.29916 27.3797 7.32978 27.3618 7.36057 27.3599C7.65559 27.3408 7.9532 27.3243 8.24824 27.306C8.28929 27.3033 8.34578 27.305 8.36878 27.296C8.48129 27.2557 8.52168 27.1905 8.73471 27.1857C8.85791 27.1829 8.98354 27.1693 9.10149 27.1567C9.13483 27.153 9.16543 27.1343 9.17298 27.1209C9.17547 27.1137 9.13424 27.1004 9.10336 27.0942C8.99011 27.0685 8.85956 27.0999 8.7464 27.0823C8.70782 27.0761 8.65377 27.0672 8.64595 27.0565C8.6407 27.0467 8.68417 27.0306 8.71487 27.0208C8.74301 27.0118 8.7814 27.0037 8.81988 27.001C9.15853 26.98 9.49722 26.958 9.83592 26.9415C9.97448 26.935 10.0718 26.9126 10.1329 26.8715C10.1788 26.8411 10.2351 26.8249 10.3223 26.8203C10.915 26.7865 11.5076 26.749 12.1029 26.7178C12.2517 26.7104 12.3284 26.6809 12.3896 26.6424C12.438 26.612 12.4944 26.6012 12.5893 26.5958C13.4386 26.5481 14.2826 26.4951 15.1319 26.4492C15.2884 26.441 15.3342 26.4026 15.4134 26.3694C15.4415 26.3578 15.4593 26.3435 15.4951 26.3363C15.531 26.3291 15.5772 26.3299 15.6208 26.3281C16.2981 26.2887 16.9755 26.2467 17.6554 26.21C17.8145 26.2017 17.8448 26.1571 17.9266 26.1257C17.9547 26.1159 17.9802 26.0998 18.0135 26.0971C18.5215 26.066 19.0295 26.0367 19.5375 26.0065C19.8762 25.9864 20.2148 25.9662 20.5535 25.947C20.7202 25.9378 20.7202 25.9369 20.9452 25.8519C20.9708 25.842 21.0066 25.8304 21.04 25.8276C22.0149 25.7691 22.9872 25.7132 23.9622 25.6556C24.0443 25.651 24.1031 25.6304 24.1438 25.6C24.1845 25.5696 24.2434 25.549 24.3229 25.5444C25.0849 25.4987 25.8469 25.4539 26.6115 25.4108C26.75 25.4035 26.8473 25.3819 26.9085 25.3417C26.9543 25.3113 27.0106 25.2951 27.0979 25.2906C27.8599 25.2466 28.6219 25.2 29.3865 25.1578C29.5327 25.1496 29.6042 25.1191 29.6757 25.0833C29.7012 25.0708 29.7215 25.0503 29.7523 25.0484C30.132 25.0229 30.5091 24.9965 30.8914 24.9789C31.0505 24.9716 31.104 24.934 31.1678 24.8983C31.2188 24.8696 31.2778 24.8597 31.3753 24.856C31.5883 24.8477 31.7986 24.8322 32.0064 24.8167C32.0372 24.814 32.0755 24.7943 32.0779 24.7818C32.0828 24.7586 32.0235 24.7427 31.9259 24.7348C30.9099 24.7943 29.8914 24.8538 28.8754 24.9133C28.7086 24.9233 28.7086 24.9233 28.4836 25.0084C28.4581 25.0183 28.4222 25.0299 28.3863 25.0326C27.4114 25.0903 26.4391 25.147 25.4641 25.2047C25.382 25.2093 25.3232 25.2299 25.2825 25.2603C25.2417 25.2906 25.1829 25.3113 25.1033 25.3158C24.172 25.3707 23.2407 25.4265 22.3068 25.4788C22.1683 25.4861 22.071 25.5068 22.0098 25.5479C21.964 25.5783 21.9077 25.5944 21.8204 25.599C20.9301 25.6503 20.0424 25.7042 19.1496 25.7537C19.0597 25.7583 18.9927 25.7326 18.9976 25.7085C19 25.696 19.0383 25.6754 19.069 25.6736C19.5334 25.6435 19.9952 25.6124 20.4622 25.5895C20.6187 25.5821 20.6644 25.5428 20.7437 25.5096C20.7692 25.498 20.7896 25.4828 20.8229 25.4765C20.8588 25.4693 20.905 25.4702 20.9486 25.4683C22.0492 25.4033 23.1499 25.3375 24.2532 25.2761C24.4122 25.2669 24.4425 25.2232 24.5243 25.1918C24.5524 25.1811 24.5779 25.165 24.6113 25.1631C24.9499 25.1412 25.2886 25.122 25.6273 25.1028C26.2199 25.068 26.8126 25.0332 27.4078 24.9984C27.5797 24.9883 27.5797 24.9883 27.7995 24.9042C27.8251 24.8943 27.8609 24.8818 27.8943 24.88C29.4619 24.7875 31.0295 24.6951 32.5971 24.6036C32.6792 24.599 32.738 24.5784 32.7787 24.548C32.8195 24.5185 32.8782 24.497 32.9578 24.4915C35.077 24.3671 37.1936 24.2426 39.3128 24.1199C39.4514 24.1117 39.5487 24.0928 39.6098 24.0508C39.6531 24.0204 39.712 24.0042 39.7992 23.9988C42.1288 23.8624 44.4584 23.726 46.7905 23.5887C48.3581 23.4972 49.9257 23.4039 51.4933 23.3141C51.637 23.3059 51.7137 23.2781 51.7852 23.2414C51.8081 23.2289 51.831 23.2084 51.8618 23.2065C52.1979 23.1837 52.5339 23.1627 52.87 23.1417C52.9755 23.1656 53.0811 23.1887 53.1866 23.2126C53.2658 23.1786 53.3425 23.1437 53.4217 23.1097C53.9297 23.083 54.4298 23.0422 54.9432 23.0289C54.9765 23.028 55.0126 23.0449 55.0487 23.0537C55.2881 23.1096 55.4241 23.1049 55.5747 23.0297C55.6283 23.0029 55.6743 22.9788 55.7564 22.9742C56.0103 22.9577 56.267 22.9466 56.5184 22.9275C56.6543 22.9175 56.7674 22.9263 56.8653 22.9582C56.9348 22.9813 57.0069 22.991 57.0915 22.9856C57.5585 22.9581 58.0228 22.9315 58.4898 22.9023C58.5231 22.9005 58.5537 22.8853 58.5793 22.8745C58.6329 22.8512 58.6789 22.8262 58.73 22.802C58.7994 22.8171 58.8766 22.8286 58.9333 22.8481C59.0054 22.8712 59.0722 22.8711 59.1697 22.8647C61.0323 22.754 62.8975 22.646 64.7601 22.5344C64.9192 22.5252 64.9889 22.5626 65.097 22.582C65.133 22.5891 65.169 22.598 65.2076 22.5997C65.2487 22.6014 65.2922 22.596 65.3333 22.5933C66.7315 22.5109 68.1298 22.4294 69.5281 22.3471C69.7128 22.3361 69.7128 22.3361 69.9881 22.391C70.0216 22.3981 70.0653 22.406 70.1012 22.4033C70.7375 22.3676 71.3738 22.3292 72.0075 22.2925C72.0896 22.288 72.1591 22.3021 72.2338 22.3225C72.3806 22.3625 72.3908 22.3624 72.4979 22.3034C72.549 22.2757 72.6027 22.2586 72.6873 22.2505C72.7796 22.2414 72.8542 22.244 72.9262 22.26C73.0292 22.2821 73.1041 22.3195 73.2606 22.3094C73.9378 22.2665 74.6178 22.2307 75.2925 22.1869C75.4464 22.1768 75.5289 22.207 75.6318 22.2292C75.6679 22.2371 75.7014 22.2496 75.7399 22.2522C75.7785 22.2548 75.8246 22.2485 75.8656 22.2458C76.7123 22.1963 77.5615 22.1478 78.4056 22.0948C78.5646 22.0848 78.6344 22.123 78.7424 22.1425C78.7784 22.1495 78.8196 22.162 78.853 22.1601C79.361 22.1317 79.8716 22.1015 80.3796 22.0713C80.5618 22.0604 80.5617 22.0613 80.8396 22.1152C80.873 22.1223 80.9168 22.1294 80.9527 22.1276C81.5454 22.0937 82.1406 22.0589 82.7333 22.0241C82.9154 22.0131 82.9154 22.0131 83.4422 22.0587C83.4808 22.0623 83.5219 22.0676 83.5604 22.0657C84.2377 22.0263 84.9176 21.9879 85.5949 21.9458C85.7309 21.9376 85.844 21.9446 85.9419 21.9765C86.0114 21.9996 86.0834 22.0093 86.1681 22.0038C86.9301 21.959 87.6947 21.9159 88.4541 21.8684C88.6003 21.8593 88.6955 21.8788 88.7984 21.9045C88.8319 21.9133 88.8655 21.9258 88.904 21.9293C88.9426 21.9328 88.9862 21.9292 89.0272 21.9264C89.7892 21.8816 90.5538 21.8394 91.3131 21.791C91.4671 21.781 91.5496 21.8112 91.6525 21.8333C91.6886 21.8413 91.7272 21.8573 91.758 21.8564C92.0557 21.8407 92.3533 21.8269 92.6483 21.8042C92.8073 21.7915 92.8771 21.8324 92.9852 21.8518C93.0212 21.858 93.0624 21.8714 93.0957 21.8695C93.732 21.8338 94.3683 21.7963 95.002 21.7579C95.0918 21.7524 95.1586 21.7603 95.2308 21.7834C95.3261 21.8145 95.4367 21.8268 95.5752 21.8168C95.8702 21.7958 96.1678 21.7811 96.4655 21.7637C96.6399 21.7536 96.6399 21.7536 97.1744 21.7992C97.213 21.8027 97.2541 21.808 97.2926 21.8062C97.8006 21.7769 98.3112 21.7485 98.8166 21.7165C98.9525 21.7074 99.0656 21.7152 99.1635 21.7472C99.2331 21.7703 99.3025 21.78 99.3897 21.7745C99.8567 21.7471 100.321 21.7196 100.788 21.6921C100.957 21.6821 101.127 21.6649 101.296 21.6646C101.419 21.6653 101.51 21.708 101.62 21.7293C101.651 21.7355 101.702 21.7282 101.743 21.7264C102.336 21.6916 102.931 21.6595 103.521 21.6203C103.675 21.6102 103.758 21.6404 103.861 21.6626C103.897 21.6706 103.935 21.6866 103.966 21.6856C104.179 21.6755 104.39 21.6618 104.603 21.6499C104.857 21.6352 105.113 21.6241 105.365 21.6042C105.57 21.5878 105.648 21.6653 105.812 21.6677C105.938 21.6702 106.066 21.6548 106.192 21.6475C106.446 21.6329 106.7 21.6164 106.954 21.6036C107.043 21.599 107.113 21.5846 107.141 21.5524C107.146 21.5462 107.102 21.5329 107.073 21.5249C106.731 21.4344 106.731 21.4344 106.387 21.4546C106.174 21.4674 105.964 21.4802 105.751 21.4912C105.715 21.493 105.674 21.4859 105.638 21.4806C105.535 21.4656 105.545 21.4478 105.632 21.4155C105.719 21.3833 105.785 21.344 105.859 21.3073C105.965 21.3303 106.068 21.3533 106.173 21.3764C106.258 21.3718 106.343 21.3663 106.427 21.3617C106.851 21.3379 107.274 21.3132 107.697 21.2912C107.728 21.2893 107.767 21.3071 107.803 21.316C107.906 21.3417 107.998 21.3638 108.147 21.3538C108.527 21.3274 108.909 21.3081 109.289 21.2852C109.456 21.2752 109.456 21.2752 109.749 21.33C109.782 21.3362 109.826 21.3433 109.862 21.3414C110.244 21.3204 110.624 21.2975 111.006 21.2755C111.088 21.2709 111.168 21.2824 111.228 21.3082C111.251 21.3189 111.246 21.3367 111.345 21.4828C111.649 21.601 111.857 21.5882 112.067 21.5772C112.157 21.5726 112.237 21.568 112.296 21.5501C112.326 21.5403 112.365 21.5259 112.365 21.5143C112.364 21.5054 112.308 21.4912 112.272 21.4895C112.018 21.472 111.777 21.5099 111.528 21.5183C111.412 21.522 111.312 21.4909 111.291 21.4401C111.285 21.4258 111.277 21.4107 111.27 21.3964C111.262 21.3822 111.256 21.367 111.249 21.3528C111.148 21.3485 111.09 21.3646 111.046 21.395C111.011 21.42 110.96 21.4486 110.89 21.4621C110.821 21.4765 110.726 21.474 110.642 21.4785C110.559 21.4831 110.47 21.4949 110.393 21.4887C110.315 21.4817 110.254 21.4559 110.182 21.44C110.148 21.432 110.107 21.4205 110.074 21.4223C109.778 21.4379 109.486 21.4535 109.194 21.4736C109.04 21.4845 108.962 21.4472 108.864 21.4241C108.787 21.4064 108.71 21.411 108.698 21.452C108.665 21.5502 108.784 21.591 109.046 21.5719C109.261 21.5555 109.456 21.5526 109.626 21.613C109.65 21.621 109.703 21.6244 109.737 21.6226C109.947 21.6116 110.155 21.5979 110.365 21.5869C110.404 21.585 110.445 21.5885 110.481 21.5921C111.005 21.6394 111.005 21.6403 111.182 21.6294C111.267 21.6239 111.349 21.6193 111.34 21.4837C111.5 21.3381 111.757 21.3279 112.005 21.3061C112.167 21.2925 112.237 21.3317 112.342 21.352C112.378 21.3591 112.417 21.3733 112.45 21.3715C113.002 21.3412 113.551 21.3092 114.1 21.2754C114.192 21.2699 114.259 21.2751 114.331 21.2982C114.424 21.3275 114.527 21.3461 114.673 21.3352C114.966 21.3133 115.263 21.2995 115.561 21.2812C115.712 21.2721 115.712 21.2721 116.018 21.3269C116.052 21.3331 116.095 21.3402 116.131 21.3383C116.429 21.3227 116.724 21.3036 117.019 21.2871C117.101 21.2825 117.176 21.2949 117.24 21.3189C117.305 21.3428 117.382 21.3552 117.461 21.3506C117.759 21.3341 118.054 21.3159 118.349 21.2994C118.385 21.2975 118.429 21.3037 118.462 21.3099C118.776 21.3647 118.776 21.3647 118.92 21.3556C119.13 21.3419 119.346 21.3353 119.553 21.3172C119.756 21.299 119.862 21.3506 120.001 21.379C120.381 21.3579 120.763 21.3404 121.14 21.3148C121.294 21.3039 121.376 21.3332 121.479 21.3562C121.515 21.3642 121.551 21.3811 121.585 21.3802C121.713 21.3764 121.839 21.3664 121.965 21.3591C122.09 21.3518 122.219 21.3444 122.344 21.3371C122.488 21.3628 122.584 21.4233 122.789 21.4025C122.912 21.3898 123.043 21.3869 123.169 21.3796C123.295 21.3723 123.423 21.3649 123.549 21.3576C123.633 21.353 123.721 21.3502 123.803 21.3421C123.954 21.3285 124.029 21.3721 124.137 21.3915C124.173 21.3977 124.214 21.4084 124.247 21.4065C124.501 21.3937 124.758 21.3826 125.007 21.3617C125.199 21.3453 125.33 21.3719 125.467 21.4092C125.495 21.4171 125.544 21.4215 125.58 21.4197C125.878 21.4041 126.173 21.3849 126.468 21.3684C126.547 21.3638 126.624 21.378 126.689 21.4011C126.756 21.4251 126.83 21.4366 126.913 21.432C127.208 21.4155 127.505 21.3972 127.8 21.3807C127.836 21.3789 127.88 21.3859 127.913 21.393C128.202 21.4479 128.202 21.4488 128.371 21.4378C128.412 21.4351 128.456 21.4332 128.497 21.4305C128.707 21.4177 128.925 21.4129 129.13 21.3912C129.366 21.3668 129.539 21.3968 129.706 21.4474C129.916 21.4364 130.132 21.4299 130.337 21.4117C130.491 21.3981 130.574 21.4319 130.677 21.454C130.713 21.462 130.751 21.478 130.782 21.4762C131.08 21.4606 131.377 21.4467 131.67 21.424C131.829 21.4113 131.899 21.4513 132.007 21.4717C132.043 21.4787 132.081 21.4912 132.115 21.4893C132.284 21.482 132.453 21.471 132.623 21.4609C132.82 21.449 132.82 21.4499 133.083 21.5039C133.206 21.5296 133.329 21.5089 133.45 21.5025C133.578 21.4952 133.699 21.4897 133.802 21.5261C133.866 21.5492 133.943 21.5633 134.023 21.5596C134.192 21.5514 134.364 21.5431 134.531 21.5294C134.664 21.5185 134.78 21.5255 134.878 21.5584C134.947 21.5814 135.019 21.5929 135.104 21.5875C135.484 21.5655 135.866 21.5426 136.246 21.5215C136.279 21.5197 136.325 21.5277 136.356 21.5356C136.428 21.5516 136.498 21.5693 136.567 21.5871C136.734 21.5788 136.906 21.575 137.07 21.5622C137.245 21.5495 137.404 21.5448 137.541 21.5936C137.569 21.6043 137.61 21.6194 137.643 21.6185C137.772 21.6147 137.897 21.6056 138.023 21.5983C138.149 21.5909 138.277 21.5836 138.403 21.5763C138.549 21.5984 138.643 21.6625 138.848 21.6416C138.971 21.629 139.102 21.6261 139.228 21.6188C139.353 21.6115 139.482 21.6032 139.607 21.5968C139.648 21.595 139.694 21.5904 139.73 21.5939C139.769 21.5975 139.802 21.6099 139.836 21.6188C139.939 21.6445 140.034 21.6702 140.18 21.6548C140.304 21.6421 140.434 21.6393 140.56 21.6311C140.732 21.621 140.732 21.621 141.018 21.6768C141.133 21.6998 141.264 21.6693 141.375 21.6887C141.449 21.702 141.514 21.7242 141.586 21.7392C141.617 21.7454 141.665 21.748 141.701 21.7462C141.871 21.7379 142.043 21.7296 142.209 21.716C142.345 21.7051 142.458 21.7156 142.554 21.7476C142.623 21.7707 142.693 21.7804 142.78 21.7749C143.203 21.7493 143.627 21.7273 144.047 21.699C144.191 21.689 144.307 21.704 144.387 21.736C144.523 21.7911 144.715 21.7257 144.857 21.77C144.944 21.7976 145.032 21.8296 145.191 21.8159C145.483 21.7923 145.781 21.7794 146.076 21.7629C146.182 21.7868 146.287 21.8107 146.395 21.8347C146.565 21.8246 146.734 21.8145 146.903 21.8053C147.029 21.798 147.157 21.7898 147.283 21.7834C147.324 21.7815 147.368 21.7779 147.406 21.7823C147.445 21.7867 147.476 21.7983 147.512 21.8071C147.689 21.8506 147.689 21.8515 147.982 21.8332C148.108 21.825 148.228 21.8194 148.334 21.855C148.432 21.8878 148.547 21.8939 148.681 21.8839C148.932 21.8657 149.186 21.8519 149.443 21.839C149.522 21.8344 149.597 21.8495 149.664 21.8726C149.764 21.909 149.888 21.9053 150.013 21.8953C150.18 21.8825 150.344 21.8698 150.486 21.9195C150.514 21.9302 150.558 21.9453 150.589 21.9444C150.799 21.9369 151.012 21.9312 151.218 21.914C151.423 21.8967 151.524 21.9519 151.665 21.9784C151.875 21.9665 152.088 21.9546 152.299 21.9427C152.34 21.94 152.389 21.9319 152.425 21.9363C152.576 21.9548 152.664 22.0215 152.872 22.0007C152.992 21.9889 153.123 21.9852 153.249 21.9823C153.282 21.9814 153.326 21.9965 153.35 22.008C153.362 22.0143 153.35 22.0312 153.335 22.0402C153.289 22.0652 153.232 22.0885 153.192 22.1144C153.186 22.118 153.235 22.134 153.264 22.1411C153.333 22.157 153.413 22.1542 153.505 22.147C153.585 22.1406 153.667 22.153 153.724 22.1796C153.747 22.1903 153.739 22.2081 153.691 22.2671C153.692 22.3108 153.746 22.2911 153.763 22.2625C153.791 22.2214 153.737 22.2081 153.634 22.2306C153.563 22.2468 153.527 22.27 153.545 22.2887C153.556 22.2985 153.605 22.3109 153.691 22.2671C153.917 22.2132 154.086 22.2032 154.255 22.1931C154.299 22.1904 154.35 22.1814 154.381 22.1867C154.492 22.2079 154.595 22.2336 154.703 22.2576C154.826 22.252 154.941 22.2385 155.062 22.2731C155.232 22.3219 155.24 22.3174 155.404 22.3073C155.489 22.3019 155.574 22.2973 155.658 22.2927C155.743 22.2881 155.81 22.3014 155.884 22.3218C156.036 22.3635 156.049 22.3635 156.149 22.3062C156.207 22.2714 156.248 22.2597 156.323 22.2757C156.57 22.3297 156.573 22.3333 156.783 22.3169C156.957 22.3032 157.122 22.2994 157.251 22.3501C157.338 22.3856 157.366 22.3776 157.435 22.34C157.619 22.2407 157.704 22.2424 158.051 22.3132C158.213 22.3469 158.38 22.3101 158.544 22.3053C158.683 22.3016 158.78 22.3228 158.791 22.379C158.799 22.4138 158.823 22.4387 158.915 22.4502C158.951 22.4546 158.995 22.4608 159.031 22.4589C159.244 22.4479 159.454 22.4351 159.667 22.4223C159.775 22.4159 159.834 22.3739 159.812 22.3186C159.789 22.2598 159.829 22.2383 159.983 22.2211C160.076 22.2112 160.15 22.2129 160.225 22.2288C160.307 22.2465 160.284 22.2626 160.213 22.2948C160.042 22.3736 160.063 22.4217 160.284 22.4758C160.361 22.4944 160.423 22.5113 160.441 22.5389C160.452 22.5531 160.442 22.5719 160.465 22.5826C160.591 22.6421 160.766 22.6802 160.962 22.7085C161.149 22.6841 161.278 22.7241 161.422 22.756C161.535 22.7808 161.668 22.7592 161.789 22.7501C161.925 22.7401 162.038 22.747 162.136 22.7799C162.205 22.803 162.277 22.8136 162.362 22.809C162.531 22.7989 162.703 22.7924 162.87 22.7779C163.014 22.7652 163.122 22.7829 163.212 22.8131C163.325 22.8512 163.451 22.8252 163.569 22.8304C163.728 22.8364 163.809 22.9156 164.016 22.8939C164.14 22.8812 164.268 22.8766 164.396 22.8728C164.43 22.8719 164.471 22.887 164.499 22.8977C164.636 22.9465 164.795 22.9436 164.969 22.9291C165.09 22.9191 165.208 22.91 165.326 22.9437C165.522 23.0005 165.738 23.0501 165.944 23.1025C165.973 23.1434 165.953 23.1916 166.1 23.2155C166.177 23.2279 166.249 23.2465 166.308 23.2669C166.38 23.2909 166.447 23.297 166.539 23.2907C166.706 23.2779 166.881 23.275 167.045 23.2587C167.196 23.2442 167.291 23.2735 167.384 23.301C167.459 23.3232 167.528 23.3338 167.618 23.3176C167.71 23.3023 167.777 23.312 167.852 23.336C167.957 23.3688 167.965 23.3652 168.314 23.3745C168.35 23.3754 168.394 23.3887 168.415 23.4002C168.425 23.4065 168.402 23.4244 168.384 23.4333C168.361 23.444 168.326 23.4566 168.292 23.4593C167.913 23.4831 167.53 23.5041 167.151 23.5279C167.112 23.5306 167.071 23.537 167.043 23.5459C167.012 23.5558 166.974 23.5692 166.974 23.5817C166.974 23.5906 167.026 23.6012 167.062 23.6074C167.175 23.6278 167.308 23.5964 167.419 23.6194C167.493 23.6344 167.555 23.6557 167.63 23.6699C167.661 23.6761 167.709 23.6751 167.748 23.6733C167.876 23.6669 168.002 23.6578 168.13 23.6522C168.166 23.6513 168.207 23.6601 168.241 23.6672C168.488 23.7204 168.488 23.7204 168.701 23.7085C168.785 23.7039 168.875 23.6904 168.955 23.6956C169.032 23.7008 169.099 23.7248 169.168 23.7399C169.312 23.7718 169.449 23.8028 169.46 23.8723C169.465 23.8991 169.55 23.9221 169.635 23.9238C169.717 23.9255 169.804 23.9155 169.889 23.9101C170.089 23.8991 170.089 23.8991 170.349 23.9531C170.421 23.9681 170.498 23.9698 170.59 23.9607C170.626 23.9571 170.67 23.9606 170.709 23.965C170.835 23.9782 170.835 23.9952 170.753 24.0274C170.638 24.0748 170.648 24.0793 170.972 24.1189C171.096 24.1339 171.191 24.1623 171.294 24.1872C171.461 24.227 171.459 24.227 171.349 24.2798C171.323 24.2915 171.3 24.304 171.275 24.3165C171.201 24.3514 171.142 24.389 170.988 24.3928C170.819 24.3966 170.649 24.4111 170.48 24.4212C170.316 24.4312 170.273 24.4527 170.289 24.5133C170.307 24.5864 170.341 24.5944 170.636 24.5931C170.721 24.593 170.795 24.6 170.86 24.624C170.829 24.6526 170.773 24.6749 170.691 24.6804C170.481 24.6941 170.268 24.706 170.057 24.7179C169.888 24.728 169.719 24.7381 169.549 24.7481C169.444 24.7545 169.378 24.801 169.407 24.8527C169.422 24.8821 169.436 24.9115 169.449 24.9409C169.478 24.9998 169.532 25.0149 169.704 25.0119C169.747 25.011 169.788 25.0038 169.829 25.0055C169.996 25.0115 170.077 25.0854 170.277 25.0699C170.444 25.0572 170.618 25.0543 170.782 25.038C170.934 25.0235 171.019 25.0555 171.124 25.0794C171.16 25.0874 171.199 25.1042 171.23 25.1033C171.443 25.0932 171.656 25.0831 171.863 25.0658C171.961 25.0585 172.02 25.0638 172.097 25.0851C172.283 25.1365 172.288 25.1338 172.562 25.1174C172.762 25.1046 172.765 25.1064 173.022 25.1604C173.094 25.1755 173.171 25.1753 173.264 25.1681C173.384 25.159 173.51 25.1445 173.636 25.1577C173.674 25.1612 173.723 25.1718 173.736 25.1834C173.744 25.1914 173.708 25.2111 173.678 25.2174C173.452 25.2641 173.188 25.2565 172.942 25.2756C172.865 25.2811 172.787 25.2642 172.723 25.2402C172.656 25.2162 172.584 25.2065 172.497 25.2111C172.327 25.2212 172.155 25.2277 171.989 25.2422C171.845 25.2549 171.745 25.2346 171.644 25.2071C171.611 25.1982 171.572 25.1813 171.539 25.1822C171.159 25.2006 170.777 25.2191 170.4 25.2446C170.248 25.2555 170.161 25.2271 170.058 25.2032C170.022 25.1952 169.986 25.1783 169.952 25.1793C169.824 25.183 169.698 25.193 169.57 25.2003C169.103 25.2278 168.638 25.2552 168.172 25.2809C168.141 25.2827 168.102 25.2641 168.066 25.2561C167.997 25.2401 167.924 25.2251 167.852 25.21C167.724 25.2174 167.598 25.2265 167.47 25.232C167.378 25.2357 167.296 25.2483 167.283 25.2822C167.276 25.3045 167.361 25.3249 167.451 25.323C167.538 25.3211 167.625 25.3103 167.697 25.3218C168.055 25.3783 168.055 25.3792 168.278 25.3673C168.473 25.3563 168.452 25.3474 168.625 25.3962C168.699 25.4175 168.766 25.4299 168.851 25.4244C169.061 25.4116 169.274 25.3988 169.487 25.3878C169.521 25.3859 169.564 25.3948 169.598 25.4019C169.85 25.455 169.85 25.4568 170.058 25.4431C170.33 25.4267 170.34 25.4222 170.523 25.4763C170.649 25.5136 170.764 25.4876 170.885 25.4856C171.024 25.5202 171.176 25.5512 171.302 25.5902C171.451 25.6364 171.608 25.6281 171.777 25.6145C171.903 25.6045 172.026 25.6007 172.129 25.6372C172.227 25.6709 172.345 25.6743 172.479 25.6652C172.599 25.657 172.722 25.6398 172.848 25.6593C172.882 25.6646 172.933 25.6779 172.931 25.6859C172.928 25.6984 172.895 25.7163 172.862 25.7217C172.626 25.7586 172.367 25.7581 172.118 25.7754C172.085 25.7782 172.041 25.7684 172.007 25.7613C171.935 25.7454 171.866 25.7267 171.796 25.7099C171.671 25.7154 171.542 25.7174 171.419 25.7283C171.324 25.7365 171.252 25.7357 171.183 25.7144C171.118 25.6949 171.049 25.6709 170.972 25.6647C170.895 25.6586 170.805 25.6721 170.72 25.6776C170.636 25.6831 170.538 25.6806 170.471 25.6949C170.405 25.7093 170.364 25.7406 170.321 25.7656C170.272 25.7933 170.206 25.8024 170.108 25.8052C170.018 25.808 169.946 25.8045 169.879 25.7797C169.851 25.769 169.812 25.761 169.774 25.7539C169.738 25.7478 169.697 25.738 169.663 25.7398C169.281 25.7609 168.901 25.7838 168.519 25.8058C168.329 25.8168 168.332 25.8167 167.936 25.7647C167.9 25.7603 167.856 25.7541 167.82 25.756C167.607 25.767 167.397 25.7798 167.184 25.7926C166.968 25.8054 166.971 25.8036 166.603 25.748C166.536 25.7374 166.439 25.7518 166.359 25.7501C166.192 25.7459 166.109 25.6711 165.914 25.6857C165.748 25.6984 165.573 25.7013 165.406 25.7176C165.255 25.7321 165.167 25.7011 165.064 25.6771C165.028 25.6692 164.99 25.6514 164.959 25.6532C164.577 25.6734 164.197 25.6963 163.689 25.6997C163.563 25.6999 163.619 25.7185 163.702 25.7247C163.82 25.7343 163.858 25.7155 163.794 25.6799C163.747 25.655 163.68 25.6426 163.626 25.6489C163.598 25.6525 163.562 25.6696 163.689 25.6997C163.822 25.7334 163.815 25.7521 163.838 25.7628C163.895 25.7886 163.975 25.7992 164.057 25.7955C164.185 25.789 164.311 25.7799 164.439 25.7744C164.475 25.7726 164.519 25.7787 164.552 25.7858C164.835 25.8407 164.838 25.8443 165.138 25.8224C165.233 25.816 165.302 25.8159 165.377 25.8328C165.48 25.8558 165.555 25.8949 165.711 25.8822C165.919 25.8649 166.132 25.8548 166.345 25.8447C166.378 25.8429 166.414 25.8589 166.453 25.8659C166.558 25.8872 166.636 25.9272 166.792 25.91C166.913 25.8965 167.044 25.8927 167.172 25.8898C167.205 25.8889 167.257 25.9031 167.272 25.9147C167.303 25.9351 167.265 25.9593 167.178 25.9764C167.142 25.9835 167.093 25.9818 167.052 25.9846C166.883 25.9946 166.714 26.0056 166.544 26.0139C166.455 26.0185 166.37 26.032 166.36 26.065C166.353 26.0873 166.445 26.1068 166.533 26.1049C166.661 26.102 166.789 26.0947 166.912 26.0829C167.13 26.0629 167.32 26.068 167.498 26.1239C167.624 26.163 167.616 26.1487 167.751 26.2645C167.785 26.2939 167.885 26.2964 167.972 26.2945C168.183 26.2897 168.281 26.303 168.263 26.3306C168.24 26.3646 168.166 26.3754 168.071 26.38C167.902 26.3874 167.732 26.3992 167.563 26.4093C167.522 26.412 167.476 26.4174 167.437 26.4157C167.399 26.414 167.363 26.4033 167.329 26.3954C167.257 26.3785 167.195 26.3527 167.118 26.3466C167.041 26.3405 166.951 26.354 166.867 26.3595C166.782 26.3641 166.692 26.3776 166.615 26.3714C166.538 26.3653 166.474 26.3387 166.404 26.3227C166.371 26.3147 166.329 26.3023 166.296 26.3032C166.127 26.3106 165.957 26.3225 165.788 26.3317C165.58 26.3436 165.58 26.3436 165.328 26.2886C165.256 26.2727 165.182 26.2737 165.087 26.281C164.881 26.2955 164.879 26.2929 164.503 26.2417C164.467 26.2364 164.424 26.2302 164.388 26.2329C164.005 26.254 163.626 26.2769 163.246 26.2989C162.92 26.3181 162.92 26.3181 162.742 26.4076C162.609 26.4738 162.606 26.4738 162.737 26.5039C162.843 26.5287 162.938 26.5651 163.054 26.5783C163.162 26.5907 163.295 26.5503 163.414 26.5912C163.473 26.6116 163.55 26.6338 163.625 26.6373C163.743 26.6415 163.868 26.6155 163.982 26.6546C164.038 26.6741 164.123 26.6945 164.195 26.6953C164.321 26.6969 164.449 26.6824 164.575 26.676C164.614 26.6741 164.657 26.6741 164.693 26.6785C164.732 26.6838 164.765 26.6944 164.799 26.7033C164.902 26.7335 165.012 26.7476 165.146 26.7322C165.364 26.7069 165.559 26.7191 165.729 26.7759C165.752 26.7839 165.809 26.7848 165.844 26.7811C165.937 26.7721 166.016 26.7711 166.086 26.7879C166.114 26.795 166.155 26.8074 166.15 26.8155C166.143 26.8288 166.112 26.8467 166.079 26.8512C165.838 26.8819 165.579 26.8859 165.33 26.9023C165.296 26.9041 165.255 26.8926 165.222 26.8846C165.15 26.8687 165.088 26.842 165.011 26.8359C164.934 26.8298 164.844 26.8415 164.759 26.8461C164.675 26.8507 164.585 26.8642 164.508 26.8589C164.431 26.8528 164.359 26.8306 164.297 26.8111C164.225 26.7889 164.155 26.7863 164.06 26.7954C163.937 26.8072 163.809 26.8091 163.683 26.8156C163.614 26.7987 163.544 26.7801 163.472 26.7641C163.439 26.7562 163.397 26.7464 163.362 26.7474C163.192 26.7548 163.023 26.7657 162.853 26.7758C162.684 26.7858 162.684 26.7858 162.396 26.731C162.363 26.7248 162.319 26.7177 162.283 26.7195C162.07 26.7306 161.86 26.7442 161.647 26.7553C161.565 26.7599 161.49 26.7475 161.423 26.7235C161.358 26.6995 161.281 26.6862 161.202 26.6908C160.863 26.7101 160.524 26.7284 160.186 26.7512C160.05 26.7603 159.934 26.7525 159.841 26.7205C159.733 26.6841 159.613 26.6932 159.487 26.7005C159.202 26.7188 159.2 26.7179 159.017 26.6727C158.981 26.6638 158.945 26.6469 158.911 26.6479C158.616 26.6617 158.318 26.6746 158.026 26.6964C157.872 26.7083 157.79 26.6772 157.687 26.6541C157.651 26.6462 157.612 26.6293 157.581 26.6311C157.368 26.6412 157.155 26.6505 156.947 26.6686C156.74 26.6868 156.659 26.6039 156.503 26.6051C156.29 26.6063 156.079 26.6271 155.869 26.6399C155.7 26.65 155.53 26.66 155.361 26.6701C155.192 26.6802 155.022 26.6884 154.853 26.7003C154.763 26.7067 154.696 26.6987 154.622 26.6765C154.526 26.6473 154.413 26.6242 154.31 26.5976C154.153 26.5595 154.153 26.5595 153.963 26.5705C153.922 26.5732 153.878 26.5751 153.837 26.5778C153.527 26.5979 153.527 26.5961 153.131 26.5405C153.113 26.5379 153.067 26.5478 153.049 26.5549C152.995 26.5782 152.947 26.6032 152.898 26.6274C152.829 26.6132 152.744 26.6053 152.698 26.5849C152.566 26.5271 152.362 26.6068 152.227 26.5499C152.178 26.5286 152.093 26.5099 152.016 26.5047C151.937 26.4995 151.847 26.5121 151.765 26.5176C151.552 26.5313 151.552 26.5304 151.371 26.61C151.279 26.6494 151.145 26.6425 151.025 26.6516C150.899 26.6616 150.778 26.6671 150.673 26.6307C150.577 26.5978 150.462 26.59 150.326 26.6009C150.159 26.6145 149.987 26.6228 149.818 26.6311C149.782 26.6329 149.738 26.6285 149.702 26.6232C149.309 26.5712 149.309 26.5703 149.119 26.5822C149.034 26.5877 148.947 26.5896 148.865 26.5977C148.726 26.6122 148.621 26.5936 148.52 26.5652C148.487 26.5564 148.448 26.5395 148.415 26.5404C148.245 26.5451 148.079 26.5534 147.912 26.5617C147.784 26.5681 147.655 26.5719 147.532 26.5845C147.327 26.6054 147.226 26.5475 147.085 26.521C146.874 26.5329 146.661 26.5412 146.451 26.5576C146.354 26.5649 146.289 26.5623 146.215 26.541C146.119 26.5144 146.032 26.4842 145.878 26.4978C145.673 26.516 145.457 26.5225 145.247 26.5335C145.105 26.5061 145.002 26.4501 144.799 26.4709C144.676 26.4835 144.545 26.4864 144.42 26.4937C144.25 26.5038 144.081 26.513 143.912 26.5239C143.729 26.5349 143.732 26.5322 143.452 26.48C143.289 26.449 143.123 26.4841 142.959 26.4897C142.83 26.4943 142.767 26.5355 142.798 26.588C142.83 26.6406 142.761 26.6817 142.643 26.6891C142.348 26.7064 142.05 26.7247 141.755 26.7403C141.719 26.7422 141.675 26.736 141.642 26.7298C141.325 26.6741 141.325 26.675 141.184 26.6832C140.974 26.6969 140.758 26.7044 140.551 26.7216C140.407 26.7334 140.302 26.7149 140.209 26.6847C140.137 26.6616 140.07 26.6563 139.977 26.6618C138.962 26.7231 137.945 26.7799 136.932 26.843C136.781 26.8521 136.693 26.8264 136.59 26.8024C136.554 26.7945 136.521 26.7776 136.485 26.7776C136.4 26.7778 136.315 26.7859 136.231 26.7914C135.851 26.8134 135.471 26.8398 135.089 26.8564C134.927 26.8638 134.884 26.9049 134.815 26.9389C134.762 26.9648 134.7 26.9756 134.605 26.9793C134.513 26.983 134.446 26.9787 134.374 26.9556C134.281 26.9254 134.176 26.9068 134.032 26.9195C133.865 26.9341 133.696 26.9406 133.524 26.9506C133.437 26.9552 133.37 26.9714 133.342 27.0035C133.337 27.0089 133.391 27.0222 133.422 27.0302C133.525 27.0568 133.623 27.0878 133.739 27.1064C133.857 27.125 133.985 27.1034 134.108 27.0978C134.152 27.096 134.193 27.0906 134.234 27.0914C134.273 27.0922 134.319 27.0966 134.347 27.1046C134.481 27.1445 134.623 27.172 134.807 27.1476C134.966 27.159 135.05 27.2329 135.252 27.213C135.375 27.2012 135.504 27.1956 135.632 27.191C135.665 27.1901 135.701 27.2061 135.737 27.214C135.84 27.2362 135.923 27.2717 136.077 27.2563C136.241 27.24 136.415 27.2371 136.582 27.2244C136.674 27.2171 136.741 27.2232 136.813 27.2463C136.906 27.2756 137.012 27.2978 137.155 27.2833C137.278 27.2706 137.409 27.2677 137.535 27.2595C137.699 27.2495 137.699 27.2503 137.992 27.3052C138.026 27.3114 138.07 27.3185 138.106 27.3166C138.319 27.3056 138.529 27.2919 138.742 27.2809C138.824 27.2763 138.904 27.2878 138.96 27.3136C138.984 27.3242 138.976 27.3421 138.984 27.3573C138.561 27.382 138.137 27.4031 137.717 27.4332C137.558 27.445 137.485 27.4086 137.38 27.3882C137.344 27.3811 137.305 27.366 137.272 27.3678C136.974 27.3834 136.679 27.3999 136.384 27.42C136.292 27.4264 136.222 27.4229 136.153 27.3972C135.975 27.3287 135.76 27.3665 135.559 27.3766C135.406 27.384 135.357 27.4117 135.376 27.4706C135.4 27.5401 135.492 27.5614 135.728 27.5485C135.813 27.544 135.898 27.5376 135.982 27.5339C136.064 27.5302 136.139 27.5417 136.206 27.5657C136.27 27.5896 136.348 27.602 136.427 27.5983C136.596 27.5901 136.768 27.5818 136.933 27.5681C137.068 27.5572 137.182 27.566 137.277 27.5989C137.383 27.6353 137.506 27.6271 137.629 27.6188C137.916 27.6006 137.919 27.6015 138.099 27.6458C138.135 27.6547 138.171 27.6716 138.205 27.6706C138.5 27.6568 138.797 27.6448 139.087 27.6229C139.239 27.612 139.326 27.6404 139.427 27.6634C139.463 27.6714 139.499 27.6892 139.532 27.6874C139.745 27.6772 139.958 27.6671 140.166 27.6498C140.263 27.6417 140.322 27.6469 140.402 27.6682C140.593 27.7206 140.598 27.7188 140.867 27.7014C140.949 27.696 141.039 27.686 141.116 27.693C141.193 27.7001 141.255 27.7258 141.327 27.7418C141.361 27.7489 141.402 27.7586 141.438 27.7568C141.607 27.7494 141.776 27.7384 141.946 27.7284C142.105 27.7183 142.105 27.7192 142.403 27.7741C142.524 27.7971 142.65 27.7773 142.77 27.77C142.901 27.7617 143.019 27.7616 143.12 27.7962C143.22 27.8308 143.341 27.8289 143.469 27.8215C143.59 27.8142 143.713 27.7944 143.836 27.8183C144.119 27.8732 144.119 27.8741 144.294 27.8631C144.548 27.8476 144.799 27.8329 145.056 27.8192C145.089 27.8173 145.133 27.828 145.166 27.8351C145.238 27.851 145.3 27.8777 145.377 27.8838C145.455 27.8908 145.544 27.88 145.626 27.8745C145.891 27.8572 145.909 27.8509 146.086 27.9095C146.236 27.9575 146.42 27.8876 146.559 27.9427C146.639 27.9738 146.747 27.9986 146.896 27.9832C147.019 27.9706 147.147 27.9668 147.276 27.9595C147.478 27.9476 147.478 27.9485 147.736 28.0016C147.769 28.0087 147.813 28.0175 147.846 28.0157C148.015 28.0083 148.187 28.0018 148.352 27.9855C148.544 27.9665 148.667 28.0002 148.812 28.033C148.925 28.0587 149.058 28.0371 149.179 28.028C149.31 28.0189 149.428 28.0214 149.526 28.056C149.629 28.0915 149.749 28.0869 149.878 28.0796C149.998 28.0731 150.121 28.0524 150.245 28.0772C150.51 28.1321 150.51 28.1321 150.702 28.1212C150.871 28.1111 151.041 28.1001 151.21 28.0928C151.243 28.0909 151.285 28.1024 151.318 28.1104C151.39 28.1264 151.452 28.153 151.529 28.1592C151.606 28.1653 151.696 28.1536 151.781 28.149C151.865 28.1444 151.955 28.1309 152.032 28.1361C152.109 28.1414 152.181 28.1636 152.243 28.1831C152.315 28.2062 152.382 28.2087 152.48 28.1997C152.603 28.1879 152.731 28.185 152.857 28.1786C152.926 28.1954 152.998 28.2123 153.065 28.2309C153.135 28.2504 153.209 28.2485 153.304 28.2422C153.62 28.2203 153.622 28.223 153.887 28.2779C154.008 28.3027 154.134 28.282 154.254 28.2755C154.383 28.2682 154.503 28.2645 154.604 28.3C154.702 28.3337 154.823 28.338 154.951 28.3271C155.033 28.3199 155.12 28.3153 155.205 28.3125C155.243 28.3115 155.29 28.315 155.318 28.3221C155.454 28.3594 155.588 28.3931 155.775 28.3687C155.94 28.3756 156.023 28.4486 156.22 28.4341C156.387 28.4213 156.562 28.4184 156.726 28.4021C156.877 28.3876 156.985 28.4124 157.062 28.4435C157.202 28.4986 157.396 28.4234 157.535 28.4776C157.615 28.5087 157.718 28.5335 157.872 28.5199C158.041 28.5054 158.095 28.524 158.145 28.5801C158.173 28.6122 158.169 28.6381 158.118 28.6631C158.066 28.6891 158.01 28.6847 157.927 28.6554C157.832 28.6225 157.719 28.6164 157.583 28.6238C157.45 28.6311 157.367 28.5849 157.256 28.5672C157.146 28.5486 157.015 28.58 156.899 28.5561C156.627 28.5003 156.627 28.5003 156.442 28.5113C156.316 28.5186 156.185 28.5224 156.062 28.5351C155.916 28.5505 155.821 28.5229 155.72 28.4981C155.684 28.4893 155.648 28.4724 155.617 28.4733C155.322 28.4871 155.025 28.5001 154.732 28.5228C154.578 28.5346 154.496 28.5026 154.393 28.4805C154.357 28.4725 154.318 28.4565 154.287 28.4583C154.033 28.4712 153.782 28.4876 153.528 28.5032C153.479 28.5273 153.426 28.5506 153.38 28.5765C153.331 28.6034 153.265 28.6151 153.167 28.6143C153.005 28.6146 152.847 28.6523 152.684 28.6052C152.517 28.5573 152.504 28.56 152.343 28.5718C152.137 28.5873 151.919 28.5841 151.727 28.6191C151.694 28.6254 151.658 28.6424 151.658 28.6549C151.656 28.663 151.71 28.6745 151.743 28.6816C151.856 28.7028 151.987 28.6714 152.1 28.6935C152.175 28.7077 152.237 28.729 152.311 28.744C152.342 28.7502 152.388 28.7493 152.429 28.7483C152.473 28.7474 152.514 28.7411 152.555 28.7419C152.594 28.7427 152.635 28.748 152.666 28.756C152.807 28.7897 152.956 28.8207 153.083 28.8606C153.206 28.8997 153.322 28.8728 153.445 28.8708C153.938 28.9325 153.938 28.9334 154.269 28.9133C154.351 28.9087 154.436 28.9032 154.521 28.904C154.557 28.9039 154.59 28.9199 154.626 28.9288C154.729 28.9554 154.827 28.9793 154.971 28.9649C155.094 28.9522 155.225 28.9493 155.351 28.9411C155.52 28.931 155.52 28.931 155.808 28.9868C155.88 29.001 155.957 28.9991 156.049 28.9918C156.129 28.9854 156.211 28.9987 156.268 29.0245C156.291 29.0351 156.284 29.053 156.292 29.0681C156.038 29.0828 155.781 29.093 155.535 29.1148C155.376 29.1284 155.303 29.0901 155.198 29.0698C155.162 29.0627 155.123 29.0476 155.09 29.0494C154.838 29.0632 154.587 29.0787 154.336 29.0969C154.305 29.0987 154.267 29.1193 154.264 29.1318C154.259 29.155 154.324 29.1772 154.416 29.1762C154.539 29.1751 154.66 29.1598 154.771 29.1962C154.863 29.2281 154.979 29.2423 155.115 29.2278C155.197 29.2196 155.284 29.2195 155.366 29.2122C155.584 29.1905 155.782 29.1947 155.947 29.2551C156.073 29.2709 156.196 29.2556 156.317 29.2474C156.407 29.241 156.494 29.2346 156.558 29.2515C156.695 29.287 156.828 29.3224 157.016 29.2981C157.219 29.3228 157.373 29.3751 157.543 29.4177C157.623 29.4381 157.685 29.4496 157.777 29.4361C157.815 29.4307 157.862 29.4306 157.903 29.4279C157.987 29.4233 158.077 29.4098 158.154 29.415C158.231 29.4211 158.296 29.4469 158.365 29.4629C158.399 29.4708 158.437 29.4842 158.471 29.4832C158.599 29.4786 158.725 29.4695 158.85 29.4621C158.976 29.4557 159.102 29.4493 159.228 29.4429C159.333 29.4659 159.441 29.4889 159.547 29.512C159.716 29.5019 159.885 29.4918 160.052 29.4827C160.24 29.4717 160.239 29.4726 160.51 29.5275C160.631 29.5523 160.759 29.536 160.874 29.5242C161.067 29.5052 161.195 29.5389 161.332 29.5744C161.36 29.5815 161.411 29.5859 161.445 29.5823C161.578 29.5696 161.694 29.5792 161.792 29.6121C161.861 29.6352 161.931 29.6458 162.015 29.6412C162.31 29.6238 162.605 29.6055 162.901 29.5899C162.936 29.5881 162.978 29.596 163.011 29.6031C163.274 29.6571 163.276 29.6598 163.469 29.6453C163.64 29.6325 163.8 29.6269 163.936 29.6758C163.965 29.6864 164.008 29.7015 164.039 29.7006C164.25 29.6914 164.463 29.6812 164.67 29.6658C164.765 29.6585 164.832 29.6611 164.907 29.6815C165.002 29.7072 165.087 29.7383 165.244 29.7265C165.677 29.6928 165.68 29.6981 166.194 29.7589C166.23 29.7633 166.278 29.7561 166.319 29.7525C166.407 29.7435 166.471 29.7558 166.548 29.7762C166.721 29.8224 166.726 29.8197 166.89 29.8096C167.016 29.8014 167.147 29.7994 167.27 29.7859C167.46 29.766 167.586 29.8006 167.727 29.8334C167.841 29.8591 167.971 29.8375 168.092 29.8292C168.223 29.8201 168.341 29.8226 168.439 29.8564C168.506 29.8795 168.578 29.8919 168.662 29.8873C168.957 29.8708 169.253 29.8525 169.548 29.836C169.583 29.8342 169.627 29.8412 169.661 29.8474C169.954 29.9023 169.954 29.905 170.244 29.884C170.336 29.8776 170.413 29.8757 170.483 29.8944C170.55 29.9121 170.622 29.9289 170.691 29.9458C170.817 29.9394 170.945 29.9374 171.068 29.9265C171.163 29.9183 171.23 29.9218 171.305 29.9404C171.403 29.9644 171.485 30.0061 171.639 29.9854C171.718 29.9755 171.811 29.978 171.89 29.969C171.985 29.9572 172.05 29.9643 172.124 29.9874C172.217 30.0149 172.312 30.0433 172.461 30.0288C172.625 30.0125 172.8 30.0095 172.966 29.9968C173.059 29.9895 173.123 29.9966 173.198 30.0197C173.291 30.0489 173.396 30.0675 173.54 30.0557C173.832 30.033 173.835 30.0374 174.12 30.0932C174.192 30.1074 174.269 30.1055 174.362 30.0982C174.441 30.0918 174.523 30.1051 174.58 30.1309C174.634 30.1593 174.63 30.1772 174.635 30.1923ZM151.667 22.1818C151.583 22.1864 151.498 22.1919 151.374 22.1144C151.366 22.1011 151.371 22.085 151.353 22.0735C151.312 22.0494 151.247 22.0326 151.17 22.03C151.031 22.0267 150.865 22.0572 150.868 22.0804C150.871 22.1 150.914 22.1169 150.999 22.1328C151.035 22.139 151.064 22.1497 151.097 22.1568C151.195 22.1771 151.272 22.2172 151.413 22.1965C151.387 22.1412 151.4 22.1688 151.413 22.1965C151.401 22.2304 151.44 22.2544 151.532 22.2641C151.558 22.2667 151.596 22.2649 151.617 22.2595C151.696 22.2397 151.709 22.213 151.649 22.1426C151.639 22.1542 151.647 22.1747 151.67 22.18C151.693 22.1853 151.749 22.1808 151.778 22.1745C151.849 22.1575 151.885 22.1351 151.867 22.1164C151.856 22.1066 151.808 22.0942 151.777 22.0942C151.723 22.0943 151.674 22.114 151.667 22.1818ZM172.543 32.495C172.355 32.5122 172.14 32.5063 171.953 32.5414C171.919 32.5476 171.886 32.5638 171.884 32.5762C171.881 32.5843 171.933 32.5958 171.964 32.602C172.033 32.6162 172.11 32.6116 172.2 32.607C172.336 32.6005 172.416 32.6415 172.521 32.6618C172.555 32.668 172.599 32.6724 172.635 32.6706C172.842 32.6596 173.048 32.6477 173.255 32.6349C173.291 32.6321 173.33 32.6258 173.361 32.6178C173.463 32.5917 173.452 32.5748 173.352 32.5553C173.241 32.5341 173.154 32.4985 173.041 32.4818C172.879 32.4579 172.715 32.4903 172.543 32.495ZM157.971 33.1679C157.845 33.1752 157.722 33.1825 157.596 33.1898C157.555 33.1926 157.511 33.1935 157.473 33.1971C157.393 33.2035 157.334 33.2223 157.296 33.2518C157.356 33.2749 157.428 33.2882 157.507 33.2854C157.633 33.2799 157.756 33.2681 157.882 33.2652C158.018 33.2614 158.098 33.3015 158.203 33.3218C158.237 33.328 158.278 33.3288 158.316 33.3297C158.506 33.333 158.621 33.2864 158.585 33.2214C158.558 33.1706 158.461 33.1404 158.343 33.1468C158.219 33.1532 158.094 33.1605 157.971 33.1679ZM173.406 31.1753C173.437 31.1601 173.47 31.1494 173.485 31.136C173.531 31.0904 173.512 31.0566 173.427 31.021C173.324 30.9774 173.199 31.0071 173.083 31.0117C173.055 31.0126 173.024 31.0314 173.009 31.043C172.999 31.0511 172.999 31.068 173.014 31.0725C173.141 31.108 173.275 31.1408 173.406 31.1753ZM151.105 28.5737C150.982 28.581 150.856 28.5865 150.733 28.5965C150.702 28.5993 150.674 28.6163 150.657 28.6279C150.623 28.6493 150.66 28.6787 150.765 28.6812C150.886 28.6846 151.011 28.6693 151.137 28.6619C151.296 28.6528 151.391 28.6196 151.331 28.5912C151.274 28.5636 151.197 28.5584 151.105 28.5737ZM15.9453 26.869C16.0274 26.8645 16.112 26.8608 16.1941 26.8544C16.2711 26.848 16.3299 26.8283 16.3681 26.7988C16.3037 26.7757 16.2316 26.7634 16.1521 26.7662C16.0263 26.7717 15.9032 26.779 15.7801 26.7881C15.7031 26.7936 15.6289 26.8133 15.6113 26.8437C15.5936 26.8669 15.7657 26.88 15.9453 26.869ZM140.225 26.5464C140.259 26.5544 140.292 26.5704 140.326 26.5703C140.408 26.5702 140.492 26.5647 140.569 26.5557C140.603 26.5521 140.628 26.536 140.643 26.5235C140.654 26.5154 140.651 26.5011 140.635 26.494C140.56 26.4513 140.263 26.4669 140.215 26.5161C140.21 26.525 140.223 26.5366 140.225 26.5464ZM132.07 21.674C132.078 21.6883 132.081 21.7026 132.092 21.7168C132.112 21.7436 132.169 21.7631 132.251 21.7764C132.315 21.754 132.348 21.7289 132.346 21.7022C132.343 21.6879 132.335 21.6736 132.324 21.6594C132.304 21.6327 132.247 21.6131 132.165 21.5999C132.101 21.6214 132.07 21.6464 132.07 21.674ZM179.363 33.2912C179.34 33.3028 179.317 33.3144 179.291 33.3252C179.361 33.3509 179.425 33.3589 179.474 33.3445C179.504 33.3356 179.522 33.3221 179.545 33.3105C179.476 33.2848 179.414 33.2777 179.363 33.2912ZM177.767 33.4149C177.801 33.4228 177.832 33.4335 177.868 33.4388C177.927 33.4476 177.981 33.4324 178.021 33.4002C177.988 33.3922 177.957 33.3816 177.921 33.3763C177.862 33.3674 177.808 33.3827 177.767 33.4149ZM178.777 33.2501C178.759 33.2716 178.795 33.2893 178.891 33.3044C178.914 33.2927 178.944 33.282 178.959 33.2695C178.985 33.2489 178.941 33.2303 178.848 33.2161C178.823 33.2269 178.8 33.2385 178.777 33.2501ZM173.347 32.2967C173.329 32.3181 173.365 32.3359 173.46 32.3509C173.483 32.3393 173.514 32.3285 173.529 32.316C173.555 32.2955 173.511 32.2768 173.418 32.2627C173.393 32.2734 173.37 32.285 173.347 32.2967ZM165.892 25.9961C165.869 26.0077 165.846 26.0194 165.821 26.0301C165.89 26.0559 165.954 26.0638 166.003 26.0495C166.034 26.0405 166.052 26.0271 166.075 26.0155C166.005 25.9897 165.943 25.9827 165.892 25.9961ZM158.782 22.6582C158.843 22.6644 158.895 22.6518 158.938 22.6187C158.904 22.6108 158.873 22.6001 158.837 22.5948C158.778 22.586 158.725 22.6012 158.684 22.6334C158.717 22.6423 158.751 22.6502 158.782 22.6582ZM155.023 22.4542C155 22.4658 154.977 22.4775 154.952 22.4882C155.021 22.514 155.086 22.5219 155.134 22.5076C155.165 22.4986 155.183 22.4852 155.206 22.4736C155.136 22.4478 155.075 22.4416 155.023 22.4542ZM129.544 21.6769C129.521 21.6885 129.498 21.7002 129.473 21.7109C129.542 21.7367 129.607 21.7446 129.655 21.7303C129.686 21.7213 129.704 21.7079 129.727 21.6963C129.657 21.6705 129.596 21.6644 129.544 21.6769ZM2.80545 29.123C2.77198 29.1151 2.73855 29.1071 2.70764 29.0982C2.63346 29.1224 2.61061 29.1447 2.65188 29.1616C2.67767 29.1723 2.71622 29.1785 2.74969 29.1865C2.82643 29.1623 2.84416 29.1408 2.80545 29.123Z" fill="#06DB8F"/>
<path d="M91.8849 4.79052C91.5899 4.80787 91.2974 4.82968 91.0023 4.84079C90.8458 4.84636 90.7898 4.8848 90.726 4.92057C90.6749 4.94919 90.616 4.95819 90.5211 4.96367C89.7205 5.00849 88.9226 5.05598 88.1247 5.10257C88.0244 5.09111 87.9754 5.07244 87.9983 5.05011C88.011 5.03671 88.0416 5.01793 88.0724 5.01611C88.6189 4.98235 89.1627 4.94769 89.7118 4.92107C89.8684 4.91372 89.9116 4.8744 89.9908 4.84218C90.0164 4.83143 90.0368 4.81535 90.0701 4.80906C90.1034 4.80187 90.1522 4.8027 90.1958 4.80086C91.0784 4.7488 91.961 4.69763 92.8436 4.64556C92.9438 4.65703 92.9928 4.67569 92.9699 4.69803C92.9573 4.71143 92.9266 4.7302 92.8959 4.73203C92.5572 4.75123 92.221 4.77043 91.8849 4.79052Z" fill="#06DB8F"/>
<path d="M253.61 9.10097C253.477 9.11185 253.308 9.12725 253.169 9.0757C253.101 9.05081 253.029 9.04288 252.942 9.04836C252.817 9.05745 252.688 9.06476 252.56 9.07029C252.527 9.07123 252.483 9.06147 252.449 9.05349C252.377 9.03753 252.315 9.01085 252.238 9.00382C252.161 8.99679 252.069 9.01654 251.989 9.01219C251.884 9.00609 251.84 8.98206 251.868 8.95972C251.883 8.94721 251.914 8.92933 251.947 8.9266C252.422 8.89294 252.425 8.89294 252.558 8.92487C252.661 8.94971 252.757 8.97723 252.903 8.96186C253.026 8.94921 253.157 8.94635 253.283 8.93815C253.457 8.9272 253.457 8.9281 253.74 8.98391C253.812 8.99809 253.889 8.9971 253.981 8.98894C254.061 8.98259 254.138 8.99675 254.203 9.02075C254.162 9.05114 254.103 9.07085 254.023 9.07631C253.895 9.08541 253.769 9.09183 253.61 9.10097Z" fill="#06DB8F"/>
<path d="M248.882 8.83787C249.205 8.81871 249.531 8.80223 249.854 8.78039C249.987 8.7713 250.093 8.78096 250.185 8.81113C250.286 8.84398 250.399 8.84115 250.522 8.83474C250.599 8.83107 250.674 8.84522 250.725 8.87011C250.746 8.87989 250.741 8.89773 250.749 8.91198C250.467 8.92841 250.182 8.94573 249.897 8.96038C249.864 8.96221 249.822 8.95336 249.792 8.94627C249.722 8.93121 249.663 8.90455 249.588 8.8993C249.429 8.88704 249.27 8.91132 249.108 8.916C249.031 8.91789 248.957 8.90463 248.905 8.88063C248.884 8.86907 248.889 8.85212 248.882 8.83787Z" fill="#06DB8F"/>
<path d="M131.889 1.535C132.225 1.51492 132.561 1.49573 132.897 1.47564C132.998 1.488 133.044 1.50577 133.024 1.5281C133.011 1.5415 132.98 1.56027 132.95 1.5621C132.277 1.60316 131.605 1.64244 130.936 1.68171C130.835 1.66936 130.789 1.65159 130.809 1.62926C130.822 1.61586 130.852 1.59708 130.883 1.59526C131.217 1.57428 131.553 1.55509 131.889 1.535Z" fill="#06DB8F"/>
<path d="M80.0997 6.56174C79.9483 6.56372 79.7895 6.59678 79.6199 6.57216C79.5864 6.56776 79.5401 6.55362 79.5426 6.54563C79.5475 6.53231 79.5782 6.5154 79.6115 6.51003C79.7575 6.48765 79.9398 6.48474 80.0135 6.42251C80.0491 6.39051 80.1157 6.37978 80.2055 6.37344C80.3004 6.36621 80.3671 6.36878 80.4418 6.38731C80.5396 6.41115 80.6222 6.45541 80.776 6.43213C80.7838 6.44632 80.8019 6.46227 80.7944 6.47559C80.7868 6.48891 80.7537 6.50138 80.723 6.51119C80.6948 6.5201 80.6564 6.52814 80.6205 6.53085C80.4512 6.54173 80.2818 6.55084 80.0997 6.56174Z" fill="#06DB8F"/>
<path d="M213.643 6.06314C213.769 6.05585 213.9 6.05211 214.023 6.03947C214.12 6.02954 214.182 6.03569 214.259 6.05695C214.39 6.09418 214.398 6.09061 214.719 6.09552C214.755 6.09636 214.799 6.10965 214.819 6.1212C214.832 6.12741 214.815 6.14437 214.799 6.15329C214.776 6.1649 214.743 6.18008 214.712 6.18012C214.509 6.18307 214.305 6.2359 214.106 6.17561C214.006 6.14547 213.895 6.13136 213.759 6.14491C213.677 6.15304 213.59 6.15672 213.505 6.1604C213.423 6.16407 213.339 6.15439 213.287 6.12775C213.212 6.08867 213.255 6.07347 213.389 6.07596C213.474 6.07763 213.558 6.06771 213.643 6.06314Z" fill="#06DB8F"/>
<path d="M260.216 12.0434C260.378 12.0343 260.54 12.0235 260.704 12.0161C260.737 12.0143 260.778 12.024 260.809 12.0302C260.933 12.0566 260.915 12.1019 260.921 12.1418C260.924 12.1836 260.639 12.2177 260.518 12.1894C260.385 12.1577 260.264 12.1214 260.079 12.1412C260.007 12.1484 259.922 12.1326 259.876 12.1069C259.806 12.0697 259.844 12.0546 259.975 12.0571C260.052 12.0587 260.134 12.0488 260.216 12.0434Z" fill="#06DB8F"/>
<path d="M178.607 0.221693C178.774 0.211681 178.941 0.196337 179.108 0.195223C179.205 0.194202 179.254 0.223495 179.231 0.244882C179.219 0.258247 179.188 0.276975 179.157 0.278797C178.824 0.300601 178.49 0.318848 178.157 0.338873C178.059 0.326546 178.01 0.307928 178.033 0.286541C178.046 0.273177 178.076 0.255338 178.107 0.252627C178.274 0.239946 178.441 0.231705 178.607 0.221693Z" fill="#06DB8F"/>
<path d="M256.991 9.18058C257.153 9.17146 257.317 9.15789 257.478 9.15322C257.563 9.15133 257.63 9.17169 257.641 9.19481C257.646 9.20548 257.605 9.22421 257.572 9.22871C257.341 9.25927 257.092 9.26317 256.851 9.27862C256.774 9.28317 256.692 9.26905 256.645 9.24421C256.575 9.20605 256.614 9.19177 256.745 9.19426C256.827 9.19504 256.909 9.18514 256.991 9.18058Z" fill="#06DB8F"/>
<path d="M217.886 6.17242C217.968 6.16787 218.053 6.15624 218.132 6.15967C218.217 6.16399 218.271 6.18962 218.297 6.21528C218.326 6.24448 218.324 6.27196 218.298 6.29681C218.258 6.3394 218.216 6.33768 218.121 6.30946C217.974 6.26535 217.964 6.27067 217.674 6.27284C217.641 6.27288 217.6 6.25965 217.574 6.24816C217.535 6.23049 217.555 6.203 217.645 6.18692C217.712 6.17531 217.804 6.17696 217.886 6.17242Z" fill="#06DB8F"/>
<path d="M250.989 8.89334C251.11 8.88607 251.231 8.87436 251.351 8.87419C251.436 8.87319 251.503 8.89353 251.511 8.91573C251.513 8.92639 251.475 8.94421 251.444 8.94959C251.298 8.97378 251.134 8.97578 250.975 8.98399C250.901 8.98765 250.818 8.97354 250.772 8.94872C250.702 8.9115 250.743 8.89456 250.869 8.89972C250.907 8.90144 250.948 8.89606 250.989 8.89334Z" fill="#06DB8F"/>
<path d="M231.985 7.85718C231.806 7.86809 231.636 7.855 231.649 7.83188C231.666 7.80164 231.74 7.78198 231.817 7.77655C231.94 7.76749 232.064 7.76022 232.189 7.75471C232.269 7.75105 232.341 7.76428 232.405 7.7873C232.367 7.81578 232.308 7.8363 232.231 7.84263C232.152 7.84896 232.067 7.85263 231.985 7.85718Z" fill="#06DB8F"/>
<path d="M230.806 7.74673C230.927 7.73946 231.047 7.72775 231.168 7.72759C231.253 7.72658 231.32 7.74692 231.327 7.76913C231.33 7.77979 231.292 7.79761 231.261 7.80298C231.115 7.82717 230.951 7.82917 230.792 7.83738C230.717 7.84104 230.635 7.82693 230.588 7.80212C230.519 7.76489 230.56 7.74796 230.686 7.75312C230.724 7.75485 230.765 7.74946 230.806 7.74673Z" fill="#06DB8F"/>
<path d="M216.43 6.1689C216.55 6.16163 216.671 6.1499 216.792 6.14885C216.876 6.14785 216.943 6.1682 216.951 6.1904C216.954 6.20106 216.916 6.218 216.885 6.22426C216.739 6.24845 216.575 6.25045 216.415 6.25866C216.341 6.26231 216.259 6.24821 216.212 6.22339C216.143 6.18617 216.183 6.16923 216.309 6.17439C216.348 6.17611 216.389 6.17073 216.43 6.1689Z" fill="#06DB8F"/>
<path d="M215.755 6.11841C215.883 6.11113 215.924 6.10663 215.965 6.10657C216.042 6.10647 216.122 6.11702 216.168 6.14273C216.238 6.17995 216.197 6.19067 216.071 6.19262C215.909 6.19462 215.751 6.21349 215.589 6.21727C215.504 6.21916 215.437 6.19792 215.432 6.17571C215.429 6.16505 215.467 6.14635 215.498 6.14275C215.606 6.12928 215.724 6.12112 215.755 6.11841Z" fill="#06DB8F"/>
<path d="M229.701 0.896617C229.619 0.901166 229.532 0.913713 229.455 0.909379C229.352 0.903306 229.311 0.879399 229.336 0.857173C229.351 0.844726 229.379 0.826936 229.41 0.824231C229.574 0.811581 229.741 0.803359 229.905 0.79426C230.003 0.807442 230.047 0.826021 230.021 0.848246C230.006 0.860694 229.978 0.877597 229.947 0.881189C229.868 0.890173 229.783 0.892067 229.701 0.896617Z" fill="#06DB8F"/>
<path d="M130.05 1.64381C130.129 1.64282 130.201 1.65425 130.263 1.67634C130.225 1.70478 130.169 1.72348 130.092 1.73156C130.053 1.73516 130.01 1.73788 129.968 1.73882C129.889 1.74071 129.817 1.72839 129.755 1.7063C129.793 1.67786 129.852 1.65915 129.926 1.65107C129.965 1.64747 130.009 1.64653 130.05 1.64381Z" fill="#06DB8F"/>
<path d="M256.112 9.17864C256.109 9.15292 256.265 9.12344 256.407 9.12413C256.481 9.12492 256.558 9.13724 256.602 9.16113C256.669 9.1974 256.631 9.21164 256.505 9.20915C256.428 9.20748 256.346 9.22267 256.269 9.22012C256.182 9.21935 256.13 9.1999 256.112 9.17864Z" fill="#06DB8F"/>
<path d="M218.632 6.27771C218.629 6.26797 218.616 6.25647 218.624 6.2476C218.672 6.1988 218.967 6.18334 219.044 6.22577C219.057 6.23372 219.063 6.247 219.053 6.25499C219.037 6.26742 219.009 6.2834 218.978 6.28699C218.899 6.29596 218.817 6.3005 218.735 6.3015C218.699 6.30155 218.665 6.28653 218.632 6.27771Z" fill="#06DB8F"/>
<path d="M81.0118 6.41829C80.7091 6.43731 80.7039 6.43554 80.7574 6.39114C80.8057 6.35118 80.8953 6.32712 81.0262 6.32695C81.0647 6.32689 81.1057 6.32507 81.1391 6.32857C81.1751 6.33295 81.2265 6.34174 81.2344 6.35237C81.25 6.37274 81.2066 6.39496 81.1297 6.41014C81.0964 6.41728 81.0528 6.41557 81.0118 6.41829Z" fill="#06DB8F"/>
<path d="M133.841 1.51046C133.751 1.52565 133.674 1.52044 133.617 1.49216C133.561 1.46389 133.65 1.43009 133.807 1.4219C133.848 1.42008 133.891 1.41293 133.93 1.41643C133.968 1.41903 134.007 1.4296 134.03 1.4402C134.071 1.45787 134.046 1.48184 133.964 1.50233C133.931 1.51035 133.882 1.50864 133.841 1.51046Z" fill="#06DB8F"/>
<path d="M255.596 9.10207C255.619 9.09055 255.642 9.07902 255.667 9.06838C255.763 9.08328 255.804 9.1009 255.779 9.12127C255.763 9.13367 255.733 9.14432 255.71 9.15584C255.614 9.14094 255.575 9.12243 255.596 9.10207Z" fill="#06DB8F"/>
<path d="M85.1683 16.4487C85.1682 16.4381 85.2039 16.4212 85.232 16.4176C85.2857 16.4114 85.3523 16.4237 85.3986 16.4484C85.463 16.4837 85.4249 16.5023 85.307 16.4928C85.2251 16.4858 85.1685 16.4682 85.1683 16.4487Z" fill="#06DB8F"/>
<path d="M219.67 5.45397C219.704 5.46189 219.737 5.46982 219.768 5.47863C219.725 5.51145 219.671 5.52569 219.614 5.51691C219.578 5.51165 219.547 5.50106 219.514 5.49314C219.557 5.46031 219.608 5.44785 219.67 5.45397Z" fill="#06DB8F"/>
<path d="M218.78 5.41625C218.832 5.4029 218.894 5.40991 218.966 5.43549C218.943 5.44704 218.923 5.46035 218.894 5.46924C218.846 5.48347 218.781 5.47647 218.711 5.45C218.732 5.43934 218.755 5.4278 218.78 5.41625Z" fill="#06DB8F"/>
<path d="M218.101 5.45684C218.134 5.46476 218.168 5.47269 218.199 5.4815C218.156 5.51433 218.104 5.52856 218.045 5.51978C218.009 5.51452 217.978 5.50393 217.944 5.49601C217.988 5.46319 218.039 5.44984 218.101 5.45684Z" fill="#06DB8F"/>
<path d="M217.6 5.41136C217.639 5.42899 217.619 5.45023 217.544 5.4742C217.51 5.46629 217.472 5.46016 217.446 5.44959C217.404 5.43285 217.425 5.41071 217.502 5.38674C217.533 5.39554 217.566 5.40345 217.6 5.41136Z" fill="#06DB8F"/>
</svg>
