<svg width="1440" height="839" viewBox="0 0 1440 839" fill="none" xmlns="http://www.w3.org/2000/svg">
<path d="M230.509 837.736C223.412 835.081 221.428 832.481 223.113 828.048C223.894 825.994 225.395 824.315 226.446 824.315C227.499 824.315 232.106 826.734 236.683 829.693C241.261 832.652 246.859 835.745 249.123 836.566L253.239 838.061L248.176 838.171C245.39 838.232 241.304 838.544 239.096 838.863C236.886 839.184 233.022 838.676 230.509 837.736ZM214.403 824.107C213.067 823.359 210.84 823.107 209.453 823.547C207.707 824.101 206.358 823.277 205.067 820.862C204.04 818.946 202.202 817.034 200.98 816.614C198.177 815.65 192.303 806.133 189.034 797.26C187.381 792.778 185.161 789.681 182.524 788.181C177.846 785.52 177.51 784.313 181.132 783.165C185.275 781.849 186.046 774.547 182.558 769.65C180.894 767.313 180.017 764.57 180.519 763.263C181.111 761.721 179.478 759.015 175.523 754.986C170.532 749.901 169.609 748.052 169.386 742.694C169.241 739.226 168.396 735.512 167.509 734.442C166.39 733.095 166.162 728.258 166.766 718.696C167.42 708.333 167.039 701.938 165.235 693.023C162.558 679.784 161.189 655.119 161.885 632.616C162.034 627.814 161.412 621.223 160.502 617.967C158.288 610.04 148.102 600.033 135.513 593.419C126.509 588.687 125.242 587.475 121.722 580.208C119.591 575.808 115.516 569.23 112.669 565.593C109.821 561.955 106.726 556.612 105.789 553.721C102.817 544.543 97.5776 535.321 94.0069 532.981C92.1062 531.735 89.9382 528.497 89.1895 525.786C87.9772 521.397 88.2966 520.172 92.0896 514.659C96.2032 508.682 96.2517 508.438 93.4723 507.711C86.6419 505.925 89.5148 496.798 101.774 481.329C109.923 471.049 112.31 463.216 110.052 454.168C109.192 450.72 108.422 447.113 108.341 446.153C108.26 445.193 107.647 444.407 106.98 444.407C106.312 444.407 106.441 443.148 107.265 441.608C108.535 439.236 108.214 438.558 105.163 437.168C100.715 435.142 93.9998 437.145 93.9738 440.506C93.9418 444.535 92.1701 444.832 86.3261 441.787C83.1954 440.155 79.944 438.821 79.1007 438.821C78.2574 438.821 74.9764 436.589 71.8102 433.862C68.644 431.135 65.2673 428.282 64.3069 427.521C63.3465 426.762 62.5612 424.691 62.5612 422.92C62.5612 421.148 61.3275 418.583 59.8195 417.219C58.3115 415.855 56.3576 412.557 55.4777 409.89C54.321 406.386 53.4552 405.465 52.3529 406.567C50.0512 408.868 46.6437 408.432 38.374 404.774C34.0498 402.863 29.5459 399.598 27.747 397.072C26.0296 394.66 22.7475 391.717 20.4553 390.531C16.6705 388.574 15.7244 388.589 10.2128 390.694L4.13933 393.013L-14.4937 383.986C-25.9557 378.432 -34.8511 373.135 -37.6069 370.221C-41.879 365.704 -42.0174 365.214 -40.5957 359.615C-39.2935 354.485 -39.5147 352.898 -42.3462 347.048C-44.1298 343.365 -48.0246 337.709 -51.0027 334.478C-53.9809 331.247 -56.0803 328.056 -55.6663 327.388C-55.2523 326.719 -57.3505 322.211 -60.3287 317.369C-63.7113 311.87 -66.0981 305.979 -66.6907 301.667C-67.4512 296.141 -68.3371 294.45 -71.1414 293.173C-74.1136 291.818 -74.9451 291.991 -76.6471 294.316C-79.0445 297.589 -78.3632 301.046 -73.0621 312.498C-70.9084 317.153 -68.6824 324.052 -68.1159 327.831C-67.5494 331.608 -65.8758 337.071 -64.3962 339.97C-60.8929 346.836 -63.1554 346.715 -68.6801 339.74C-71.9385 335.627 -72.8185 333.371 -72.1704 330.792C-71.4796 328.037 -72.1597 326.711 -75.5459 324.207C-80.6826 320.41 -81.7695 317.961 -79.883 314.437C-78.7831 312.381 -79.2869 310.126 -82.0818 304.614C-84.9192 299.014 -85.5117 296.303 -84.8092 292.145C-83.6619 285.349 -86.7111 279.198 -92.3962 276.842C-95.6785 275.483 -96.8101 273.963 -97.4789 270.012C-97.9521 267.216 -98.8583 262.891 -99.4928 260.401C-100.153 257.81 -100.105 255.538 -99.3805 255.091C-98.6844 254.661 -99.14 252.744 -100.393 250.832C-102.238 248.017 -102.364 246.684 -101.058 243.816C-100.171 241.87 -99.8361 239.645 -100.314 238.872C-100.792 238.098 -99.601 235.789 -97.6678 233.739C-95.7346 231.689 -93.1608 227.601 -91.9484 224.652C-90.7358 221.705 -86.9994 216.242 -83.6454 212.512C-80.2911 208.782 -76.0379 202.247 -74.1952 197.991C-71.6369 192.083 -70.1372 190.247 -67.8557 190.229C-66.2129 190.217 -64.9556 190.99 -65.062 191.95C-65.5068 195.952 -62.3429 194.72 -58.7887 189.507C-56.6929 186.434 -55.5622 183.71 -56.2766 183.455C-56.9898 183.198 -57.5729 182.043 -57.5729 180.885C-57.5729 179.728 -60.4647 175.971 -63.9999 172.537C-69.8616 166.841 -70.2389 166.085 -68.2898 163.931C-66.7096 162.187 -66.5239 160.906 -67.5777 159.025C-69.4287 155.717 -66.5074 148.312 -63.3411 148.282C-62.033 148.269 -61.6593 147.825 -62.4624 147.235C-64.2649 145.911 -65.081 142.905 -64.8279 138.526C-64.4234 131.532 -65.9538 128.608 -71.1544 126.435C-73.9587 125.263 -78.239 122.791 -80.666 120.94C-83.0918 119.089 -86.1705 117.575 -87.5061 117.575C-88.8421 117.575 -94.9153 116.304 -101.002 114.75C-110.788 112.252 -112.512 112.154 -115.902 113.898C-122.927 117.513 -130.37 118.986 -133.404 117.362C-135.68 116.145 -138.164 116.897 -146.825 121.427C-152.67 124.484 -159.653 127.459 -162.342 128.039C-165.031 128.619 -170.177 130.578 -173.778 132.392C-183.991 137.537 -198.622 142.725 -202.669 142.635C-205.281 142.576 -203.515 141.432 -196.566 138.676C-184.756 133.993 -172.62 127.895 -171.498 126.079C-170.115 123.842 -173.116 123.04 -176.721 124.683C-179.375 125.891 -181.011 125.778 -184.074 124.174L-188.013 122.111L-183.728 119.894C-178.884 117.39 -177.36 114.557 -178.473 110.123C-179.551 105.829 -173.608 102.674 -160.806 100.743C-153.927 99.7062 -148.697 97.9796 -145.177 95.5832C-138.968 91.3573 -140.035 88.1635 -146.729 90.9358C-149.898 92.2483 -152.206 92.2626 -156.899 90.9991C-162.602 89.4636 -162.805 89.2444 -160.254 87.3793C-155.986 84.2586 -147.158 82.3815 -141.357 83.3614C-137.687 83.9813 -134.681 83.5473 -131.595 81.952L-127.136 79.6467L-130.071 76.5229C-131.686 74.8048 -133.007 73.0297 -133.007 72.5782C-133.007 71.2824 -124.597 68.6906 -120.392 68.6906C-118.293 68.6906 -112.54 67.1715 -107.606 65.3148C-102.673 63.4581 -91.291 60.9234 -82.3136 59.682C-67.7516 57.6686 -64.6682 57.644 -53.7491 59.4543C-47.0169 60.5704 -37.737 61.9015 -33.1279 62.4124C-28.5175 62.9233 -20.3589 64.5448 -14.9952 66.016C-2.54082 69.4326 5.57165 69.3908 19.4855 65.8388C25.6299 64.2702 31.8393 63.3622 33.2858 63.8211C34.7311 64.2798 37.1889 63.9728 38.7477 63.1387C40.8956 61.9895 42.5609 62.1286 45.6254 63.7129C48.3942 65.1443 51.8112 65.5529 56.4641 65.0086C61.3725 64.4345 65.6706 65.0291 71.9463 67.1505C76.7234 68.7658 82.0292 70.0874 83.7371 70.0874C86.7625 70.0874 86.772 70.1387 84.1309 72.0826C81.5395 73.9889 81.5324 74.122 83.9653 75.0645C85.3657 75.6071 90.2268 75.6627 94.7674 75.1881C102.969 74.3311 103.039 74.3552 105.327 78.7768L107.629 83.2282L110.617 79.4809C112.335 77.3274 116.416 74.8878 120.212 73.7454C125.951 72.0189 127.692 72.0247 133.454 73.7892C137.523 75.0348 142.391 75.4886 146.037 74.962C150.681 74.2914 152.837 74.7091 155.866 76.8659C159.691 79.589 159.796 79.5904 163.188 76.9617C165.082 75.4948 168.978 73.6409 171.845 72.8418C178.712 70.9291 181.041 66.8532 176.916 63.9655C174.001 61.9234 174.129 61.7675 181.793 58.0089C187.51 55.2056 190.084 54.569 191.198 55.6831C192.312 56.7971 192.301 58.0226 191.157 60.1604C189.206 63.8041 191.634 69.3116 194.676 68.1445C195.769 67.7249 197.584 67.7343 198.707 68.1654C200.472 68.8425 200.443 69.4166 198.499 72.3835C193.128 80.5794 205.17 78.2571 213.321 69.5249C216.635 65.9747 221.771 64.8983 226.583 66.745C229.692 67.9375 229.401 68.9139 224.253 74.5572C218.118 81.2823 214.979 82.6578 205.767 82.6578C201.314 82.6578 196.057 83.6223 193.607 84.8888C190.216 86.642 188.563 86.7878 185.889 85.5694C180.903 83.2981 179.167 85.1886 182.744 88.9951L185.796 92.2443L179.706 93.9726C176.356 94.9233 170.786 95.793 167.329 95.9053C162.315 96.0681 161.041 96.6124 161.033 98.594C161.026 100.29 158.587 102.074 153.35 104.215C136.381 111.15 121.986 123.656 127.197 126.934C128.174 127.548 129.723 129.762 130.642 131.854C131.7 134.262 133.738 135.941 136.2 136.434C138.34 136.862 143.861 139.07 148.471 141.339C153.08 143.61 158.739 145.877 161.043 146.38C167.388 147.762 167.444 147.909 164.489 155.405C161.96 161.818 161.91 162.734 163.868 166.523C165.043 168.793 166.773 170.628 167.715 170.601C172.292 170.469 176.583 166.246 179.25 159.248C181.792 152.581 182.949 151.337 190.246 147.44C201.012 141.691 205.489 136.027 204.297 129.668C203.52 125.526 203.923 124.554 207.469 122.03C209.703 120.438 212.661 116.631 214.043 113.568C217.131 106.722 222.093 104.349 230.459 105.716C237.879 106.929 246.653 111.639 247.713 114.978C248.148 116.349 247.788 118.81 246.91 120.448C245.583 122.929 245.834 123.977 248.412 126.721L251.509 130.016L256.565 127.397C259.346 125.955 263.802 123.144 266.469 121.149L271.317 117.521L272.456 120.6C273.082 122.293 273.261 124.55 272.851 125.617C272.442 126.682 272.76 128.774 273.559 130.266C274.456 131.943 274.526 133.841 273.742 135.242C272.857 136.822 273.449 139.223 275.696 143.179C278.918 148.85 278.918 148.854 276.088 150.834C272.368 153.442 274.756 156.206 278.84 154.02C282.898 151.849 287.541 152.132 290.406 154.723C294.639 158.554 291.119 163.137 279.88 168.423C267.657 174.174 262.209 175.313 246.255 175.453C234.474 175.557 232.913 175.933 221.46 181.423C214.737 184.646 209.236 187.835 209.236 188.51C209.236 191.392 211.354 191.142 219.482 187.298C224.27 185.032 230.443 183.223 233.382 183.223C238.404 183.222 238.587 183.377 237.019 186.306C236.11 188.003 234.152 190.375 232.665 191.579C230.329 193.47 230.192 194.268 231.655 197.478C233.848 202.291 239.576 204.608 246.428 203.451L251.842 202.538L247.679 205.409C245.389 206.989 241.617 208.691 239.297 209.193C236.977 209.694 232.21 211.549 228.702 213.316C225.142 215.109 221.565 216.059 220.603 215.465C218.393 214.098 220.726 212.048 227.909 209.048C234.297 206.379 233.275 203.544 226.392 204.836C223.711 205.338 215.015 208.613 207.069 212.113C194.666 217.576 192.503 219.017 191.78 222.305C190.893 226.345 187.865 228.256 177.219 231.495C173.823 232.527 169.422 235.024 167.44 237.042C165.459 239.061 161.664 242.083 159.007 243.758C156.351 245.433 153.807 248.368 153.355 250.279C152.61 253.431 152.437 253.505 151.504 251.077C149.756 246.53 147.122 250.976 146.97 258.731C146.815 266.677 142.787 272.097 133.953 276.246C124.895 280.501 112.007 290.557 109.396 295.404C107.09 299.685 106.993 301.352 108.414 312.354C109.74 322.618 109.661 325.193 107.916 328.565C106.614 331.084 105.095 332.287 103.831 331.802C100.834 330.652 97.1672 318.319 98.195 312.844C98.9082 309.039 98.4351 307.598 95.6 304.935C93.315 302.789 91.2061 301.973 89.4143 302.542C87.9169 303.016 83.6862 302.116 80.0067 300.539C74.3697 298.123 72.5707 297.921 68.5459 299.249C65.8173 300.149 63.1052 302.284 62.2181 304.232C60.897 307.131 60.0218 307.503 56.3742 306.719C54.0146 306.212 50.3871 304.929 48.3114 303.869C43.2019 301.259 40.3409 301.441 34.601 304.741C31.9233 306.28 26.4613 309.226 22.4613 311.287C17.8639 313.656 14.7072 316.351 13.8793 318.615C13.159 320.584 10.5829 328.26 8.15477 335.671L3.74076 349.149L5.99506 357.848C10.1382 373.831 15.9006 378.615 27.909 376.041C36.9606 374.099 42.3977 370.166 44.3953 364.112C45.6644 360.268 47.0341 358.996 51.1323 357.859C57.2991 356.145 59.8751 356.082 62.243 357.586C64.1981 358.826 63.5109 360.867 54.7586 379.813C48.7538 392.814 49.1855 393.976 59.4742 392.492C68.8486 391.14 77.4165 392.178 78.4171 394.786C78.8074 395.803 78.1734 402.663 77.0072 410.031C74.9209 423.212 74.9362 423.508 77.9392 428.364C79.6176 431.08 82.7637 434.218 84.9316 435.339C88.3924 437.129 89.4781 437.124 93.8318 435.305C100.751 432.415 104.507 432.721 109.313 436.564C113.156 439.639 113.698 439.725 116.718 437.747C118.511 436.573 120.956 433.664 122.152 431.281C124.849 425.908 129.393 422.132 133.21 422.091C134.806 422.074 137.586 420.488 139.391 418.568C143.055 414.668 149.508 413.398 146.354 417.197C143.707 420.386 142.194 430.642 143.9 433.829C145.32 436.483 145.435 436.467 148.019 433.276C149.86 431.003 150.231 429.546 149.225 428.541C146.826 426.141 147.547 424.147 152.012 420.848C156.648 417.421 160.234 417.773 164.234 422.046C167.166 425.18 182.825 429.415 187.313 428.289C194.147 426.574 212.613 437.8 219.551 447.888C222.854 452.691 233.409 457.525 238.049 456.36C247.596 453.965 260.684 463.527 263.744 475.136C264.656 478.592 266.03 481.812 266.798 482.29C268.837 483.56 265.783 488.576 259.11 494.924C254.846 498.979 253.828 500.726 255.027 501.925C256.227 503.124 258.198 502.073 262.933 497.709C269.82 491.363 272.117 490.719 275.567 494.168C277.665 496.266 277.601 496.693 274.725 499.755C273.012 501.578 270.619 503.11 269.41 503.158C268.133 503.209 268.649 503.822 270.636 504.615C273.365 505.704 274.789 505.398 277.62 503.11C284.996 497.152 286.73 496.866 293.281 500.526C297.541 502.904 299.247 504.716 299.031 506.631C298.434 511.958 299.69 513.137 303.384 510.717C306.32 508.794 308.333 508.703 318.154 510.048C328.6 511.478 329.969 512.048 334.98 517.059C338.701 520.78 342.887 523.227 348.144 524.754C355.204 526.806 355.97 527.432 357.251 532.186C359.107 539.079 356.933 546.728 351.05 553.994C348.538 557.097 345.458 561.653 344.205 564.119C342.954 566.584 340.293 570.238 338.292 572.24C334.903 575.627 334.715 576.475 335.559 584.518C337.209 600.232 329.521 629.549 322.107 635.818C319.693 637.859 317.627 638.339 313.799 637.747C310.652 637.258 308.323 637.573 307.708 638.569C307.16 639.455 304.11 641.323 300.93 642.721C297.748 644.12 293.014 647.086 290.407 649.311C285.895 653.165 285.743 653.592 287.262 658.193C289.012 663.496 287.833 669.776 284.082 675.132C282.868 676.864 281.876 679.81 281.876 681.679C281.876 683.548 280.419 687.023 278.637 689.4C276.856 691.777 273.419 697.218 271 701.492C265.051 712.005 261.473 713.827 252.845 710.735C245.358 708.051 241.365 707.731 241.365 709.814C241.365 710.599 242.858 711.92 244.682 712.751C246.506 713.582 249.349 716.966 250.999 720.269C253.457 725.189 253.717 726.897 252.436 729.708C250.451 734.062 242.865 737.718 235.812 737.718C229.566 737.718 228.017 739.246 230.174 743.276C231.506 745.764 230.611 749.767 228.035 752.836C227.826 753.084 225.64 752.245 223.175 750.971C217.292 747.929 215.209 749.867 218.182 755.616C219.391 757.954 221.692 760.283 223.292 760.791C226.044 761.664 226.074 761.858 223.837 764.329C222.534 765.77 221.857 767.955 222.333 769.192C222.842 770.521 221.705 773.393 219.545 776.224C216.034 780.827 215.984 781.145 218.234 784.579C219.521 786.543 221.528 788.516 222.696 788.964C226.903 790.578 227.599 796.093 224.392 802.379C221.178 808.678 220.685 814.993 223.172 817.989C225.434 820.714 217.825 826.021 214.403 824.107ZM111.452 219.175C115.185 211.377 122.13 205.569 127.723 205.569C131.75 205.569 131.797 206.222 128.111 210.907L125.212 214.592L128.186 217C130.582 218.939 131.818 219.107 134.55 217.863C136.414 217.014 138.326 215.104 138.798 213.619C139.439 211.599 140.482 211.126 142.941 211.743C145.217 212.316 146.643 211.826 147.579 210.153C150.418 205.081 143.195 198.595 137.877 201.441C134.074 203.477 129.103 199.427 130.163 195.154C130.556 193.572 129.747 190.815 128.347 188.967C125.46 185.156 121.067 184.756 111.452 187.423C107.995 188.384 104.053 189.125 102.692 189.073C101.33 189.02 100.582 189.568 101.028 190.29C101.475 191.011 101.33 191.616 100.709 191.632C100.087 191.65 98.0152 192.866 96.1027 194.335L92.6266 197.005L96.5308 198.489C99.5823 199.649 101.381 199.483 104.771 197.731C108.755 195.671 109.493 195.672 113.84 197.745C116.459 198.994 120.034 199.635 121.845 199.181C123.644 198.729 125.502 198.983 125.974 199.745C126.456 200.524 124.487 201.527 121.48 202.036C113.305 203.416 109.057 206.82 103.127 216.742C98.1749 225.031 97.8898 226.03 99.865 228.221C101.801 230.371 102.337 230.405 104.993 228.547C106.626 227.405 109.532 223.188 111.452 219.175ZM136.832 227.797C141.805 225.26 142.283 224.623 140.53 222.87C138.779 221.119 137.672 221.232 131.97 223.754C125.276 226.715 123.152 230.71 128.271 230.71C129.838 230.71 133.69 229.399 136.832 227.797ZM161.601 217.242C164.51 215.205 164.618 214.805 162.566 213.657C159.545 211.967 150.566 214.88 150.566 217.55C150.566 220.301 157.51 220.108 161.601 217.242ZM266.509 820.404C266.509 819.789 267.264 818.532 268.185 817.61C269.108 816.688 269.334 815.934 268.689 815.934C268.043 815.934 266.763 816.965 265.841 818.225C264.519 820.033 263.605 820.189 261.496 818.965C259.989 818.091 259.623 817.397 260.655 817.373C261.661 817.349 262.095 816.703 261.62 815.934C260.708 814.459 263.105 814.057 270.002 814.528C276.157 814.948 276.776 815.846 272.972 818.838C269.427 821.626 266.509 822.333 266.509 820.404ZM1433.12 785.35C1429.12 782.818 1437.43 777.228 1458.07 768.584C1463.83 766.17 1472.62 761.122 1477.59 757.365C1486.03 750.978 1486.73 750.701 1488.41 753.093C1490.95 756.722 1489.45 759.348 1483.24 762.148C1480.29 763.485 1476.55 766.079 1474.95 767.909C1473.37 769.741 1470.8 771.239 1469.26 771.239C1467.72 771.239 1464.11 773.356 1461.22 775.944C1451.36 784.799 1438.85 788.983 1433.12 785.35ZM1335.35 767.206C1333.9 766.285 1333.81 765.339 1335 763.128C1335.85 761.545 1336.55 758.279 1336.55 755.873C1336.55 751.938 1336.87 751.608 1339.68 752.602C1341.42 753.211 1345.03 753.79 1347.72 753.891C1350.41 753.991 1353.09 754.164 1353.68 754.276C1356 754.71 1349.82 761.753 1344.26 765.011C1337.63 768.892 1337.91 768.824 1335.35 767.206ZM1496.77 754.992C1496.29 754.506 1497.44 752.89 1499.33 751.401C1502.18 749.159 1502.51 748.212 1501.27 745.884C1499.46 742.514 1502.14 738.899 1508.34 736.329C1513.14 734.339 1514.36 730.301 1513.07 720.553C1512.18 713.846 1512.29 713.428 1514.45 715.214C1516.15 716.618 1516.57 718.386 1515.96 721.611C1515.29 725.145 1515.9 726.981 1518.84 730.484C1522.02 734.268 1522.97 734.68 1525.45 733.353C1527.91 732.032 1528.21 732.153 1527.43 734.178C1526.93 735.483 1526.52 736.797 1526.52 737.098C1526.52 737.4 1524.48 738.692 1521.98 739.971C1519.48 741.249 1514.61 744.63 1511.15 747.484C1505.54 752.125 1499.75 755.875 1498.22 755.875C1497.91 755.875 1497.26 755.478 1496.77 754.992ZM1349.05 736.953C1346.11 733.821 1345.57 733.701 1342.74 735.552C1339.14 737.912 1332.37 736.533 1326.94 732.335C1324.06 730.095 1323.86 729.373 1325.35 726.586C1326.62 724.207 1326.66 722.539 1325.51 720.017C1324.66 718.157 1323.97 715.408 1323.97 713.908C1323.97 710.524 1321.77 710.362 1319.95 713.613C1319.21 714.951 1318.19 715.645 1317.7 715.156C1317.21 714.667 1318.83 711.969 1321.3 709.161C1327.37 702.247 1325 700.372 1316.98 705.741C1313.53 708.054 1310.48 710.581 1310.21 711.357C1309.93 712.133 1308.27 709.739 1306.52 706.038C1304.61 702.024 1301.32 697.991 1298.37 696.045C1293.93 693.121 1292.42 692.88 1283.89 693.729C1271.39 694.973 1259.32 698.056 1251.44 702.025C1247.84 703.83 1240.84 705.677 1235.43 706.243C1230.15 706.798 1221.75 708.787 1216.76 710.665C1209.13 713.535 1206.95 713.837 1203.1 712.562C1197.9 710.851 1195.75 707.324 1199.11 706.038C1200.32 705.572 1202.53 702.367 1204.01 698.915C1206.37 693.39 1206.5 691.67 1205.1 684.531C1203.94 678.625 1203.9 673.034 1204.98 663.941C1205.79 657.076 1206.1 650.107 1205.67 648.455C1205.24 646.803 1205.91 642.759 1207.18 639.468C1209.39 633.665 1209.92 633.285 1224.91 626.938C1233.41 623.339 1242.12 620.394 1244.24 620.394C1250.02 620.394 1257.17 614.9 1261.11 607.437C1263.55 602.824 1265.24 601.069 1266.69 601.634C1270.77 603.211 1271.58 602.901 1271.27 599.876C1271.07 597.93 1271.9 596.516 1273.56 595.989C1275.01 595.532 1277.66 592.988 1279.47 590.336C1281.32 587.622 1285.13 584.562 1288.2 583.335C1293.29 581.288 1293.8 581.319 1296.57 583.84C1301.69 588.491 1305.32 589.849 1307.05 587.763C1307.89 586.748 1308.18 585.518 1307.69 585.03C1306.09 583.431 1313.41 574.252 1316.98 573.371C1318.91 572.896 1322.85 571.321 1325.75 569.869C1330.27 567.604 1331.86 567.454 1336.92 568.814C1347.84 571.746 1348.21 572.225 1344.15 578.362C1338.92 586.255 1340.31 589.341 1353.12 598.36C1359.04 602.524 1364.62 605.681 1365.54 605.378C1366.45 605.074 1369.32 601.887 1371.92 598.293C1375.48 593.398 1376.85 589.837 1377.42 584.079C1378.24 575.9 1382.14 564.525 1384.15 564.525C1384.81 564.525 1386.34 567.889 1387.53 572C1388.73 576.112 1391.22 580.909 1393.09 582.662C1397.46 586.759 1399.99 598.214 1398.04 604.982C1396.74 609.467 1396.98 610.187 1401.43 614.76C1404.07 617.474 1408.24 624.095 1410.72 629.472C1413.18 634.85 1417.61 642.458 1420.58 646.38L1425.97 653.511L1424.44 664.528C1423.32 672.521 1421.61 677.848 1418.17 683.935C1412.9 693.259 1405.04 702.155 1400.89 703.473C1399.4 703.946 1395.93 707.445 1393.2 711.248C1390.47 715.052 1387.62 718.164 1386.87 718.164C1386.11 718.164 1382.92 721.428 1379.76 725.418C1374.5 732.071 1373.54 732.68 1368.05 732.783C1363.86 732.862 1360.63 734.003 1357.17 736.637L1352.26 740.377L1349.05 736.953ZM667.891 707.586C664.933 704.628 664.439 703.115 665.1 699.041C665.722 695.207 665.13 692.953 662.472 689.043C660.586 686.266 659.041 683.311 659.041 682.476C659.041 681.641 656.571 677.647 653.552 673.6C648.886 667.347 647.927 664.849 647.158 656.937C645.8 642.976 641.341 627.866 635.349 616.914C632.403 611.53 629.574 604.54 629.061 601.379C627.969 594.655 630.7 584.646 636.935 572.521L641.083 564.455L638.752 557.439C637.449 553.515 636.811 548.871 637.307 546.898C637.886 544.59 637.263 541.84 635.503 538.935C634.025 536.493 631.828 531.039 630.623 526.813C629.013 521.17 626.77 517.501 622.168 512.985C613.314 504.3 612.163 500.882 614.91 491.432C620.503 472.193 614.461 460.973 599.699 463.186C593.952 464.048 593.732 463.94 592.919 459.88C592.296 456.765 590.608 454.934 586.368 452.771C580.858 449.96 578.5 449.949 571.734 452.704C570.198 453.33 563.911 455.499 557.766 457.523C548.524 460.569 545.748 460.961 541.725 459.794C537.915 458.689 534.705 458.974 526.905 461.114C518.846 463.325 515.925 463.562 511.571 462.36C502.485 459.852 486.875 445.784 484.655 438.103C482.937 432.159 472.251 418.307 468.614 417.308C466.303 416.675 466.019 416.184 467.433 415.271C468.856 414.352 468.609 413.887 466.385 413.305C462.855 412.383 462.504 409.499 465.918 409.468C468.008 409.45 468.058 409.25 466.267 408.093C464.948 407.24 464.802 406.731 465.871 406.717C466.98 406.704 466.558 404.981 464.655 401.755C461.975 397.215 461.919 396.614 463.967 394.353C470.216 387.448 471.586 372.582 466.835 363.215C464.566 358.743 466.025 352.567 470.865 346.145C472.687 343.727 476.245 337.843 478.771 333.072C483.19 324.723 493.04 313.116 495.706 313.116C498.657 313.116 508.176 302.884 508.176 299.713C508.176 292.553 512.456 285.415 519.436 280.936C523.187 278.53 527.582 274.416 529.202 271.793C532.519 266.428 532.988 266.253 536.85 268.945C538.365 270.001 542.131 271.288 545.218 271.806C549.927 272.596 552.177 272.027 559.187 268.279C571.249 261.829 578.703 260.219 592.504 261.08C601.607 261.647 605.704 261.284 610.117 259.519C616.613 256.919 622.231 258.458 620.71 262.421C620.254 263.61 620.533 265.372 621.33 266.334C622.336 267.544 622.327 269.277 621.305 271.964C620.021 275.34 620.306 276.346 623.486 279.665C625.499 281.764 629.101 283.874 631.492 284.352C642.719 286.596 645.911 288.051 648.229 291.975C649.928 294.849 652.155 296.325 655.836 297.016C658.698 297.553 662.854 298.929 665.073 300.076C668.839 302.024 669.326 301.953 672.467 299.003C674.579 297.019 675.537 294.919 675.041 293.359C674.607 291.992 674.938 289.593 675.776 288.028C677.938 283.99 684.074 284.386 693.654 289.183C704.093 294.407 723.889 298.136 730.906 296.199C734.281 295.267 737.527 295.254 740.481 296.162C750.134 299.128 755.076 296.807 756.395 288.688C756.833 285.991 757.579 283.785 758.056 283.785C758.958 283.785 759.431 279.73 759.561 270.865C759.604 267.985 760.285 265.628 761.075 265.628C762.016 265.628 761.97 264.616 760.941 262.694C759.223 259.484 755.739 259.558 747.402 262.979C743.446 264.601 742.347 264.533 738.804 262.44C734.21 259.727 729.497 259.32 728.138 261.52C727.127 263.155 719.984 262.008 716.111 259.59C713.328 257.851 710.727 252.678 710.727 248.88C710.727 247.424 709.312 245.236 707.584 244.018C704.908 242.135 704.753 241.601 706.536 240.434C707.688 239.68 710.059 239.398 711.804 239.808C714.029 240.332 716.075 239.456 718.66 236.872C721.091 234.442 724.048 233.1 727.361 232.923C730.12 232.777 734.118 231.511 736.245 230.11C740.861 227.068 751.341 227.914 759.473 231.983C770.437 237.47 780.174 237.148 784.094 231.167C786.133 228.056 786.145 227.402 784.209 224.449C783.031 222.65 777.366 218.505 771.624 215.238L761.182 209.298L763.138 205.516C764.214 203.434 764.743 201.38 764.313 200.95C763.882 200.521 764.046 199.34 764.678 198.329C765.31 197.318 765.949 195.679 766.1 194.687C766.42 192.571 764.167 193.155 753.059 198.068C746.609 200.919 745.651 201.793 747.082 203.516C748.019 204.645 750.123 205.596 751.758 205.631C754.05 205.678 753.507 206.337 749.383 208.514C744.374 211.156 743.814 211.19 740.558 209.057C737.773 207.232 737.41 206.384 738.728 204.793C740.039 203.216 739.843 202.608 737.775 201.831C736.344 201.293 734.499 199.955 733.675 198.857C729.673 193.524 716.979 207.552 713.288 221.386C711.554 227.879 711.612 228.217 714.874 230.678L718.26 233.231L712.048 234.512C708.632 235.215 704.029 235.298 701.817 234.694C697.738 233.58 692.567 235.259 692.567 237.699C692.567 238.415 691.616 238.638 690.453 238.192C689.292 237.746 687.447 238.123 686.354 239.03C684.658 240.436 684.851 241.589 687.66 246.872C690.703 252.595 690.796 253.376 688.898 257.181C686.52 261.948 684.308 261.594 680.949 255.907C678.606 251.942 678.622 251.851 681.721 251.411C685.631 250.856 685.883 248.367 682.09 247.76C673.435 246.376 668.82 241.816 668.82 234.65C668.82 229.058 663.635 222.893 657.347 221.009C654.079 220.03 650.527 217.974 649.454 216.442C648.38 214.908 645.236 212.708 642.468 211.552C639.699 210.395 636.602 208.259 635.583 206.806C634.122 204.719 633.16 204.468 631.02 205.613C629.529 206.411 628.31 207.963 628.31 209.061C628.31 212.688 646.115 229.094 654.817 233.486C664.045 238.145 665.487 239.807 659.075 238.399C653.359 237.144 651.802 238.4 653.758 242.692C655.131 245.705 654.906 246.621 652.143 249.275L648.934 252.359L649.664 248.198C650.823 241.594 642.115 232.106 634.892 232.106C632.245 232.106 622.073 222.241 619.408 217.089C616.561 211.584 613.393 210.521 608.905 213.563C602.144 218.147 597.074 219.696 591.771 218.801C584.726 217.611 580.294 220.068 581.417 224.539C582.003 226.874 581.676 227.916 580.36 227.916C579.312 227.916 576.628 229.487 574.396 231.406C572.163 233.326 569.857 234.897 569.269 234.898C567.541 234.901 562.666 243.725 562.66 246.86C562.654 249.858 557.191 255.766 551.921 258.473C550.242 259.335 546.336 260.041 543.239 260.041C538.978 260.041 537.232 260.743 536.063 262.927C534.533 265.786 534.487 265.779 530.907 262.199C527.548 258.841 525.614 258.001 518.837 256.952C515.276 256.401 514.674 248.342 517.337 236.858C518.476 231.949 519.034 226.448 518.579 224.634C517.255 219.36 521.4 216.25 528.331 217.316C544.337 219.773 553.699 219.909 555.895 217.715C558.909 214.7 560.27 204.757 558.429 199.181C557.23 195.544 555.579 194.058 550.653 192.177C543.408 189.411 543.256 186.735 550.338 186.664C553.037 186.637 556.93 185.511 558.989 184.162C561.048 182.813 563.326 182.075 564.05 182.522C566.025 183.742 573.502 179.433 575.986 175.644C577.185 173.812 579.548 171.961 581.237 171.531C582.925 171.101 587.449 167.821 591.291 164.244C596.737 159.172 599.595 157.581 604.264 157.024C610.05 156.333 615.868 151.576 613.137 149.769C611.439 148.647 610.021 141.883 610.967 139.42C611.414 138.253 613.392 136.242 615.361 134.952L618.941 132.606L618.022 138.353C617.225 143.341 617.428 144.046 619.563 143.689C620.916 143.463 623.447 142.496 625.187 141.54C627.836 140.085 628.486 140.156 629.185 141.976C630.382 145.095 627.053 148.762 624.755 146.856C623.486 145.804 622.682 145.841 621.972 146.989C621.241 148.171 620.669 148.107 619.829 146.747C619.199 145.727 618.361 145.214 617.97 145.605C617.578 145.996 618.695 148.12 620.451 150.323C623.413 154.037 623.977 154.213 628.198 152.742C631.813 151.481 633.549 151.568 636.627 153.159C640.1 154.956 641.274 154.869 647.951 152.333C653.803 150.109 656.108 149.824 658.698 151.005C661.08 152.09 662.845 152.068 665.058 150.924C671.341 147.678 673.081 145.23 672.302 140.736C671.145 134.077 673.263 131.895 678.84 134C682.635 135.432 683.745 135.376 685.46 133.661C687.277 131.844 687.119 131.174 684.143 128.007C681.28 124.958 681.079 124.201 682.825 123.023C683.958 122.26 688.202 121.986 692.255 122.416C699.674 123.201 708.92 120.304 707.309 117.697C705.899 115.414 697.382 114.755 690.167 116.369C683.77 117.801 682.09 117.685 677.185 115.474C669.57 112.04 668.672 108.022 673.896 100.742C680.62 91.3712 681.85 88.385 679.935 86.0773C677.098 82.6602 674.312 83.7742 667.832 90.9159C664.408 94.6896 659.743 98.5493 657.464 99.4929C655.186 100.437 652.368 103.054 651.202 105.309C649.302 108.981 649.304 109.75 651.23 112.688C652.412 114.492 654.653 116.371 656.211 116.866C660.496 118.226 659.648 120.778 653.519 124.971C651.633 126.26 649.119 129.91 647.93 133.079C646.442 137.051 644.178 139.762 640.648 141.799C635.671 144.672 635.445 144.684 632.695 142.194C631.139 140.786 629.486 137.913 629.024 135.81C628.563 133.707 626.464 129.926 624.363 127.409L620.54 122.831L615.694 125.785C613.028 127.41 609.59 128.727 608.054 128.713C603.621 128.673 598.489 123.884 598.146 119.47C597.976 117.276 597.404 114.405 596.879 113.089C595.627 109.961 601.882 104.094 608.383 102.299C614.907 100.498 628.139 91.2257 630.395 86.875C631.398 84.9397 634.796 81.0453 637.947 78.2207C641.097 75.3962 643.675 72.4627 643.675 71.7018C643.675 70.9411 646.661 69.2546 650.311 67.9543C653.96 66.6541 660.089 64.2948 663.93 62.7116C668.647 60.7678 674.544 59.7401 682.09 59.5471C695.276 59.2098 703.898 60.9573 711.013 65.4083C714.583 67.6418 717.4 68.4037 720.097 67.8646C724.919 66.9002 750.629 74.8678 751.7 77.6591C752.777 80.4644 745.403 83.1126 739.058 82.199C736.154 81.7805 730.144 80.6616 725.705 79.7124C719.729 78.4346 717.226 78.3943 716.064 79.557C714.901 80.7197 715.482 81.5779 718.302 82.8629C720.397 83.8175 723.02 86.3555 724.131 88.5029C726.959 93.9709 736.016 98.4283 740.69 96.6519C745.179 94.945 745.148 94.4067 740.412 91.8371C736.029 89.4603 738.052 88.9465 743.554 91.0384C747.948 92.7087 752.926 90.6307 751.767 87.6103C751.224 86.1957 752.751 85.1743 757.058 84.0709C766.274 81.7097 766.948 81.3722 766.184 79.5035C763.292 72.4354 763.252 72.6384 767.459 73.1187C769.703 73.3751 771.344 74.335 771.157 75.2834C770.973 76.2207 772.142 77.6943 773.757 78.5581C776.181 79.8557 778.094 79.3935 784.762 75.8991C794.539 70.7749 802.15 69.1043 804.988 71.4596C806.571 72.7729 809.195 72.7821 816.791 71.5011C822.163 70.595 827.17 70.2309 827.915 70.6918C828.661 71.1526 829.683 70.8634 830.187 70.049C831.287 68.2682 828.242 64.2272 826.576 65.257C824.564 66.5002 817.957 64.2731 819.394 62.8361C820.842 61.3892 859.718 70.4466 862.044 72.7729C863.612 74.341 868.578 72.249 868.578 70.0202C868.578 69.269 865.805 67.3077 862.417 65.6615C851.91 60.5579 851.235 52.3838 861.116 49.9043C866.851 48.4652 869.331 50.1252 877.263 60.7127C887.56 74.4583 887.297 73.7589 883.933 78.483C881.441 81.9812 881.291 82.7999 883.02 83.4631C886.295 84.7196 893.304 80.3226 894.291 76.3928C895.446 71.788 893.289 67.8637 888.134 65.1989C884.082 63.104 881.15 59.2652 881.15 56.0567C881.15 54.9629 882.67 54.6902 885.69 55.2418C890.218 56.0688 893.964 54.4268 904.219 47.1192C906.564 45.448 910.528 44.3468 914.526 44.2562C922.635 44.0723 925.26 42.7111 922.926 39.8999C922.011 38.7975 921.553 37.6046 921.909 37.2492C923.692 35.4654 946.69 32.2512 951.986 33.0453C957.083 33.8095 958.66 33.396 962.853 30.1984C965.551 28.141 967.758 25.9038 967.758 25.2267C967.758 23.5194 955.551 23.672 954.488 25.3925C953.025 27.7599 951.127 26.9362 951.661 24.165C952.112 21.8253 950.93 21.4445 940.755 20.6524C912.971 18.4894 910.712 17.9819 914.046 14.6492C916.976 11.7191 924.163 11.7759 930.18 14.7767C932.645 16.0062 936.728 17.0123 939.254 17.0123C941.779 17.0123 944.234 17.6407 944.709 18.4089C945.184 19.1771 947.631 19.8056 950.146 19.8056C957.113 19.8056 970.584 22.8146 969.738 24.182C969.326 24.8478 970.63 25.3925 972.635 25.3925C974.638 25.3925 978.292 26.475 980.752 27.7978C984.052 29.5769 988.676 30.2169 998.493 30.2563C1009.04 30.2985 1012.54 30.8403 1015.61 32.9001C1017.71 34.3249 1019.44 35.8899 1019.43 36.3777C1019.42 36.8655 1016.19 39.0379 1012.26 41.2053C1002.77 46.4399 1004.77 48.7211 1016.26 45.7474C1023.69 43.8212 1025.4 43.8089 1031.55 45.6366C1036.6 47.1361 1039.76 47.3286 1043.18 46.3465C1046.6 45.366 1050.11 45.5766 1056.07 47.1193C1062.28 48.7291 1065.5 48.8928 1069.43 47.7993C1078.42 45.3038 1089.48 46.0086 1095.89 49.4859C1099.07 51.2144 1104.96 54.4124 1108.96 56.5929C1116.05 60.4578 1116.35 60.5005 1121.26 58.2974C1125.38 56.4531 1127.67 56.2989 1133.74 57.4588C1139.77 58.6117 1141.97 58.4712 1145.37 56.7149C1148.69 54.9968 1149.22 54.1522 1147.96 52.6241C1145.51 49.6692 1154.2 48.5707 1164.89 50.4856C1169.79 51.3626 1176 52.238 1178.7 52.431C1181.38 52.624 1186.63 54.1562 1190.37 55.8359C1196.06 58.3975 1200.35 58.9778 1217.01 59.4351C1232.81 59.8691 1237.85 60.5013 1241.65 62.5328C1245.52 64.5946 1249.93 65.1191 1264.6 65.2621C1278.09 65.3937 1284.15 66.0336 1288.15 67.754C1294.61 70.5312 1297.2 69.5126 1293.68 65.5753C1291.15 62.7432 1291.16 62.7393 1300.92 63.7085C1317.27 65.3327 1336.89 68.9102 1343.52 71.4796C1346.99 72.8175 1353.58 74.3721 1358.17 74.9343C1362.77 75.4965 1369.47 77.4493 1373.07 79.2738C1378.55 82.043 1380.32 82.349 1383.82 81.1257C1388.62 79.4528 1391.73 80.6574 1399.07 87.0228L1403.62 90.9779L1400.19 91.8392C1396.75 92.7036 1387.61 90.4396 1384.45 87.9426C1383.52 87.2083 1382.22 86.942 1381.56 87.3508C1380.9 87.7595 1377.63 87.155 1374.3 86.0073C1366.49 83.3192 1363.03 84.3289 1366.59 88.2553C1369.01 90.9369 1368.96 90.9932 1364.33 90.6705C1355.67 90.0663 1358.05 92.624 1370.76 97.5835C1377.68 100.28 1383.63 102.773 1384 103.124C1385.31 104.392 1380.98 105.965 1377.84 105.364C1374.38 104.704 1365.88 108.41 1365.88 110.574C1365.88 111.292 1364.53 113.133 1362.89 114.664C1360.14 117.221 1359.57 117.279 1355.91 115.38C1352.47 113.604 1351.37 113.585 1348.07 115.249C1345.95 116.313 1342.34 117.637 1340.05 118.19C1337.74 118.744 1335.08 119.847 1334.12 120.641C1331.31 122.973 1336.26 129.763 1343.25 133.143C1347.05 134.983 1349.8 137.449 1350.62 139.748C1351.34 141.765 1352.87 145.078 1354 147.109C1355.87 150.422 1355.85 150.892 1353.85 151.661C1352.38 152.224 1351.96 153.352 1352.6 154.95C1353.13 156.287 1353.73 158.954 1353.93 160.874C1354.13 162.795 1354.75 165.409 1355.3 166.685C1356.01 168.344 1355.42 169.279 1353.22 169.978C1350.77 170.756 1349.12 169.818 1345.1 165.364C1342.31 162.289 1337.67 158.056 1334.78 155.956C1331.9 153.857 1326.72 148.399 1323.28 143.826C1317.22 135.761 1317.09 135.393 1319.1 131.503C1320.25 129.296 1321.19 126.046 1321.23 124.279C1321.25 122.513 1322.14 119.506 1323.19 117.599C1325.22 113.955 1324.43 111.045 1320.12 106.098C1317.29 102.849 1312.25 105.285 1313.52 109.288C1314.69 112.975 1311.1 114.17 1306.97 111.467C1305.18 110.296 1301.05 108.913 1297.81 108.394C1292.23 107.504 1291.81 107.676 1290.37 111.466C1289.53 113.674 1289.18 117.165 1289.59 119.223C1290.23 122.43 1289.78 123.086 1286.48 123.81C1284.24 124.303 1280.39 123.72 1277.27 122.411C1273.82 120.973 1270.57 120.539 1268.24 121.202C1266.24 121.771 1259.47 122.288 1253.19 122.351C1243.25 122.45 1241.33 122.884 1238.31 125.722C1236.4 127.514 1234.11 131.913 1233.22 135.499C1232.32 139.084 1230.69 143.417 1229.58 145.127C1227.66 148.082 1227.85 148.382 1233.33 151.174C1239.26 154.205 1245.75 155.003 1250.65 153.311C1254.44 152.004 1266 161.013 1269.6 168.085C1271.08 170.981 1273.53 174.012 1275.03 174.818C1280.74 177.872 1281.9 197.905 1277.12 211.001C1273.82 220.069 1270.12 223.033 1264.69 220.97C1262.62 220.181 1260.72 219.537 1260.46 219.537C1260.2 219.537 1258.65 222.115 1257.01 225.266C1254.85 229.404 1254.43 231.489 1255.49 232.771C1257.53 235.224 1256.02 238.414 1251.96 240.267C1250.08 241.123 1248.54 242.433 1248.54 243.176C1248.54 243.92 1252.9 247.535 1258.25 251.211C1265.05 255.888 1268.68 259.48 1270.34 263.172C1271.65 266.075 1272.46 268.68 1272.16 268.963C1271.84 269.244 1268.99 270.785 1265.81 272.386L1260.03 275.299L1256.56 267.321C1252.67 258.392 1249.33 254.801 1243.45 253.219C1240.48 252.422 1239.45 251.293 1239.45 248.847C1239.45 246.605 1238.01 244.7 1234.92 242.896C1230.44 240.27 1230.36 240.272 1225.58 243.221C1220.8 246.173 1220.75 246.175 1219.29 243.435C1218.47 241.915 1217.81 239.709 1217.81 238.532C1217.81 237.357 1216.63 235.766 1215.2 234.999C1213.07 233.856 1211.72 234.547 1207.79 238.79C1205.15 241.644 1201.77 244.674 1200.28 245.522C1197.96 246.838 1197.85 247.395 1199.44 249.318C1200.47 250.558 1204.02 253.086 1207.33 254.937C1212.61 257.882 1213.61 258.05 1215.39 256.272C1217.08 254.585 1218.45 254.522 1223.55 255.906L1229.68 257.57L1226.27 259.853C1219.93 264.088 1217.93 266.31 1217.03 270.132C1216.28 273.268 1216.72 274.212 1219.54 275.495C1221.42 276.351 1224.28 279.767 1225.89 283.086C1227.5 286.405 1230.73 290.243 1233.04 291.616C1238.16 294.637 1239.64 297.845 1236.69 299.497C1233.94 301.037 1235.26 303.339 1238.89 303.339C1243.24 303.339 1243.26 305.934 1239.05 320.91C1233.97 339.049 1229.37 345.1 1217.34 349.499C1212.61 351.232 1206.83 352.753 1204.54 352.881C1199.18 353.178 1195.02 355.446 1191.4 360.054L1188.52 363.711L1187.18 360.182C1185.43 355.579 1181.42 354.421 1175.66 356.858C1170.37 359.092 1166.89 362.654 1165.49 367.26C1164.23 371.382 1168.68 378.632 1176.05 384.464C1182.09 389.254 1188.88 401.271 1190.46 410.015C1191.86 417.621 1189.4 422.613 1182.81 425.583C1179.81 426.936 1177.01 429.154 1176.57 430.513C1175.54 433.777 1169.33 437.839 1168.19 435.999C1167.72 435.233 1167.71 433.442 1168.16 432.021C1168.61 430.601 1168.58 428.418 1168.11 427.171C1167.41 425.377 1166.66 425.216 1164.44 426.397C1162.15 427.625 1161.26 427.314 1159.41 424.625C1154.85 418.016 1141.64 407.395 1137.97 407.395C1136.69 407.395 1136.19 408.946 1136.41 412.284C1136.59 414.972 1136.03 420.214 1135.19 423.932C1133.81 429.99 1133.95 431.1 1136.56 434.617C1138.15 436.775 1139.85 440.12 1140.34 442.052C1140.82 444.012 1144.87 448.491 1149.48 452.196C1157.19 458.37 1158 459.589 1161.24 469.847C1163.16 475.908 1164.73 481.462 1164.73 482.191C1164.73 484.56 1161.81 483.601 1155.72 479.227C1149.42 474.706 1145.4 467.555 1142.04 454.913C1140.59 449.425 1138.99 447.072 1134.46 443.74C1128.9 439.653 1128.74 439.296 1129.19 432.535C1129.44 428.694 1130.07 423.25 1130.58 420.438C1131.32 416.477 1130.71 413.639 1127.93 407.867C1125.96 403.767 1123.62 397.468 1122.73 393.872C1120.77 385.836 1117.99 384.491 1113.08 389.194C1111.06 391.138 1109 392.73 1108.52 392.73C1106.3 392.73 1103.24 387.997 1103.97 385.688C1105.31 381.496 1097.12 366.882 1092.33 364.899C1089.72 363.813 1087.32 361.181 1085.71 357.626C1082.93 351.449 1079.81 349.086 1076.68 350.795C1075.55 351.415 1071.02 352.661 1066.61 353.566C1058.52 355.223 1055.62 357.671 1056.73 361.901C1057.13 363.458 1055.73 364.963 1052.33 366.58C1049.58 367.891 1046.62 370.528 1045.74 372.439C1044.88 374.351 1042.96 376.298 1041.49 376.765C1040.01 377.232 1037.74 379.37 1036.44 381.515C1035.13 383.66 1031.24 387.581 1027.8 390.227C1023.08 393.849 1021.62 395.875 1021.85 398.424C1023.22 413.317 1021.12 425.779 1015.99 433.18C1010.98 440.398 1010.64 440.599 1006.41 438.671C1004.08 437.61 1002.63 435.537 1002.04 432.371C1001.56 429.778 998.741 422.467 995.796 416.128C977.925 377.77 975.289 370.451 976.811 363.523C977.842 358.843 975.371 351.78 972.988 352.58C972.033 352.901 971.234 354.052 971.214 355.138C971.095 361.513 963.931 362.492 958.336 356.897L954.628 353.191L957.818 352.011C961.407 350.683 961.078 347.103 957.427 347.759C956.129 347.992 953.161 346.579 950.829 344.617C948.498 342.655 946.052 341.051 945.395 341.051C944.737 341.051 943.798 339.786 943.307 338.242C942.02 334.186 934.609 330.657 930.895 332.331C927.554 333.838 897.232 333.524 892.157 331.929C890.328 331.355 886.947 328.727 884.642 326.09C880.477 321.324 880.413 321.305 874.165 322.988C868.245 324.584 867.385 324.433 859.411 320.409C852.521 316.931 850.457 315.055 848.33 310.339C845.616 304.322 839.589 299.964 835.924 301.37C834.77 301.814 833.422 304.013 832.928 306.26C832.22 309.485 832.943 311.582 836.368 316.239C838.752 319.481 841.351 324.537 842.142 327.473C843.84 333.782 847.196 335.659 849.977 331.856C851.655 329.562 852.108 329.481 853.244 331.28C853.97 332.428 854.361 333.998 854.114 334.765C853.337 337.18 861.398 341.152 865.159 340.209C867.06 339.732 871.122 336.495 874.184 333.016C879.011 327.534 880.695 327.164 879.87 331.767C879.315 334.866 881.753 338.497 885.789 340.584C892.022 343.805 900.707 350.983 900.707 352.913C900.707 353.802 899.074 356.054 897.078 357.917C895.083 359.779 892.211 363.72 890.696 366.674C887.015 373.851 876.348 384.349 872.736 384.349C868.561 384.349 862.35 387.874 859.879 391.646C858.706 393.433 855.628 395.954 853.035 397.249C839.758 403.877 823.773 410.595 819.274 411.439C814.463 412.342 814.074 412.123 811.525 407.098C810.051 404.189 808.376 398.35 807.806 394.126C807.063 388.631 805.625 385.137 802.751 381.856C800.54 379.332 798.732 376.662 798.732 375.922C798.732 375.181 796.211 371.978 793.13 368.804C789.293 364.85 786.813 360.56 785.259 355.184C784.011 350.867 781.472 345.45 779.616 343.146C766.795 327.227 763 321.615 761.088 315.753C758.555 307.984 756.413 306.731 755.425 312.437L754.723 316.487L749.998 310.521C742.716 301.329 741.798 305.507 748.634 316.73C751.869 322.041 757.026 331.414 760.094 337.558C763.161 343.704 767.138 350.677 768.931 353.055C770.777 355.502 772.191 359.327 772.191 361.876C772.191 367.138 773.761 370.424 779.931 378.063C782.411 381.137 784.863 385.622 785.377 388.034C786.037 391.125 788.734 394.357 794.531 399.006C803.34 406.07 809.049 413.445 810.466 419.591C810.998 421.899 813.013 424.269 815.57 425.591C819.465 427.605 820.837 427.55 833.148 424.883C840.492 423.292 848.272 421.075 850.437 419.955L854.372 417.921L855.306 423.45C856.155 428.473 855.241 430.893 845.296 449.963C834.604 470.468 834.104 471.146 823.472 479.538C817.488 484.262 811.225 490.046 809.556 492.39C807.886 494.735 802.544 501.067 797.684 506.462C783.503 522.206 781.575 536.053 790.98 554.612C793.369 559.326 794.302 562.895 793.737 565.152C793.265 567.027 793.568 571.766 794.407 575.681C795.73 581.847 795.58 583.496 793.291 587.98C789.989 594.45 787.361 596.776 778.128 601.402C774.094 603.424 770.794 605.674 770.794 606.404C770.794 607.133 767.965 610.915 764.508 614.807C761.051 618.699 758.221 622.516 758.221 623.29C758.221 624.063 759.518 627.235 761.101 630.34C765.85 639.647 762.659 646.392 751.276 651.105C746.478 653.093 744.902 657.151 746.09 664.464C746.711 668.297 746.316 669.571 744.144 670.734C742.645 671.536 739.934 674.523 738.121 677.37C732.395 686.362 715.935 702.272 708.456 706.043C702.216 709.19 700.62 709.468 696.036 708.203C691.993 707.086 688.731 707.263 681.954 708.966C670.978 711.722 672.142 711.837 667.891 707.586ZM851.884 262.1C855.491 260.235 856.005 259.209 856.005 253.891C856.005 250.078 855.19 247.136 853.818 245.997C852.615 244.999 850.666 242.317 849.486 240.035C847.535 236.263 847.544 235.967 849.578 236.748C852.265 237.778 856.005 236.539 856.005 234.617C856.005 233.858 854.706 231.411 853.118 229.181C850.725 225.821 849.766 225.374 847.529 226.571C845.721 227.538 844.83 227.546 844.83 226.597C844.83 225.817 842.337 223.907 839.289 222.353C832.545 218.913 830.145 215.102 832.249 211.172C833.841 208.198 839.528 206.114 841.956 207.615C845.231 209.638 846.197 206.656 843.495 202.862C836.943 193.662 827.82 194.267 816.507 204.654C809.206 211.355 808.572 213.136 812.701 215.345C814.237 216.169 815.495 217.776 815.495 218.918C815.495 220.06 817.98 223.69 821.017 226.984C828.011 234.572 829.294 238.038 828.428 247.017L827.731 254.247L837.328 259.17C842.607 261.878 847.114 264.125 847.344 264.163C847.574 264.2 849.617 263.272 851.884 262.1ZM813.4 652.246C809.456 650.009 808.895 648.829 807.865 640.585C807.042 633.997 807.386 632.565 811.327 626.16C815.333 619.65 815.621 618.396 814.738 611.326C813.462 601.116 815.633 595.751 821.568 594.449C827.159 593.223 839.257 582.544 842.156 576.275L844.372 571.485L845.911 574.864C849.785 583.366 849.391 587.1 842.651 605.746C839.044 615.722 835.176 627.657 834.053 632.266C830.461 647.017 828.421 650.573 822.537 652.336C816.273 654.213 816.879 654.219 813.4 652.246ZM1501.52 627.963C1497.06 623.088 1494.4 618.904 1494.4 616.789C1494.4 612.103 1495.14 612.512 1499.17 619.39C1501.1 622.678 1504.59 627.196 1506.92 629.427C1509.25 631.66 1511.15 633.998 1511.15 634.622C1511.15 637.309 1508.19 635.254 1501.52 627.963ZM878.357 625.98C878.357 625.213 878.985 624.584 879.753 624.584C880.521 624.584 881.15 625.213 881.15 625.98C881.15 626.749 880.521 627.377 879.753 627.377C878.985 627.377 878.357 626.749 878.357 625.98ZM1613.98 623.433C1613.49 622.636 1613.77 621.563 1614.6 621.049C1616.67 619.766 1617.41 620.786 1616.02 623.027C1615.28 624.229 1614.56 624.372 1613.98 623.433ZM888.134 621.174C888.134 620.836 888.764 620.17 889.531 619.696C890.3 619.221 890.928 619.497 890.928 620.311C890.928 621.124 890.3 621.79 889.531 621.79C888.764 621.79 888.134 621.514 888.134 621.174ZM1577.65 606.998C1576.29 603.454 1578.02 602.211 1581.87 603.965C1585.19 605.479 1585.27 605.711 1582.95 607.404C1579.71 609.773 1578.69 609.695 1577.65 606.998ZM1586.51 600.788C1583.78 599.101 1585.67 597.753 1590.01 598.29C1593.42 598.711 1593.49 598.865 1591.06 600.362C1589.51 601.32 1587.64 601.494 1586.51 600.788ZM1521.28 595.662C1518.42 589.486 1519.42 587.113 1522.39 593.058C1525.48 599.244 1525.53 599.448 1524.08 599.432C1523.5 599.426 1522.25 597.729 1521.28 595.662ZM1526.64 594.671C1526.57 593.199 1526.9 592.373 1527.37 592.838C1527.83 593.302 1527.88 594.507 1527.48 595.514C1527.03 596.628 1526.7 596.298 1526.64 594.671ZM1640.36 581.261C1639.08 579.192 1640.29 578.136 1643.27 578.718C1645.46 579.144 1645.48 579.37 1643.5 581.004C1641.93 582.306 1641.04 582.378 1640.36 581.261ZM814.797 574.302C814.321 573.534 814.599 572.906 815.413 572.906C816.227 572.906 816.892 573.534 816.892 574.302C816.892 575.07 816.615 575.699 816.277 575.699C815.937 575.699 815.271 575.07 814.797 574.302ZM1428.04 561.179C1419.2 558.393 1415.19 555.803 1411.71 550.633C1407.74 544.727 1400.46 540.256 1396.75 541.435C1395.25 541.911 1392.71 544.502 1391.13 547.193C1388.43 551.773 1387.91 552.025 1383 551.152C1380.12 550.639 1376.09 548.663 1374.04 546.761C1371.45 544.344 1369.46 543.58 1367.44 544.222C1365.84 544.727 1363.54 544.579 1362.31 543.892C1360.38 542.817 1360.57 542.313 1363.64 540.302C1367.2 537.971 1367.2 537.94 1364.83 532.936C1362.9 528.916 1360.26 526.82 1351.61 522.473C1345.66 519.483 1338.94 517.037 1336.66 517.037C1331.47 517.037 1329.33 512.249 1333.25 509.388C1335.56 507.686 1335.23 507.263 1329.15 504.313C1322.71 501.181 1322.61 501.048 1325.7 499.338C1327.44 498.372 1330.24 497.56 1331.92 497.533C1335.2 497.479 1339.34 502.2 1339.34 505.986C1339.34 507.247 1340.7 510.006 1342.35 512.116C1345.33 515.898 1345.4 515.913 1347.59 513.183C1348.81 511.66 1352.71 508.753 1356.25 506.722L1362.7 503.033L1371.61 507.059C1376.52 509.274 1383.5 512.149 1387.11 513.45C1390.72 514.75 1397.93 518.616 1403.15 522.039C1413.11 528.577 1417.42 534.089 1414.95 537.077C1412.93 539.513 1420.86 550.609 1429.08 556.836C1438.12 563.678 1437.97 564.311 1428.04 561.179ZM1488.84 561.067C1487.74 559.74 1487.63 558.938 1488.55 558.938C1490.24 558.938 1492.21 561.588 1491.24 562.557C1490.88 562.908 1489.81 562.238 1488.84 561.067ZM1254.12 555.381C1252.1 554.262 1251.52 553.438 1252.72 553.423C1255.22 553.388 1259.22 555.713 1258.27 556.653C1257.91 557.015 1256.05 556.444 1254.12 555.381ZM1277.74 553.536C1281.7 547.973 1287.9 545.593 1293.64 547.433C1297.81 548.774 1297.87 548.886 1294.56 549.019C1292.59 549.097 1288.02 551.047 1284.39 553.352C1276.08 558.611 1274.09 558.666 1277.74 553.536ZM1480.43 555.446C1478.53 553.172 1478.98 552.888 1482.4 554.2C1483.62 554.666 1484.61 555.608 1484.61 556.294C1484.61 558.226 1482.36 557.769 1480.43 555.446ZM1486.97 554.214C1486.45 552.846 1486.06 550.678 1486.1 549.396C1486.16 547.853 1486.65 548.205 1487.54 550.438C1488.28 552.293 1488.67 554.461 1488.4 555.256C1488.14 556.052 1487.49 555.582 1486.97 554.214ZM1594.98 555.529C1594.98 555.191 1595.6 554.525 1596.37 554.049C1597.14 553.575 1597.77 553.852 1597.77 554.666C1597.77 555.479 1597.14 556.145 1596.37 556.145C1595.6 556.145 1594.98 555.867 1594.98 555.529ZM1237.7 549.662C1236.73 549.255 1236.31 548.348 1236.73 547.646C1237.8 545.919 1246.75 546.015 1247.84 547.764C1248.31 548.533 1247.88 549.17 1246.87 549.181C1245.86 549.191 1243.78 549.47 1242.25 549.8C1240.72 550.132 1238.66 550.07 1237.7 549.662ZM1258.44 548.614C1255.91 545.556 1258.83 544.625 1265.4 546.397C1272.04 548.181 1272.02 548.461 1265.14 549.701C1261.57 550.346 1259.61 550.027 1258.44 548.614ZM1468.17 547.764C1467.2 546.217 1467.04 544.971 1467.8 544.971C1468.54 544.971 1469.82 546.228 1470.65 547.764C1471.47 549.301 1471.64 550.558 1471.04 550.558C1470.42 550.558 1469.13 549.301 1468.17 547.764ZM1476.93 546.359C1473.19 542.233 1475.19 541.584 1479.03 545.674C1480.83 547.593 1481.67 549.161 1480.89 549.161C1480.1 549.161 1478.32 547.9 1476.93 546.359ZM1215.01 546.117C1210.02 545.425 1202.98 543.889 1199.36 542.704C1195.75 541.519 1191.49 540.962 1189.91 541.467C1186.7 542.481 1173.1 538.483 1173.1 536.527C1173.1 532.063 1185.63 531.723 1192.29 536.008C1194.77 537.608 1196.72 537.714 1201.97 536.538C1207.79 535.233 1209.01 535.394 1212.43 537.921C1214.56 539.494 1216.92 540.781 1217.7 540.781C1220.46 540.781 1228.84 545.453 1228.14 546.598C1227.74 547.239 1226.67 547.676 1225.76 547.57C1224.84 547.462 1220.01 546.81 1215.01 546.117ZM1465.76 539.384C1464.37 537.848 1463.86 536.591 1464.63 536.591C1465.39 536.591 1467.16 537.848 1468.55 539.384C1469.94 540.92 1470.44 542.177 1469.68 542.177C1468.92 542.177 1467.14 540.92 1465.76 539.384ZM1456.95 537.615C1456.16 536.66 1455.1 533.995 1454.61 531.694C1453.8 527.989 1453.9 527.83 1455.39 530.306C1456.31 531.842 1457.97 534.137 1459.05 535.405C1460.21 536.748 1460.5 538.053 1459.72 538.532C1458.98 538.983 1457.74 538.571 1456.95 537.615ZM1427.37 533.174L1423.89 531.253L1429.27 530.244C1432.23 529.689 1436.78 527.368 1439.37 525.087C1442.21 522.595 1444.09 521.693 1444.08 522.828C1444.05 525.669 1442.33 527.856 1437.11 531.708C1431.66 535.732 1431.91 535.693 1427.37 533.174ZM1165.32 527.736C1160.19 524.812 1150.94 513.502 1147.92 506.472C1146.3 502.68 1142.58 496.435 1139.64 492.594C1136.72 488.753 1133.35 483.725 1132.18 481.421C1131 479.116 1127.41 474.716 1124.21 471.643C1117.47 465.165 1113.31 458.357 1116.14 458.406C1119.81 458.468 1129.25 463.714 1133.29 467.938C1144.46 479.592 1146.74 481.666 1152.01 484.912C1157.1 488.046 1159.51 491.306 1159.75 495.387C1159.8 496.156 1161.24 498.356 1162.97 500.276C1164.69 502.197 1167.93 505.808 1170.19 508.302C1172.44 510.796 1174.69 514.688 1175.18 516.951C1176.8 524.355 1170.84 530.88 1165.32 527.736ZM883.944 526.813C883.944 526.046 884.572 525.417 885.341 525.417C886.109 525.417 886.738 526.046 886.738 526.813C886.738 527.582 886.109 528.21 885.341 528.21C884.572 528.21 883.944 527.582 883.944 526.813ZM1253.42 526.802C1252.94 526.026 1252.94 524.169 1253.4 522.674C1253.88 521.178 1253.3 518.486 1252.12 516.681C1250.17 513.713 1250.19 513.091 1252.32 510.058C1253.61 508.218 1255.13 503.276 1255.69 499.076C1256.4 493.894 1257.79 490.385 1260.02 488.156C1263.06 485.107 1263.83 484.972 1270.69 486.272C1276.57 487.387 1278.89 487.25 1282.09 485.593C1287.45 482.82 1287.84 482.944 1286.07 486.853C1283.8 491.822 1279.28 493.41 1274.5 490.911C1265.98 486.448 1254.69 493.08 1260.65 499.043C1262.84 501.234 1264.06 501.434 1268.11 500.269C1275.07 498.274 1277.81 498.641 1273.49 500.988C1268.6 503.645 1267.67 506.595 1270.19 511.469C1271.34 513.687 1272.28 517.126 1272.28 519.111C1272.28 522.29 1271.94 522.543 1269.48 521.226C1267.95 520.403 1265.72 517.431 1264.55 514.622C1262.43 509.554 1262.4 509.536 1259.69 512.246C1257.31 514.623 1257.15 515.679 1258.45 520.391C1259.63 524.648 1259.55 526.055 1258.08 526.986C1255.61 528.549 1254.46 528.504 1253.41 526.802H1253.42ZM1445.07 519.351C1443.76 517.342 1440.75 514.695 1438.37 513.471C1436 512.246 1434.38 510.93 1434.76 510.546C1436.94 508.373 1449.06 518.238 1448.02 521.337C1447.71 522.289 1446.45 521.436 1445.07 519.351ZM1225.71 514.703C1223.61 513.599 1220.77 513.049 1219.39 513.482C1215.93 514.584 1202.11 511.776 1200.75 509.687C1199.67 508.026 1196.46 497.793 1194.76 490.499C1194.29 488.494 1194.76 485.891 1195.85 484.386C1197.45 482.202 1198.28 482.036 1200.81 483.391C1203.49 484.821 1204.05 484.576 1205.51 481.361C1206.43 479.35 1209.48 476.531 1212.3 475.097C1215.27 473.578 1218.13 470.734 1219.15 468.286C1220.32 465.463 1222.45 463.566 1225.65 462.512C1228.27 461.648 1232.05 458.792 1234.05 456.166C1236.06 453.539 1238.44 451.391 1239.35 451.391C1240.26 451.391 1243.01 453.466 1245.47 456.001L1249.95 460.612L1246.36 465.43C1242.29 470.902 1242.51 475.609 1247.12 482.084L1249.91 486.005L1246.43 488.285C1244.52 489.538 1242.96 491.335 1242.96 492.277C1242.97 495.476 1234.01 513.916 1231.78 515.316C1230.21 516.292 1228.4 516.109 1225.71 514.703ZM1306.86 514.678C1303.97 513.922 1303.57 511.45 1306.34 511.45C1307.39 511.45 1310.35 511.868 1312.9 512.38C1316.84 513.166 1317.14 513.473 1314.83 514.376C1311.79 515.563 1310.44 515.614 1306.86 514.678ZM1529.31 496.867C1529.31 496.529 1529.95 495.863 1530.72 495.387C1531.49 494.913 1532.11 495.19 1532.11 496.004C1532.11 496.817 1531.49 497.483 1530.72 497.483C1529.95 497.483 1529.31 497.205 1529.31 496.867ZM1301.96 493.079C1300.85 491.963 1300.78 490.668 1301.75 488.859C1302.52 487.425 1302.78 485.649 1302.32 484.912C1301.06 482.874 1304.21 477.929 1306.78 477.929C1308.82 477.929 1308.82 478.169 1306.68 480.527C1304.84 482.566 1304.64 483.915 1305.74 486.799C1307.95 492.631 1305.53 496.65 1301.96 493.079ZM600.371 488.487C600.371 488.148 601 487.482 601.767 487.008C602.536 486.532 603.164 486.81 603.164 487.624C603.164 488.437 602.536 489.102 601.767 489.102C601 489.102 600.371 488.825 600.371 488.487ZM1569.13 484.912C1568.65 484.145 1568.93 483.515 1569.75 483.515C1570.55 483.515 1571.23 484.145 1571.23 484.912C1571.23 485.681 1570.94 486.309 1570.61 486.309C1570.27 486.309 1569.61 485.681 1569.13 484.912ZM608.753 471.726C608.753 471.387 609.381 470.721 610.15 470.247C610.917 469.771 611.546 470.049 611.546 470.863C611.546 471.677 610.917 472.341 610.15 472.341C609.381 472.341 608.753 472.064 608.753 471.726ZM1280.68 450.726C1278.01 444.511 1277.66 444.232 1273.56 445.132C1269.47 446.03 1269.33 445.92 1270.86 443.059C1272.13 440.689 1273.3 440.22 1276.31 440.88C1279.21 441.516 1281.06 440.873 1283.9 438.243C1285.96 436.329 1287.66 433.634 1287.69 432.253C1287.72 428.727 1292.91 440.55 1294.1 446.871C1295 451.671 1294.88 451.931 1292.7 450.123C1289.46 447.439 1286.34 450.223 1289 453.427C1290.06 454.705 1290.19 455.582 1289.33 455.582C1288.54 455.582 1286.89 455.96 1285.68 456.425C1284.06 457.047 1282.75 455.553 1280.68 450.726ZM1025.98 453.194C1024.42 450.657 1023.53 439.276 1024.67 436.256C1025.86 433.052 1025.94 433.091 1029.5 438.35C1033.77 444.653 1035.13 448.695 1033.73 450.854C1032.38 452.92 1026.84 454.593 1025.98 453.194ZM1337.94 445.97C1337.94 445.201 1338.57 444.184 1339.34 443.71C1340.11 443.234 1340.73 443.474 1340.73 444.243C1340.73 445.01 1340.11 446.027 1339.34 446.503C1338.57 446.977 1337.94 446.737 1337.94 445.97ZM1557.26 445.804C1557.26 445.036 1557.53 444.407 1557.87 444.407C1558.2 444.407 1558.88 445.036 1559.35 445.804C1559.82 446.573 1559.54 447.201 1558.74 447.201C1557.92 447.201 1557.26 446.573 1557.26 445.804ZM1240.15 437.735C1240.15 437.138 1242.96 433.524 1246.37 429.704C1251.4 424.106 1252.62 423.315 1252.67 425.628C1252.7 427.207 1250.6 430.821 1247.99 433.659C1243.59 438.473 1240.15 440.258 1240.15 437.735ZM1270.41 434.008C1269.9 432.682 1270 430.668 1270.64 429.534C1271.62 427.775 1272.04 427.758 1273.41 429.419C1274.65 430.907 1274.59 431.965 1273.19 433.893C1271.45 436.26 1271.28 436.268 1270.41 434.008ZM200.672 428.565C201.527 427.535 201.814 426.278 201.308 425.772C200.803 425.267 201.692 424.853 203.286 424.853C205.493 424.853 206.007 425.517 205.45 427.647C205.027 429.269 203.545 430.44 201.917 430.44C199.733 430.44 199.458 430.028 200.672 428.565ZM1279.79 428.196C1279.27 426.742 1278.58 425.08 1278.27 424.504C1277.96 423.929 1278.3 423.457 1279.03 423.457C1280.41 423.457 1282.38 429.192 1281.35 430.231C1281 430.565 1280.31 429.65 1279.79 428.196ZM1265.63 424.552C1263.67 422.188 1265.58 418.823 1268.51 419.478C1270.35 419.889 1270.42 420.469 1268.94 423.202C1267.52 425.838 1266.91 426.089 1265.63 424.552ZM1282.14 419.752C1280.54 417.714 1279.47 415.814 1279.75 415.529C1280.89 414.393 1284.81 416.895 1286.91 420.083C1290.11 424.985 1286.04 424.701 1282.14 419.752ZM1259.18 414.345C1257.94 413.101 1256.92 411.36 1256.92 410.477C1256.92 409.592 1258.3 410.248 1259.99 411.934C1261.67 413.62 1262.68 415.361 1262.25 415.803C1261.81 416.244 1260.42 415.589 1259.18 414.345ZM162.672 414.145C162.16 413.633 161.742 412.565 161.742 411.77C161.742 410.895 162.392 410.978 163.394 411.981C164.303 412.889 164.722 413.958 164.326 414.354C163.929 414.752 163.185 414.657 162.672 414.145ZM154.756 412.282C154.756 411.515 155.034 410.886 155.373 410.886C155.712 410.886 156.378 411.515 156.852 412.282C157.328 413.051 157.05 413.68 156.236 413.68C155.422 413.68 154.756 413.051 154.756 412.282ZM220.412 409.489C220.412 408.722 220.689 408.093 221.028 408.093C221.366 408.093 222.032 408.722 222.506 409.489C222.982 410.258 222.705 410.886 221.891 410.886C221.078 410.886 220.412 410.258 220.412 409.489ZM1273.23 409.276C1271.83 408.488 1269.18 408.219 1267.33 408.683C1264.62 409.361 1262.77 408.273 1257.7 403.064C1250.55 395.706 1249.15 392.603 1251.26 388.683C1252.06 387.168 1252.72 384.039 1252.72 381.729C1252.72 374.148 1257.81 374.454 1261.52 382.26C1263.59 386.585 1263.61 387.513 1261.67 392.152C1259.58 397.147 1259.62 397.369 1263.35 401.254C1266.03 404.06 1268.05 405.013 1270.17 404.48C1271.97 404.029 1273.91 404.587 1274.96 405.861C1277.48 408.892 1276.38 411.054 1273.23 409.276ZM212.03 400.493C212.03 400.155 212.659 399.489 213.427 399.014C214.195 398.54 214.825 398.816 214.825 399.63C214.825 400.444 214.195 401.109 213.427 401.109C212.659 401.109 212.03 400.833 212.03 400.493ZM431.345 395.523C431.345 394.754 431.973 394.126 432.742 394.126C433.51 394.126 434.139 394.754 434.139 395.523C434.139 396.29 433.51 396.919 432.742 396.919C431.973 396.919 431.345 396.29 431.345 395.523ZM207.839 390.101C207.839 389.332 208.468 388.315 209.236 387.841C210.005 387.365 210.633 387.605 210.633 388.374C210.633 389.142 210.005 390.159 209.236 390.634C208.468 391.108 207.839 390.868 207.839 390.101ZM195.975 384.365C195.487 383.573 196.047 383.339 197.29 383.815C199.71 384.745 200.153 385.745 198.143 385.745C197.42 385.745 196.445 385.124 195.975 384.365ZM418.074 384.349C417.6 383.58 417.876 382.952 418.69 382.952C419.504 382.952 420.17 383.58 420.17 384.349C420.17 385.117 419.893 385.745 419.553 385.745C419.215 385.745 418.549 385.117 418.074 384.349ZM201.553 381.555C201.079 380.787 201.355 380.159 202.169 380.159C202.983 380.159 203.649 380.787 203.649 381.555C203.649 382.323 203.372 382.952 203.033 382.952C202.694 382.952 202.028 382.323 201.553 381.555ZM207.839 381.555C207.839 380.787 208.117 380.159 208.455 380.159C208.794 380.159 209.46 380.787 209.935 381.555C210.409 382.323 210.133 382.952 209.319 382.952C208.505 382.952 207.839 382.323 207.839 381.555ZM111.801 377.836C110.841 377.449 110.056 376.557 110.056 375.852C110.056 373.838 116.222 374.357 119.218 376.623C121.794 378.571 121.72 378.67 117.739 378.607C115.434 378.57 112.762 378.224 111.801 377.836ZM147.15 377.045C145.896 376.344 143.129 376.152 140.999 376.62C138.868 377.088 135.592 376.857 133.719 376.108C130.705 374.902 130.971 374.76 136.025 374.878C143.452 375.052 145.434 373.843 143.537 370.297C142.188 367.779 142.594 367.588 149.258 367.588C155.705 367.588 165.005 370.544 166.58 373.094C167.628 374.79 149.652 378.444 147.15 377.045ZM173.945 377.927C172.289 376.273 174.347 374.572 178.004 374.572C180.201 374.572 181.314 375.23 180.955 376.318C180.312 378.273 175.415 379.397 173.945 377.927ZM1184.57 375.706C1180.87 372.008 1184.54 367.588 1191.3 367.588C1194.3 367.588 1194.3 367.613 1191.73 372.015C1188.73 377.148 1186.94 378.071 1184.57 375.706ZM185.489 375.419C185.489 375.117 186.431 374.508 187.585 374.066C188.737 373.624 189.679 373.871 189.679 374.616C189.679 375.36 188.737 375.969 187.585 375.969C186.431 375.969 185.489 375.722 185.489 375.419ZM125.104 365.407C124.672 364.977 121.723 364.588 118.55 364.544C114.173 364.484 113.122 364.053 114.196 362.759C115.235 361.509 113.745 359.844 108.609 356.518C98.5392 349.993 92.9176 348.719 86.1522 351.425C79.8092 353.963 79.3242 354.034 79.3242 352.437C79.3242 349.513 90.4409 346.298 98.4469 346.907C106.103 347.489 110.389 349.117 125.422 357.159C137.778 363.768 137.791 363.78 133.803 364.918C129.274 366.209 126.084 366.388 125.104 365.407ZM135.2 353.62C137.908 351.871 139.391 351.871 139.391 353.62C139.391 354.389 137.977 355.008 136.248 354.996C133.706 354.979 133.506 354.715 135.2 353.62ZM1247.7 351.144C1246.86 350.586 1245.4 348.683 1244.47 346.915C1243.06 344.251 1243.22 342.957 1245.32 339.345C1248.57 333.767 1250.77 333.072 1251.84 337.284C1252.95 341.716 1249.73 352.487 1247.7 351.144ZM144.372 349.283C145.304 347.774 150.567 347.603 150.565 349.082C150.565 349.658 148.998 350.219 147.083 350.33C145.167 350.44 143.947 349.969 144.372 349.283ZM116.749 335.821C114.515 333.257 114.84 329.876 117.32 329.876C118.114 329.876 118.442 331.104 118.05 332.603C117.658 334.103 118.056 335.588 118.934 335.904C119.813 336.22 120.162 336.882 119.709 337.376C119.256 337.869 117.924 337.171 116.749 335.821ZM124.864 324.848C124.366 323.553 124.273 322.179 124.658 321.795C125.042 321.41 125.762 322.157 126.26 323.451C126.757 324.748 126.849 326.122 126.465 326.505C126.081 326.889 125.36 326.144 124.864 324.848ZM116.109 323.591C116.109 322.439 117.306 321.497 118.77 321.497C121.134 321.497 121.198 321.73 119.335 323.591C118.182 324.744 116.985 325.686 116.674 325.686C116.363 325.686 116.109 324.744 116.109 323.591ZM1287.65 292.97C1287.65 291.878 1286.13 289.169 1284.26 286.953C1279.83 281.692 1281.41 278.181 1286.65 281.616C1290.41 284.086 1292.38 289.13 1290.99 292.753C1289.93 295.5 1287.65 295.649 1287.65 292.97ZM203.649 284.566C203.649 284.227 204.277 283.562 205.046 283.086C205.814 282.612 206.442 282.889 206.442 283.702C206.442 284.516 205.814 285.182 205.046 285.182C204.277 285.182 203.649 284.905 203.649 284.566ZM1295.43 282.849C1294.53 280.489 1296.66 278.259 1299.87 278.22C1302.09 278.193 1302.14 281.315 1299.94 283.506C1297.67 285.783 1296.5 285.612 1295.43 282.849ZM1308.2 277.75C1305.49 273.613 1301.65 273.044 1292.88 275.48C1289.32 276.47 1286.86 276.48 1285.2 275.514C1283.85 274.733 1283.5 274.074 1284.4 274.05C1285.3 274.028 1287.93 272.415 1290.25 270.467C1293.23 267.955 1295.42 267.169 1297.79 267.761C1300.28 268.388 1302.98 267.188 1308.66 262.923C1319.7 254.62 1320.71 252.002 1316.21 243.13C1311.9 234.616 1313.1 231.874 1319.49 235.652C1324.15 238.4 1328.53 246.274 1327.26 249.593C1326.8 250.789 1327.49 254.538 1328.78 257.926C1330.61 262.721 1330.79 264.736 1329.56 267.019C1327.77 270.371 1322.78 272.611 1317.1 272.611C1313.92 272.611 1312.96 273.427 1311.92 277.053L1310.66 281.493L1308.2 277.75ZM742.297 272.983C740.629 271.316 741.516 269.818 744.17 269.818C745.662 269.818 747.27 269.19 747.745 268.421C749.043 266.321 751.257 266.742 750.418 268.931C749.557 271.175 743.508 274.194 742.297 272.983ZM694.663 270.566L690.471 268.648L696.06 268.554C703.019 268.436 708.145 269.741 707.136 271.373C706.013 273.192 699.472 272.768 694.663 270.566ZM638.232 256.634C632.642 253.772 632.378 253.415 635.297 252.651C638.792 251.738 646.529 252.875 646.371 254.28C646.317 254.76 645.845 256.193 645.323 257.464C644.465 259.555 643.785 259.476 638.232 256.634ZM610.232 241.523C609.024 238.055 609.119 236.728 610.69 235.157C613.53 232.318 615.737 234.313 615.737 239.721C615.737 246.109 612.232 247.256 610.232 241.523ZM577.476 242.683C578.467 240.102 582.718 239.664 581.863 242.233C581.543 243.193 580.236 244.182 578.957 244.429C577.337 244.743 576.888 244.215 577.476 242.683ZM1307.37 226.741C1304.81 223.151 1304.74 222.488 1306.62 219.793C1308.48 217.145 1308.48 216.352 1306.56 212.657C1303.42 206.581 1303.87 206.214 1309.31 210.369C1312 212.425 1317.33 215.029 1321.12 216.158C1328.99 218.492 1330.88 220.324 1326.79 221.625C1325.24 222.116 1323.97 223.43 1323.97 224.545C1323.97 226.064 1323 226.326 1320.13 225.59C1312.76 223.704 1310.67 224.165 1311.14 227.567C1311.72 231.736 1310.77 231.53 1307.37 226.741ZM612.477 228.382C610.857 226.762 611.468 224.055 613.641 223.221C615.155 222.641 615.737 223.374 615.737 225.865C615.737 229.217 614.37 230.273 612.477 228.382ZM1298.5 198.935C1297.31 197.59 1294.46 192.718 1292.16 188.107C1289.85 183.496 1283.75 175.03 1278.6 169.292C1272.85 162.881 1269.93 158.631 1271.02 158.267C1272 157.94 1274.1 159.401 1275.69 161.512C1279.53 166.63 1284.27 171.073 1291.73 176.576C1297.92 181.137 1300.98 185.358 1296.98 183.826C1292.38 182.058 1293.53 186.253 1299.49 192.963C1302.97 196.875 1305.81 200.368 1305.81 200.728C1305.81 202.426 1300.41 201.101 1298.5 198.935ZM276.288 196.49C276.288 195.337 276.896 194.395 277.641 194.395C278.385 194.395 278.633 195.337 278.19 196.49C277.748 197.642 277.139 198.585 276.837 198.585C276.536 198.585 276.288 197.642 276.288 196.49ZM268.988 191.984L263.784 191.437L273.578 181.742C278.964 176.41 284.074 172.048 284.934 172.048C285.843 172.048 285.571 173.074 284.286 174.493C281.378 177.706 283.361 181.315 288.675 182.483C290.996 182.992 293.308 184.77 294.201 186.73C295.636 189.879 295.393 190.199 290.553 191.542C285.476 192.953 279.414 193.076 268.988 191.984ZM-71.3945 181.962C-76.2331 177.444 -76.7736 175.539 -73.5648 174.307C-70.6907 173.205 -65.3873 176.799 -63.3766 181.211C-61.2666 185.841 -61.3045 186.015 -64.4104 186.015C-65.8651 186.015 -69.0089 184.191 -71.3945 181.962ZM543.796 174.867C545.333 174.109 548.357 172.852 550.516 172.072C555.273 170.356 554.484 168.528 548.467 167.325C544.34 166.5 544.195 166.29 546.556 164.563C547.962 163.535 548.702 162.032 548.202 161.222C547.691 160.394 549.127 159.11 551.481 158.289C553.785 157.486 555.67 156.209 555.67 155.451C555.67 152.225 552.758 146.798 551.14 147.009C547.411 147.495 545.684 146.837 546.285 145.16C546.629 144.2 546.345 142.315 545.653 140.97C543.855 137.475 547.988 130.246 551.828 130.167C552.404 130.157 552.719 130.917 552.527 131.859C552.335 132.801 553.653 133.796 555.456 134.069L558.734 134.566L555.602 137.9L552.469 141.234L556.001 142.576C559.792 144.018 563.444 148.712 567.165 156.922C568.947 160.856 570.12 161.883 572.2 161.339C576.469 160.223 576.975 163.115 572.97 165.74C570.257 167.517 569.742 168.519 570.93 169.707C572.118 170.896 569.775 171.693 561.65 172.865C555.672 173.728 548.581 174.841 545.891 175.339C542.151 176.032 541.659 175.92 543.796 174.867ZM520.238 167.15C519.761 165.906 520.306 163.076 521.451 160.865C522.764 158.326 523.018 156.525 522.139 155.982C519.718 154.486 520.626 152.577 524.182 151.685C526.072 151.21 528.348 149.941 529.243 148.865C531.103 146.623 539.709 146.21 541 148.301C541.475 149.068 540.883 151.093 539.686 152.802C538.489 154.511 537.51 157.58 537.51 159.622C537.51 162.737 536.552 163.669 531.574 165.397C528.308 166.53 524.617 167.898 523.373 168.436C521.912 169.067 520.799 168.611 520.238 167.15ZM545.891 153.274C545.891 152.936 546.52 152.27 547.289 151.796C548.057 151.32 548.686 151.597 548.686 152.411C548.686 153.224 548.057 153.89 547.289 153.89C546.52 153.89 545.891 153.613 545.891 153.274ZM-74.0568 146.545C-75.4253 144.897 -75.3389 144.128 -73.6216 142.703C-70.783 140.347 -69.3743 141.945 -71.0266 145.648C-72.1656 148.201 -72.5808 148.324 -74.0568 146.545ZM-76.2414 136.04C-76.7133 135.277 -76.1633 133.876 -75.0196 132.926C-72.7487 131.043 -72.2744 132.52 -74.1834 135.533C-74.9132 136.684 -75.721 136.883 -76.2414 136.04ZM-166.532 135.15C-166.532 134.167 -162.297 132.449 -156.288 130.993C-154.01 130.442 -152.663 130.574 -153.116 131.306C-153.548 132.006 -155.644 132.93 -157.773 133.359C-159.901 133.79 -162.743 134.567 -164.088 135.086C-165.432 135.606 -166.532 135.635 -166.532 135.15ZM663.581 119.444C661.004 118.404 661.46 116.802 664.396 116.581C665.805 116.474 666.957 117.283 666.957 118.378C666.957 120.458 666.473 120.611 663.581 119.444ZM356.61 112.305C347.77 107.485 343.545 100.08 346.106 93.8973C347.318 90.9711 347.355 89.131 346.244 87.0545C343.931 82.7328 346.949 77.6683 354.667 72.9199C358.333 70.6646 361.993 67.5848 362.8 66.0759C365.038 61.8954 363.045 54.7315 359.152 52.9575C357.18 52.0597 356.108 50.6399 356.544 49.5053C357.535 46.9215 352.884 38.0966 348.253 33.7727C344.843 30.5903 343.376 30.2734 331.702 30.197C315.806 30.093 312.845 29.2093 313.107 24.6487C313.217 22.7543 313.637 21.2038 314.042 21.2032C314.445 21.2028 320.103 20.5471 326.613 19.7464C334.925 18.7241 342.379 16.6156 351.645 12.665C365.99 6.54831 367.083 6.42879 401.312 7.23321C412.12 7.48723 422.063 6.68742 434.837 4.53655C446.733 2.53352 455.486 1.77845 460.213 2.34757C464.228 2.83113 470.043 2.51219 473.326 1.62834C480.944 -0.422732 500.737 2.04451 508.522 6.01557C513.124 8.36322 515.559 8.67323 523.325 7.90017C531.715 7.06514 532.349 7.17499 529.827 9.02657C528.291 10.155 523.576 11.5334 519.35 12.0896C510.18 13.2968 501.756 19.8313 503.989 24.0036C504.951 25.8034 504.261 27.3395 501.146 30.323C498.884 32.4909 496.7 35.308 496.296 36.5834C495.323 39.6473 482.974 45.3496 476.85 45.5622C470.05 45.7984 469.338 47.244 474.597 50.1405C477.082 51.5088 480.709 53.8403 482.658 55.3216L486.2 58.0148L482.997 59.1993C480.542 60.1073 478.551 59.5219 474.466 56.6914C468.923 52.8502 462.958 52.831 466.139 56.6644C467.38 58.1595 467.082 58.7401 464.759 59.3474C459.568 60.7047 463.241 63.3887 468.965 62.4216C472.609 61.8061 474.659 62.1305 475.798 63.5032C477.153 65.1366 475.385 65.8929 465.211 68.031C458.493 69.4429 449.54 70.6496 445.314 70.7127C437.464 70.83 431.807 73.0833 423.485 79.4073C420.772 81.4695 415.005 83.5132 408.257 84.8042C394.153 87.5023 389.386 90.6228 380.888 102.722C374.063 112.44 369.947 116.063 365.69 116.097C364.538 116.106 360.452 114.4 356.61 112.305ZM257.563 102.964C254.562 101.121 250.887 97.6837 249.394 95.3256C246.478 90.7219 243.79 90.137 235.92 92.3939C233.256 93.1578 230.267 93.2315 229.071 92.5625C224.935 90.2479 232.406 87.9715 240.728 89.0111C247.057 89.8016 248.462 89.5763 249.2 87.6535C250.683 83.7898 257.47 81.0209 261.243 82.7401C263.566 83.7984 265.678 83.7688 268.644 82.6366C272.636 81.1133 272.692 80.9758 270.084 79.0616C268.592 77.9667 266.89 77.0709 266.301 77.0709C265.712 77.0709 263.586 74.2651 261.576 70.8357C259.565 67.4063 255.798 63.2888 253.205 61.6856C248.795 58.961 248.212 58.9131 244.268 60.9523C240.82 62.7349 238.828 62.8596 233.374 61.635C229.702 60.8106 224.575 60.533 221.981 61.018C217.481 61.8593 209.236 59.6574 209.236 57.6144C209.236 53.8611 221.067 45.4378 228.095 44.1876L233.682 43.1934L229.688 47.4482C224.179 53.3175 226.25 56.0186 232.233 50.7663C234.772 48.5382 239.157 46.2821 241.98 45.7525C246.294 44.9434 248.143 45.471 253.558 49.0582C260.766 53.8311 261.321 53.959 265.385 51.7843C267.833 50.4747 268.74 50.8343 271.398 54.1669C273.236 56.4722 277.341 58.9822 281.345 60.2487C287.726 62.2673 288.162 62.7064 288.162 67.1063C288.162 70.4058 289.113 72.4878 291.354 74.0899C300.729 80.7934 300.524 80.5165 298.496 83.7642C295.714 88.2171 293.519 88.5398 287.362 85.3998C283.08 83.2155 281.21 82.9159 279.054 84.0695C276.416 85.4811 276.388 85.7826 278.511 89.8884C280.254 93.2581 280.413 94.9596 279.229 97.5584C277.769 100.761 277.537 100.81 273.574 98.7616C265.784 94.7338 260.539 97.3842 267.806 101.676C270.083 103.021 271.628 104.634 271.24 105.262C269.887 107.45 262.975 106.289 257.563 102.964ZM544.494 104.772C544.494 104.132 545.438 103.609 546.59 103.609C547.742 103.609 548.686 104.132 548.686 104.772C548.686 105.413 547.742 105.936 546.59 105.936C545.438 105.936 544.494 105.413 544.494 104.772ZM204.893 97.261C202.138 95.8133 200 95.6894 196.143 96.7542C189.586 98.5643 187.294 97.2396 190.621 93.5634C194.88 88.8573 197.769 87.9317 202.907 89.6271C208.69 91.5352 211.256 94.3714 209.696 97.1295C208.701 98.8879 208.023 98.9065 204.893 97.261ZM482.332 96.6249C480.027 95.1097 477.093 94.2013 475.813 94.6065C474.049 95.1644 473.657 94.6801 474.199 92.6098C475.03 89.4321 487.304 84.8458 491.453 86.1623C492.899 86.6214 496.596 86.2439 499.668 85.3237C504.491 83.8788 505.77 83.9882 509.031 86.1243L512.807 88.5981L509.443 91.2192C506.604 93.4315 501.338 95.3509 488.619 98.8102C487.466 99.1236 484.636 98.1403 482.332 96.6249ZM103.071 70.5518C101.151 70.2482 96.4717 68.6055 92.6739 66.901L85.7678 63.8022L95.4676 63.1037C100.802 62.7196 105.166 61.7769 105.166 61.0087C105.166 60.2405 101.394 59.2751 96.7851 58.8633C90.6987 58.3197 89.5515 57.9373 92.5947 57.4667C97.6899 56.6786 98.0566 54.4722 93.2925 53.2692C89.8625 52.4029 89.8874 52.35 94.713 50.271C103.076 46.6682 111.985 45.978 119.877 48.3214C126.356 50.2455 127.369 50.2373 130.424 48.2358C132.585 46.8204 133.867 46.5835 133.978 47.5792C134.074 48.4358 134.231 49.8699 134.327 50.7661C134.651 53.7919 137.437 53.4004 140.762 49.8617C143.841 46.5859 149.176 45.0166 149.164 47.3907C149.161 47.9669 147.919 50.4723 146.403 52.9583L143.646 57.4784L148.154 59.8299L152.662 62.1813L145.26 65.559C138.581 68.607 137.211 68.7814 131.224 67.3454C125.419 65.9532 123.754 66.1123 117.905 68.6191C111.3 71.4504 109.907 71.6319 103.071 70.5518ZM159.096 69.5677C157.834 68.0476 158.355 67.2997 161.616 65.9491C163.886 65.0092 167.141 64.6958 168.885 65.2495C171.911 66.2097 171.841 66.3606 167.243 68.8096C161.375 71.934 161.083 71.9612 159.096 69.5677ZM544.494 63.1037C547.203 61.3537 548.686 61.3537 548.686 63.1037C548.686 63.8719 547.271 64.4908 545.542 64.4791C543 64.4618 542.8 64.1986 544.494 63.1037ZM800.827 59.2288C793.686 56.4082 793.833 56.5624 795.911 54.0589C796.882 52.888 797.129 51.91 796.458 51.8856C795.788 51.8611 796.497 50.8913 798.034 49.7304C799.57 48.5695 800.838 47.1753 800.851 46.6322C800.9 44.5664 806.587 39.1184 810.606 37.2877C812.91 36.2377 818.882 35.0542 823.877 34.6578C828.87 34.2614 835.56 33.5351 838.742 33.0439C842.128 32.521 844.887 32.7348 845.397 33.5595C846.387 35.1619 844.497 35.8429 833.655 37.7905C822.896 39.7231 816.429 42.7347 812.17 47.7959C807.683 53.1277 807.532 56.4941 811.653 59.3683L814.797 61.5606L810.606 61.4981C808.301 61.4638 803.9 60.4424 800.827 59.2288ZM69.2023 55.1791C66.9503 52.9265 67.4637 52.4362 78.2716 46.52C90.9365 39.5882 97.2996 38.668 108.659 42.126L114.945 44.0395L106.563 45.7012C99.7089 47.0602 85.1824 51.9172 73.7109 56.6855C72.5412 57.172 70.5211 56.497 69.2023 55.1791ZM170.123 53.3713C170.123 52.6277 168.395 51.0272 166.281 49.8147L162.439 47.61L167.583 48.4187C171.238 48.9935 173.058 48.6511 173.87 47.2362C174.835 45.5535 183.725 42.1863 187.271 42.1608C187.867 42.156 187.38 44.0364 186.19 46.3383C183.386 51.7601 170.123 57.5657 170.123 53.3713ZM191.872 49.2932C189.871 46.0554 203.539 41.0434 209.346 42.886C213.577 44.229 210.749 46.5365 203.367 47.7634C200.065 48.3123 196.326 49.203 195.06 49.7427C193.793 50.2823 192.358 50.08 191.872 49.2932ZM236.476 39.0081C227.256 38.2749 219.541 37.5154 219.331 37.3204C218.082 36.1616 221.197 32.3895 224.55 31.0009C227.847 29.6356 229.365 29.8168 233.879 32.1134C238.277 34.3519 241.113 34.7241 249.285 34.1351C254.793 33.7383 261.079 33.8637 263.254 34.4141L267.208 35.4148L262.319 38.027C259.629 39.4637 256.487 40.5722 255.335 40.4902C254.182 40.4083 245.695 39.7414 236.476 39.0081ZM638.475 33.2999C631.613 29.7874 630.952 28.1944 636.342 28.1645C638.454 28.1527 641.126 27.4649 642.278 26.636C644.09 25.3332 644.065 25.2266 642.099 25.8498C640.848 26.2464 639.094 25.8392 638.2 24.9458C636.964 23.7101 636.32 23.7319 635.514 25.037C634.766 26.2453 633.233 26.3883 630.333 25.52C622.967 23.3144 621.324 22.3352 621.324 20.1482C621.324 18.296 623.172 18.1263 634.596 18.9292C643.296 19.5406 647.866 19.3712 647.866 18.437C647.866 15.6875 651.742 17.0451 652.77 20.1546L653.808 23.2973L654.427 20.1546C654.766 18.4263 655.944 17.012 657.043 17.012C658.142 17.012 659.041 16.2579 659.041 15.336C659.041 14.0324 659.413 14.0324 660.718 15.336C661.693 16.311 666.367 17.012 671.893 17.012C681.88 17.012 684.225 18.7974 677.565 21.3295C674.103 22.6453 668.083 22.2731 661.486 20.3353C660.141 19.9403 659.046 20.131 659.05 20.7589C659.06 22.0479 666.908 26.7892 669.033 26.7892C669.793 26.7892 671.298 27.6709 672.375 28.7485C674.057 30.43 674.043 30.82 672.276 31.4981C671.143 31.9327 670.217 31.6095 670.217 30.78C670.217 29.8048 668.44 29.6049 665.19 30.2145C661.67 30.8748 660.45 30.6936 661.119 29.6105C661.645 28.7596 661.316 27.1482 660.387 26.0296C658.596 23.8715 653.454 23.2108 653.454 25.1386C653.454 25.7673 651.411 28.5401 648.914 31.3003L644.374 36.3189L638.475 33.2999ZM267.906 30.2273C265.485 28.8058 262.059 28.3942 256.732 28.8842C251.751 29.3422 247.923 28.9474 245.849 27.7618C242.99 26.1274 243.689 25.941 252.413 26.0117C263.323 26.1001 268.114 23.7649 262.207 21.2393C259.4 20.0394 259.809 19.9304 264.621 20.5969C270.901 21.4668 273.342 19.7842 269.92 16.9445C266.272 13.9164 270.284 12.9763 283.268 13.8174C291.302 14.3379 296.351 14.046 298.415 12.9416C302.369 10.8259 300.817 8.13276 296.298 9.26685C293.174 10.0506 271.499 8.76449 272.414 7.84965C273.068 7.19587 303.777 4.35212 323.941 3.0781C334.4 2.41727 346.03 1.49544 349.784 1.02958L356.61 0.182556L345.342 5.59456C334.776 10.6687 317.596 15.6154 310.537 15.6154C308.819 15.6154 303.88 17.5009 299.56 19.8055C295.241 22.1102 290.841 23.9957 289.782 23.9957C288.723 23.9957 284.154 25.8733 279.627 28.1682C275.102 30.463 271.399 32.3263 271.399 32.3088C271.399 32.2913 269.827 31.3547 267.906 30.2273ZM240.666 17.4666C233.896 15.9689 233.648 15.4054 238.624 12.8272C245.875 9.06924 252.737 8.10605 255.858 10.4083C258.327 12.2311 258.184 12.5128 253.334 15.3747C248.277 18.3576 246.225 18.6964 240.666 17.4666Z" stroke="#B2F2C4" stroke-width="2" stroke-dasharray="2 2"/>
<g filter="url(#filter0_d_19723_38992)">
<path d="M5.52909 294.646C17.9401 294.646 28.0013 284.586 28.0013 272.177C28.0013 259.768 17.9401 249.708 5.52909 249.708C-6.88197 249.708 -16.9431 259.768 -16.9431 272.177C-16.9431 284.586 -6.88197 294.646 5.52909 294.646Z" fill="white"/>
<path d="M5.5292 293.464C17.287 293.464 26.8187 283.933 26.8187 272.177C26.8187 260.421 17.287 250.891 5.5292 250.891C-6.22864 250.891 -15.7603 260.421 -15.7603 272.177C-15.7603 283.933 -6.22864 293.464 5.5292 293.464Z" stroke="#CBF1D1" stroke-width="2"/>
</g>
<path d="M-3.35104 276.544C-3.70941 276.095 -3.69287 275.453 -3.31202 275.024L8.08376 262.158C8.58051 261.598 9.4652 261.633 9.91464 262.231L14.2648 268.023C14.6031 268.472 14.577 269.096 14.2057 269.517L2.94708 282.227C2.45979 282.777 1.59401 282.754 1.13629 282.179L-3.35104 276.544Z" fill="#9FFFB3"/>
<g filter="url(#filter1_d_19723_38992)">
<path d="M88.3213 140.91C100.732 140.91 110.794 130.85 110.794 118.441C110.794 106.032 100.732 95.9719 88.3213 95.9719C75.9103 95.9719 65.8491 106.032 65.8491 118.441C65.8491 130.85 75.9103 140.91 88.3213 140.91Z" fill="white"/>
<path d="M88.3214 139.727C100.079 139.727 109.611 130.197 109.611 118.441C109.611 106.685 100.079 97.1544 88.3214 97.1544C76.5636 97.1544 67.032 106.685 67.032 118.441C67.032 130.197 76.5636 139.727 88.3214 139.727Z" stroke="#CBF1D1" stroke-width="2"/>
</g>
<path d="M79.4412 122.808C79.0828 122.359 79.0994 121.717 79.4802 121.287L90.876 108.422C91.3728 107.862 92.2574 107.897 92.7069 108.496L97.057 114.286C97.3953 114.736 97.3693 115.36 96.9979 115.781L85.7393 128.491C85.252 129.041 84.3863 129.018 83.9285 128.443L79.4412 122.808Z" fill="#9FFFB3"/>
<g filter="url(#filter2_d_19723_38992)">
<path d="M731.736 351.41C744.147 351.41 754.208 341.35 754.208 328.941C754.208 316.532 744.147 306.472 731.736 306.472C719.325 306.472 709.264 316.532 709.264 328.941C709.264 341.35 719.325 351.41 731.736 351.41Z" fill="white"/>
<path d="M731.736 350.228C743.494 350.228 753.025 340.697 753.025 328.941C753.025 317.185 743.494 307.655 731.736 307.655C719.978 307.655 710.447 317.185 710.447 328.941C710.447 340.697 719.978 350.228 731.736 350.228Z" stroke="#CBF1D1" stroke-width="2"/>
</g>
<path d="M722.856 333.308C722.498 332.859 722.514 332.217 722.895 331.788L734.291 318.922C734.787 318.362 735.672 318.397 736.122 318.996L740.472 324.787C740.81 325.236 740.784 325.86 740.413 326.281L729.154 338.991C728.667 339.541 727.801 339.518 727.343 338.943L722.856 333.308Z" fill="#9FFFB3"/>
<g filter="url(#filter3_d_19723_38992)">
<path d="M261.002 554.815C273.414 554.815 283.475 544.755 283.475 532.345C283.475 519.936 273.414 509.876 261.002 509.876C248.591 509.876 238.53 519.936 238.53 532.345C238.53 544.755 248.591 554.815 261.002 554.815Z" fill="white"/>
<path d="M261.002 553.632C272.76 553.632 282.292 544.102 282.292 532.345C282.292 520.589 272.76 511.059 261.002 511.059C249.245 511.059 239.713 520.589 239.713 532.345C239.713 544.102 249.245 553.632 261.002 553.632Z" stroke="#CBF1D1" stroke-width="2"/>
</g>
<path d="M252.122 536.713C251.764 536.263 251.781 535.621 252.161 535.192L263.557 522.327C264.054 521.766 264.939 521.802 265.388 522.4L269.738 528.191C270.076 528.64 270.05 529.265 269.679 529.686L258.42 542.395C257.933 542.945 257.067 542.923 256.61 542.348L252.122 536.713Z" fill="#9FFFB3"/>
<g filter="url(#filter4_d_19723_38992)">
<path d="M697.437 671.89C709.848 671.89 719.909 661.831 719.909 649.421C719.909 637.012 709.848 626.952 697.437 626.952C685.026 626.952 674.964 637.012 674.964 649.421C674.964 661.831 685.026 671.89 697.437 671.89Z" fill="white"/>
<path d="M697.436 670.708C709.194 670.708 718.726 661.178 718.726 649.421C718.726 637.665 709.194 628.135 697.436 628.135C685.679 628.135 676.147 637.665 676.147 649.421C676.147 661.178 685.679 670.708 697.436 670.708Z" stroke="#CBF1D1" stroke-width="2"/>
</g>
<path d="M688.556 653.789C688.198 653.339 688.215 652.697 688.595 652.268L699.991 639.402C700.488 638.842 701.373 638.877 701.822 639.476L706.172 645.267C706.51 645.716 706.484 646.341 706.113 646.762L694.855 659.471C694.367 660.021 693.501 659.998 693.044 659.424L688.556 653.789Z" fill="#9FFFB3"/>
<g filter="url(#filter5_d_19723_38992)">
<path d="M614.644 234.334C627.055 234.334 637.116 224.274 637.116 211.865C637.116 199.456 627.055 189.396 614.644 189.396C602.233 189.396 592.172 199.456 592.172 211.865C592.172 224.274 602.233 234.334 614.644 234.334Z" fill="white"/>
<path d="M614.644 233.152C626.402 233.152 635.934 223.621 635.934 211.865C635.934 200.109 626.402 190.579 614.644 190.579C602.886 190.579 593.355 200.109 593.355 211.865C593.355 223.621 602.886 233.152 614.644 233.152Z" stroke="#CBF1D1" stroke-width="2"/>
</g>
<path d="M605.764 216.232C605.406 215.783 605.422 215.141 605.803 214.712L617.199 201.846C617.695 201.286 618.58 201.321 619.03 201.92L623.38 207.711C623.718 208.16 623.692 208.785 623.321 209.206L612.062 221.915C611.575 222.465 610.709 222.442 610.251 221.867L605.764 216.232Z" fill="#9FFFB3"/>
<g filter="url(#filter6_d_19723_38992)">
<path d="M1099.57 281.638C1111.98 281.638 1122.04 271.578 1122.04 259.169C1122.04 246.759 1111.98 236.699 1099.57 236.699C1087.16 236.699 1077.1 246.759 1077.1 259.169C1077.1 271.578 1087.16 281.638 1099.57 281.638Z" fill="white"/>
<path d="M1099.57 280.455C1111.33 280.455 1120.86 270.925 1120.86 259.169C1120.86 247.412 1111.33 237.882 1099.57 237.882C1087.81 237.882 1078.28 247.412 1078.28 259.169C1078.28 270.925 1087.81 280.455 1099.57 280.455Z" stroke="#CBF1D1" stroke-width="2"/>
</g>
<path d="M1090.69 263.536C1090.33 263.087 1090.35 262.444 1090.74 262.015L1102.13 249.15C1102.62 248.589 1103.51 248.625 1103.96 249.223L1108.31 255.014C1108.64 255.464 1108.62 256.088 1108.25 256.509L1096.99 269.218C1096.5 269.768 1095.63 269.746 1095.18 269.171L1090.69 263.536Z" fill="#9FFFB3"/>
<g filter="url(#filter7_d_19723_38992)">
<path d="M1016.78 364.418C1029.19 364.418 1039.25 354.359 1039.25 341.949C1039.25 329.54 1029.19 319.48 1016.78 319.48C1004.37 319.48 994.306 329.54 994.306 341.949C994.306 354.359 1004.37 364.418 1016.78 364.418Z" fill="white"/>
<path d="M1016.78 363.236C1028.54 363.236 1038.07 353.706 1038.07 341.949C1038.07 330.193 1028.54 320.663 1016.78 320.663C1005.02 320.663 995.489 330.193 995.489 341.949C995.489 353.706 1005.02 363.236 1016.78 363.236Z" stroke="#CBF1D1" stroke-width="2"/>
</g>
<path d="M1007.9 346.317C1007.54 345.867 1007.55 345.225 1007.94 344.796L1019.33 331.931C1019.83 331.37 1020.72 331.405 1021.17 332.004L1025.52 337.795C1025.85 338.244 1025.83 338.869 1025.46 339.29L1014.2 351.999C1013.7 352.549 1012.84 352.526 1012.39 351.952L1007.9 346.317Z" fill="#9FFFB3"/>
<g filter="url(#filter8_d_19723_38992)">
<path d="M709.264 92.4241C721.675 92.4241 731.736 82.3643 731.736 69.955C731.736 57.5457 721.675 47.4859 709.264 47.4859C696.853 47.4859 686.792 57.5457 686.792 69.955C686.792 82.3643 696.853 92.4241 709.264 92.4241Z" fill="white"/>
<path d="M709.264 91.2415C721.022 91.2415 730.554 81.7112 730.554 69.955C730.554 58.1988 721.022 48.6685 709.264 48.6685C697.506 48.6685 687.975 58.1988 687.975 69.955C687.975 81.7112 697.506 91.2415 709.264 91.2415Z" stroke="#CBF1D1" stroke-width="2"/>
</g>
<path d="M700.384 74.3219C700.025 73.8725 700.042 73.2312 700.423 72.8012L711.819 59.9358C712.315 59.3756 713.2 59.4113 713.65 60.0097L718 65.8004C718.338 66.2497 718.312 66.8742 717.941 67.2948L706.682 80.0049C706.195 80.5551 705.329 80.5324 704.871 79.9575L700.384 74.3219Z" fill="#9FFFB3"/>
<g filter="url(#filter9_d_19723_38992)">
<rect x="771" y="202" width="60" height="60" rx="30" fill="white"/>
<path d="M782 250.73H821V211.73H782V250.73Z" fill="black"/>
</g>
<g filter="url(#filter10_d_19723_38992)">
<rect x="123" y="380" width="60" height="60" rx="30" fill="white"/>
<path d="M134 428.73H173V389.73H134V428.73Z" fill="black"/>
</g>
<g filter="url(#filter11_d_19723_38992)">
<rect x="1094" y="452" width="60" height="60" rx="30" fill="white"/>
<path d="M1105 500.73H1144V461.73H1105V500.73Z" fill="black"/>
</g>
<g filter="url(#filter12_d_19723_38992)">
<rect x="617" y="759" width="60" height="60" rx="30" fill="white"/>
<path d="M628 807.73H667V768.73H628V807.73Z" fill="black"/>
</g>
<defs>
<filter id="filter0_d_19723_38992" x="-30.9431" y="242.708" width="66.9443" height="66.9382" filterUnits="userSpaceOnUse" color-interpolation-filters="sRGB">
<feFlood flood-opacity="0" result="BackgroundImageFix"/>
<feColorMatrix in="SourceAlpha" type="matrix" values="0 0 0 0 0 0 0 0 0 0 0 0 0 0 0 0 0 0 127 0" result="hardAlpha"/>
<feOffset dx="-3" dy="4"/>
<feGaussianBlur stdDeviation="5.5"/>
<feColorMatrix type="matrix" values="0 0 0 0 0 0 0 0 0 0 0 0 0 0 0 0 0 0 0.12 0"/>
<feBlend mode="normal" in2="BackgroundImageFix" result="effect1_dropShadow_19723_38992"/>
<feBlend mode="normal" in="SourceGraphic" in2="effect1_dropShadow_19723_38992" result="shape"/>
</filter>
<filter id="filter1_d_19723_38992" x="51.8491" y="88.9719" width="66.9443" height="66.9382" filterUnits="userSpaceOnUse" color-interpolation-filters="sRGB">
<feFlood flood-opacity="0" result="BackgroundImageFix"/>
<feColorMatrix in="SourceAlpha" type="matrix" values="0 0 0 0 0 0 0 0 0 0 0 0 0 0 0 0 0 0 127 0" result="hardAlpha"/>
<feOffset dx="-3" dy="4"/>
<feGaussianBlur stdDeviation="5.5"/>
<feColorMatrix type="matrix" values="0 0 0 0 0 0 0 0 0 0 0 0 0 0 0 0 0 0 0.12 0"/>
<feBlend mode="normal" in2="BackgroundImageFix" result="effect1_dropShadow_19723_38992"/>
<feBlend mode="normal" in="SourceGraphic" in2="effect1_dropShadow_19723_38992" result="shape"/>
</filter>
<filter id="filter2_d_19723_38992" x="695.264" y="299.472" width="66.9443" height="66.9382" filterUnits="userSpaceOnUse" color-interpolation-filters="sRGB">
<feFlood flood-opacity="0" result="BackgroundImageFix"/>
<feColorMatrix in="SourceAlpha" type="matrix" values="0 0 0 0 0 0 0 0 0 0 0 0 0 0 0 0 0 0 127 0" result="hardAlpha"/>
<feOffset dx="-3" dy="4"/>
<feGaussianBlur stdDeviation="5.5"/>
<feColorMatrix type="matrix" values="0 0 0 0 0 0 0 0 0 0 0 0 0 0 0 0 0 0 0.12 0"/>
<feBlend mode="normal" in2="BackgroundImageFix" result="effect1_dropShadow_19723_38992"/>
<feBlend mode="normal" in="SourceGraphic" in2="effect1_dropShadow_19723_38992" result="shape"/>
</filter>
<filter id="filter3_d_19723_38992" x="224.53" y="502.876" width="66.9443" height="66.9382" filterUnits="userSpaceOnUse" color-interpolation-filters="sRGB">
<feFlood flood-opacity="0" result="BackgroundImageFix"/>
<feColorMatrix in="SourceAlpha" type="matrix" values="0 0 0 0 0 0 0 0 0 0 0 0 0 0 0 0 0 0 127 0" result="hardAlpha"/>
<feOffset dx="-3" dy="4"/>
<feGaussianBlur stdDeviation="5.5"/>
<feColorMatrix type="matrix" values="0 0 0 0 0 0 0 0 0 0 0 0 0 0 0 0 0 0 0.12 0"/>
<feBlend mode="normal" in2="BackgroundImageFix" result="effect1_dropShadow_19723_38992"/>
<feBlend mode="normal" in="SourceGraphic" in2="effect1_dropShadow_19723_38992" result="shape"/>
</filter>
<filter id="filter4_d_19723_38992" x="660.964" y="619.952" width="66.9443" height="66.9382" filterUnits="userSpaceOnUse" color-interpolation-filters="sRGB">
<feFlood flood-opacity="0" result="BackgroundImageFix"/>
<feColorMatrix in="SourceAlpha" type="matrix" values="0 0 0 0 0 0 0 0 0 0 0 0 0 0 0 0 0 0 127 0" result="hardAlpha"/>
<feOffset dx="-3" dy="4"/>
<feGaussianBlur stdDeviation="5.5"/>
<feColorMatrix type="matrix" values="0 0 0 0 0 0 0 0 0 0 0 0 0 0 0 0 0 0 0.12 0"/>
<feBlend mode="normal" in2="BackgroundImageFix" result="effect1_dropShadow_19723_38992"/>
<feBlend mode="normal" in="SourceGraphic" in2="effect1_dropShadow_19723_38992" result="shape"/>
</filter>
<filter id="filter5_d_19723_38992" x="578.172" y="182.396" width="66.9443" height="66.9382" filterUnits="userSpaceOnUse" color-interpolation-filters="sRGB">
<feFlood flood-opacity="0" result="BackgroundImageFix"/>
<feColorMatrix in="SourceAlpha" type="matrix" values="0 0 0 0 0 0 0 0 0 0 0 0 0 0 0 0 0 0 127 0" result="hardAlpha"/>
<feOffset dx="-3" dy="4"/>
<feGaussianBlur stdDeviation="5.5"/>
<feColorMatrix type="matrix" values="0 0 0 0 0 0 0 0 0 0 0 0 0 0 0 0 0 0 0.12 0"/>
<feBlend mode="normal" in2="BackgroundImageFix" result="effect1_dropShadow_19723_38992"/>
<feBlend mode="normal" in="SourceGraphic" in2="effect1_dropShadow_19723_38992" result="shape"/>
</filter>
<filter id="filter6_d_19723_38992" x="1063.1" y="229.699" width="66.9443" height="66.9382" filterUnits="userSpaceOnUse" color-interpolation-filters="sRGB">
<feFlood flood-opacity="0" result="BackgroundImageFix"/>
<feColorMatrix in="SourceAlpha" type="matrix" values="0 0 0 0 0 0 0 0 0 0 0 0 0 0 0 0 0 0 127 0" result="hardAlpha"/>
<feOffset dx="-3" dy="4"/>
<feGaussianBlur stdDeviation="5.5"/>
<feColorMatrix type="matrix" values="0 0 0 0 0 0 0 0 0 0 0 0 0 0 0 0 0 0 0.12 0"/>
<feBlend mode="normal" in2="BackgroundImageFix" result="effect1_dropShadow_19723_38992"/>
<feBlend mode="normal" in="SourceGraphic" in2="effect1_dropShadow_19723_38992" result="shape"/>
</filter>
<filter id="filter7_d_19723_38992" x="980.306" y="312.48" width="66.9443" height="66.9382" filterUnits="userSpaceOnUse" color-interpolation-filters="sRGB">
<feFlood flood-opacity="0" result="BackgroundImageFix"/>
<feColorMatrix in="SourceAlpha" type="matrix" values="0 0 0 0 0 0 0 0 0 0 0 0 0 0 0 0 0 0 127 0" result="hardAlpha"/>
<feOffset dx="-3" dy="4"/>
<feGaussianBlur stdDeviation="5.5"/>
<feColorMatrix type="matrix" values="0 0 0 0 0 0 0 0 0 0 0 0 0 0 0 0 0 0 0.12 0"/>
<feBlend mode="normal" in2="BackgroundImageFix" result="effect1_dropShadow_19723_38992"/>
<feBlend mode="normal" in="SourceGraphic" in2="effect1_dropShadow_19723_38992" result="shape"/>
</filter>
<filter id="filter8_d_19723_38992" x="672.792" y="40.4859" width="66.9443" height="66.9382" filterUnits="userSpaceOnUse" color-interpolation-filters="sRGB">
<feFlood flood-opacity="0" result="BackgroundImageFix"/>
<feColorMatrix in="SourceAlpha" type="matrix" values="0 0 0 0 0 0 0 0 0 0 0 0 0 0 0 0 0 0 127 0" result="hardAlpha"/>
<feOffset dx="-3" dy="4"/>
<feGaussianBlur stdDeviation="5.5"/>
<feColorMatrix type="matrix" values="0 0 0 0 0 0 0 0 0 0 0 0 0 0 0 0 0 0 0.12 0"/>
<feBlend mode="normal" in2="BackgroundImageFix" result="effect1_dropShadow_19723_38992"/>
<feBlend mode="normal" in="SourceGraphic" in2="effect1_dropShadow_19723_38992" result="shape"/>
</filter>
<filter id="filter9_d_19723_38992" x="747" y="182" width="108" height="108" filterUnits="userSpaceOnUse" color-interpolation-filters="sRGB">
<feFlood flood-opacity="0" result="BackgroundImageFix"/>
<feColorMatrix in="SourceAlpha" type="matrix" values="0 0 0 0 0 0 0 0 0 0 0 0 0 0 0 0 0 0 127 0" result="hardAlpha"/>
<feOffset dy="4"/>
<feGaussianBlur stdDeviation="12"/>
<feComposite in2="hardAlpha" operator="out"/>
<feColorMatrix type="matrix" values="0 0 0 0 0 0 0 0 0 0 0 0 0 0 0 0 0 0 0.5 0"/>
<feBlend mode="normal" in2="BackgroundImageFix" result="effect1_dropShadow_19723_38992"/>
<feBlend mode="normal" in="SourceGraphic" in2="effect1_dropShadow_19723_38992" result="shape"/>
</filter>
<filter id="filter10_d_19723_38992" x="99" y="360" width="108" height="108" filterUnits="userSpaceOnUse" color-interpolation-filters="sRGB">
<feFlood flood-opacity="0" result="BackgroundImageFix"/>
<feColorMatrix in="SourceAlpha" type="matrix" values="0 0 0 0 0 0 0 0 0 0 0 0 0 0 0 0 0 0 127 0" result="hardAlpha"/>
<feOffset dy="4"/>
<feGaussianBlur stdDeviation="12"/>
<feComposite in2="hardAlpha" operator="out"/>
<feColorMatrix type="matrix" values="0 0 0 0 0 0 0 0 0 0 0 0 0 0 0 0 0 0 0.5 0"/>
<feBlend mode="normal" in2="BackgroundImageFix" result="effect1_dropShadow_19723_38992"/>
<feBlend mode="normal" in="SourceGraphic" in2="effect1_dropShadow_19723_38992" result="shape"/>
</filter>
<filter id="filter11_d_19723_38992" x="1070" y="432" width="108" height="108" filterUnits="userSpaceOnUse" color-interpolation-filters="sRGB">
<feFlood flood-opacity="0" result="BackgroundImageFix"/>
<feColorMatrix in="SourceAlpha" type="matrix" values="0 0 0 0 0 0 0 0 0 0 0 0 0 0 0 0 0 0 127 0" result="hardAlpha"/>
<feOffset dy="4"/>
<feGaussianBlur stdDeviation="12"/>
<feComposite in2="hardAlpha" operator="out"/>
<feColorMatrix type="matrix" values="0 0 0 0 0 0 0 0 0 0 0 0 0 0 0 0 0 0 0.5 0"/>
<feBlend mode="normal" in2="BackgroundImageFix" result="effect1_dropShadow_19723_38992"/>
<feBlend mode="normal" in="SourceGraphic" in2="effect1_dropShadow_19723_38992" result="shape"/>
</filter>
<filter id="filter12_d_19723_38992" x="593" y="739" width="108" height="108" filterUnits="userSpaceOnUse" color-interpolation-filters="sRGB">
<feFlood flood-opacity="0" result="BackgroundImageFix"/>
<feColorMatrix in="SourceAlpha" type="matrix" values="0 0 0 0 0 0 0 0 0 0 0 0 0 0 0 0 0 0 127 0" result="hardAlpha"/>
<feOffset dy="4"/>
<feGaussianBlur stdDeviation="12"/>
<feComposite in2="hardAlpha" operator="out"/>
<feColorMatrix type="matrix" values="0 0 0 0 0 0 0 0 0 0 0 0 0 0 0 0 0 0 0.5 0"/>
<feBlend mode="normal" in2="BackgroundImageFix" result="effect1_dropShadow_19723_38992"/>
<feBlend mode="normal" in="SourceGraphic" in2="effect1_dropShadow_19723_38992" result="shape"/>
</filter>
</defs>
</svg>
