<svg width="21" height="22" viewBox="0 0 21 22" fill="none" xmlns="http://www.w3.org/2000/svg">
<path fill-rule="evenodd" clip-rule="evenodd" d="M10.552 0.912354H10.448C9.549 0.912354 8.8 0.912354 8.206 0.992354C7.578 1.07635 7.011 1.26235 6.556 1.71735C6.1 2.17335 5.914 2.74035 5.83 3.36735C5.773 3.79435 5.756 4.81335 5.752 5.68735C3.73 5.75435 2.515 5.99035 1.672 6.83435C0.5 8.00535 0.5 9.89135 0.5 13.6624C0.5 17.4334 0.5 19.3194 1.672 20.4904C2.844 21.6614 4.729 21.6624 8.5 21.6624H12.5C16.271 21.6624 18.157 21.6624 19.328 20.4904C20.499 19.3184 20.5 17.4334 20.5 13.6624C20.5 9.89135 20.5 8.00535 19.328 6.83435C18.485 5.99035 17.27 5.75435 15.248 5.68835C15.244 4.81335 15.228 3.79435 15.17 3.36835C15.086 2.74035 14.9 2.17335 14.444 1.71835C13.989 1.26235 13.422 1.07635 12.794 0.992354C12.2 0.912354 11.45 0.912354 10.552 0.912354ZM13.748 5.66435C13.743 4.81735 13.729 3.90635 13.684 3.56735C13.621 3.10635 13.514 2.90835 13.384 2.77835C13.254 2.64835 13.056 2.54135 12.594 2.47835C12.112 2.41435 11.464 2.41235 10.5 2.41235C9.536 2.41235 8.888 2.41435 8.405 2.47935C7.944 2.54135 7.746 2.64835 7.616 2.77935C7.486 2.91035 7.379 3.10635 7.316 3.56735C7.271 3.90735 7.256 4.81735 7.252 5.66435C7.644 5.66235 8.06 5.66169 8.5 5.66235H12.5C12.9413 5.66235 13.3573 5.66302 13.748 5.66435ZM10.5 8.91235C10.6989 8.91235 10.8897 8.99137 11.0303 9.13202C11.171 9.27268 11.25 9.46344 11.25 9.66235V9.67235C12.339 9.94635 13.25 10.8054 13.25 11.9954C13.25 12.1943 13.171 12.385 13.0303 12.5257C12.8897 12.6663 12.6989 12.7454 12.5 12.7454C12.3011 12.7454 12.1103 12.6663 11.9697 12.5257C11.829 12.385 11.75 12.1943 11.75 11.9954C11.75 11.6114 11.324 11.0794 10.5 11.0794C9.676 11.0794 9.25 11.6114 9.25 11.9954C9.25 12.3794 9.676 12.9124 10.5 12.9124C11.885 12.9124 13.25 13.8724 13.25 15.3294C13.25 16.5194 12.339 17.3774 11.25 17.6524V17.6624C11.25 17.8613 11.171 18.052 11.0303 18.1927C10.8897 18.3333 10.6989 18.4124 10.5 18.4124C10.3011 18.4124 10.1103 18.3333 9.96967 18.1927C9.82902 18.052 9.75 17.8613 9.75 17.6624V17.6524C8.661 17.3784 7.75 16.5194 7.75 15.3294C7.75 15.1304 7.82902 14.9397 7.96967 14.799C8.11032 14.6584 8.30109 14.5794 8.5 14.5794C8.69891 14.5794 8.88968 14.6584 9.03033 14.799C9.17098 14.9397 9.25 15.1304 9.25 15.3294C9.25 15.7134 9.676 16.2454 10.5 16.2454C11.324 16.2454 11.75 15.7134 11.75 15.3294C11.75 14.9454 11.324 14.4124 10.5 14.4124C9.115 14.4124 7.75 13.4524 7.75 11.9954C7.75 10.8054 8.661 9.94635 9.75 9.67235V9.66235C9.75 9.46344 9.82902 9.27268 9.96967 9.13202C10.1103 8.99137 10.3011 8.91235 10.5 8.91235Z" fill="#06DB8F"/>
</svg>
