<svg width="21" height="21" viewBox="0 0 21 21" fill="none" xmlns="http://www.w3.org/2000/svg">
<path d="M10.5 0.662354C16.023 0.662354 20.5 5.13935 20.5 10.6624C20.5 16.1854 16.023 20.6624 10.5 20.6624C4.977 20.6624 0.5 16.1854 0.5 10.6624C0.5 5.13935 4.977 0.662354 10.5 0.662354ZM10.5 4.66235C10.2348 4.66235 9.98043 4.76771 9.79289 4.95525C9.60536 5.14278 9.5 5.39714 9.5 5.66235V10.6624C9.50006 10.9275 9.60545 11.1819 9.793 11.3694L12.793 14.3694C12.9816 14.5515 13.2342 14.6523 13.4964 14.65C13.7586 14.6477 14.0094 14.5426 14.1948 14.3572C14.3802 14.1718 14.4854 13.921 14.4877 13.6588C14.49 13.3966 14.3892 13.144 14.207 12.9554L11.5 10.2484V5.66235C11.5 5.39714 11.3946 5.14278 11.2071 4.95525C11.0196 4.76771 10.7652 4.66235 10.5 4.66235Z" fill="#06DB8F"/>
</svg>
