<svg width="56" height="57" viewBox="0 0 56 57" fill="none" xmlns="http://www.w3.org/2000/svg">
<rect y="0.662109" width="56" height="56" rx="28" fill="#3D544D"/>
<path d="M26.4962 20.6621C19.6247 21.9954 19 28.6621 19 28.6621M19 28.6621V32.914C19 33.6092 19 33.9568 19.0574 34.2459C19.2937 35.4372 20.2249 36.3684 21.4162 36.6048C21.7053 36.6621 22.0529 36.6621 22.7481 36.6621V36.6621C23.4434 36.6621 23.791 36.6621 24.0801 36.6048C25.2713 36.3684 26.2025 35.4372 26.4389 34.2459C26.4962 33.9568 26.4962 33.6092 26.4962 32.914V32.6621C26.4962 31.7321 26.4962 31.2672 26.394 30.8857C26.1166 29.8504 25.308 29.0417 24.2727 28.7643C23.8912 28.6621 23.4262 28.6621 22.4962 28.6621H19Z" stroke="white" stroke-width="1.5"/>
<path d="M36.9999 20.6621C30.1283 21.9954 29.5037 28.6621 29.5037 28.6621M29.5037 28.6621V32.914C29.5037 33.6092 29.5037 33.9568 29.561 34.2459C29.7974 35.4372 30.7286 36.3684 31.9198 36.6048C32.2089 36.6621 32.5565 36.6621 33.2518 36.6621V36.6621C33.947 36.6621 34.2946 36.6621 34.5837 36.6048C35.775 36.3684 36.7062 35.4372 36.9425 34.2459C36.9999 33.9568 36.9999 33.6092 36.9999 32.914V32.6621C36.9999 31.7321 36.9999 31.2672 36.8977 30.8857C36.6203 29.8504 35.8116 29.0417 34.7764 28.7643C34.3949 28.6621 33.9299 28.6621 32.9999 28.6621H29.5037Z" stroke="white" stroke-width="1.5"/>
</svg>
