<svg width="17" height="21" viewBox="0 0 17 21" fill="none" xmlns="http://www.w3.org/2000/svg">
<path d="M7.8 0.922419L1.8 3.17242C1.02 3.47242 0.5 4.21242 0.5 5.05242V9.76242C0.5 14.8124 3.91 19.5224 8.5 20.6724C13.09 19.5224 16.5 14.8124 16.5 9.76242V5.05242C16.4993 4.64548 16.3745 4.24844 16.1422 3.91431C15.9099 3.58017 15.5812 3.32485 15.2 3.18242L9.2 0.932419C8.75 0.752419 8.25 0.752419 7.8 0.922419ZM6.73 13.4924L4.61 11.3724C4.51742 11.2798 4.44398 11.1699 4.39387 11.049C4.34377 10.928 4.31798 10.7984 4.31798 10.6674C4.31798 10.5365 4.34377 10.4068 4.39387 10.2859C4.44398 10.1649 4.51742 10.055 4.61 9.96242C4.70258 9.86984 4.81249 9.7964 4.93346 9.74629C5.05442 9.69619 5.18407 9.6704 5.315 9.6704C5.44593 9.6704 5.57558 9.69619 5.69654 9.74629C5.81751 9.7964 5.92742 9.86984 6.02 9.96242L7.43 11.3724L10.97 7.83242C11.0626 7.73984 11.1725 7.6664 11.2935 7.61629C11.4144 7.56619 11.5441 7.5404 11.675 7.5404C11.8059 7.5404 11.9356 7.56619 12.0565 7.61629C12.1775 7.6664 12.2874 7.73984 12.38 7.83242C12.4726 7.925 12.546 8.03491 12.5961 8.15588C12.6462 8.27684 12.672 8.40649 12.672 8.53742C12.672 8.66835 12.6462 8.798 12.5961 8.91896C12.546 9.03993 12.4726 9.14984 12.38 9.24242L8.14 13.4824C7.76 13.8824 7.12 13.8824 6.73 13.4924Z" fill="#06DB8F"/>
</svg>
