<svg width="21" height="21" viewBox="0 0 21 21" fill="none" xmlns="http://www.w3.org/2000/svg">
<path d="M20.5 10.6624C20.5 16.1854 16.023 20.6624 10.5 20.6624C4.977 20.6624 0.5 16.1854 0.5 10.6624C0.5 5.13935 4.977 0.662354 10.5 0.662354C16.023 0.662354 20.5 5.13935 20.5 10.6624ZM12.843 4.87035C12.6885 4.73652 12.4909 4.66285 12.2865 4.66285C12.0821 4.66285 11.8845 4.73652 11.73 4.87035C11.6577 4.93269 11.5996 5.00989 11.5598 5.0967C11.5201 5.1835 11.4995 5.27787 11.4995 5.37335C11.4995 5.46884 11.5201 5.56321 11.5598 5.65001C11.5996 5.73682 11.6577 5.81402 11.73 5.87635C14.653 8.51935 14.653 12.8044 11.73 15.4474C11.6577 15.5097 11.5996 15.5869 11.5598 15.6737C11.5201 15.7605 11.4995 15.8549 11.4995 15.9504C11.4995 16.0458 11.5201 16.1402 11.5598 16.227C11.5996 16.3138 11.6577 16.391 11.73 16.4534C11.8845 16.5872 12.0821 16.6609 12.2865 16.6609C12.4909 16.6609 12.6885 16.5872 12.843 16.4534C16.381 13.2554 16.381 8.06935 12.843 4.87035ZM8.717 6.38435C8.57771 6.52801 8.49981 6.72025 8.49981 6.92035C8.49981 7.12045 8.57771 7.31269 8.717 7.45635C10.451 9.22735 10.451 12.0994 8.717 13.8714C8.57771 14.015 8.49981 14.2073 8.49981 14.4074C8.49981 14.6075 8.57771 14.7997 8.717 14.9434C8.78508 15.0138 8.86665 15.0699 8.95684 15.1081C9.04704 15.1464 9.14402 15.1661 9.242 15.1661C9.33998 15.1661 9.43696 15.1464 9.52716 15.1081C9.61735 15.0699 9.69892 15.0138 9.767 14.9434C12.08 12.5794 12.08 8.74735 9.767 6.38435C9.69892 6.31389 9.61735 6.25785 9.52716 6.21957C9.43696 6.1813 9.33998 6.16158 9.242 6.16158C9.14402 6.16158 9.04704 6.1813 8.95684 6.21957C8.86665 6.25785 8.78508 6.31389 8.717 6.38435ZM6.802 7.87835C6.65681 7.7393 6.46354 7.66168 6.2625 7.66168C6.06146 7.66168 5.86819 7.7393 5.723 7.87835C5.65251 7.94559 5.5964 8.02643 5.55806 8.11598C5.51972 8.20554 5.49995 8.30194 5.49995 8.39935C5.49995 8.49677 5.51972 8.59317 5.55806 8.68272C5.5964 8.77228 5.65251 8.85312 5.723 8.92035C5.95896 9.1449 6.14684 9.41506 6.27521 9.71442C6.40358 10.0138 6.46978 10.3361 6.46978 10.6619C6.46978 10.9876 6.40358 11.3099 6.27521 11.6093C6.14684 11.9087 5.95896 12.1788 5.723 12.4034C5.65235 12.4706 5.59611 12.5515 5.55767 12.6412C5.51924 12.7308 5.49942 12.8273 5.49942 12.9249C5.49942 13.0224 5.51924 13.1189 5.55767 13.2086C5.59611 13.2982 5.65235 13.3791 5.723 13.4464C5.86824 13.5857 6.06172 13.6635 6.263 13.6635C6.46428 13.6635 6.65776 13.5857 6.803 13.4464C7.18023 13.0874 7.48057 12.6555 7.6858 12.1769C7.89103 11.6984 7.99685 11.1831 7.99685 10.6624C7.99685 10.1416 7.89103 9.62634 7.6858 9.14776C7.48057 8.66919 7.18023 8.23731 6.803 7.87835" fill="#06DB8F"/>
</svg>
