<svg width="128" height="129" viewBox="0 0 128 129" fill="none" xmlns="http://www.w3.org/2000/svg">
<path d="M127.25 42.2121V25.0476C127.25 19.3969 122.825 14.9121 117.387 14.9121H19.112C13.675 14.9121 9.25 19.3969 9.25 25.0476V52.6621H13.25V44.1621H123.25V104.277C123.25 107.721 120.619 110.412 117.387 110.412H19.112C15.8797 110.412 13.25 107.721 13.25 104.277V96.6621H9.25V104.277C9.25 109.927 13.675 114.412 19.112 114.412H117.387C122.825 114.412 127.25 109.927 127.25 104.277V42.2499C127.25 42.2434 127.25 42.2371 127.25 42.2304C127.25 42.2236 127.25 42.2176 127.25 42.2121ZM13.25 40.1621V25.0476C13.25 21.6029 15.8797 18.9121 19.112 18.9121H117.387C120.619 18.9121 123.25 21.6029 123.25 25.0476V40.1621H13.25Z" fill="white"/>
<path d="M40.0775 21.6731C36.0845 21.6731 32.836 25.0368 32.836 29.1716C32.836 33.3063 36.0845 36.6701 40.0775 36.6701C44.0705 36.6701 47.319 33.3063 47.319 29.1716C47.319 25.0368 44.0705 21.6731 40.0775 21.6731ZM40.0775 32.6701C38.29 32.6701 36.836 31.1008 36.836 29.1716C36.836 27.2423 38.29 25.6731 40.0775 25.6731C41.865 25.6731 43.319 27.2423 43.319 29.1716C43.319 31.1008 41.865 32.6701 40.0775 32.6701ZM57.112 21.6731C53.1193 21.6731 49.8705 25.0368 49.8705 29.1716C49.8705 33.3063 53.1205 36.6701 57.112 36.6701C61.1035 36.6701 64.3535 33.3063 64.3535 29.1716C64.3535 25.0368 61.105 21.6731 57.112 21.6731ZM57.112 32.6701C55.3248 32.6701 53.8705 31.1008 53.8705 29.1716C53.8705 27.2423 55.3248 25.6731 57.112 25.6731C58.8993 25.6731 60.3535 27.2423 60.3535 29.1716C60.3535 31.1008 58.9 32.6701 57.112 32.6701ZM23.043 21.6731C19.05 21.6731 15.8015 25.0368 15.8015 29.1716C15.8015 33.3063 19.05 36.6701 23.043 36.6701C27.036 36.6701 30.2845 33.3063 30.2845 29.1716C30.2845 25.0368 27.036 21.6731 23.043 21.6731ZM23.043 32.6701C21.2555 32.6701 19.8015 31.1008 19.8015 29.1716C19.8015 27.2423 21.2555 25.6731 23.043 25.6731C24.8305 25.6731 26.2845 27.2423 26.2845 29.1716C26.2845 31.1008 24.8303 32.6701 23.043 32.6701Z" fill="white"/>
<path d="M18.9168 79.662C17.8156 79.6607 16.735 79.9604 15.7918 80.5285C14.8686 79.9747 13.8151 79.6758 12.7386 79.6623C11.6622 79.6488 10.6015 79.9212 9.66476 80.4517C8.72801 80.9821 7.94879 81.7516 7.40665 82.6816C6.86451 83.6116 6.57886 84.6689 6.57886 85.7454C6.57886 86.8219 6.86451 87.8791 7.40665 88.8091C7.94879 89.7391 8.72801 90.5086 9.66476 91.0391C10.6015 91.5695 11.6622 91.8419 12.7386 91.8284C13.8151 91.8149 14.8686 91.516 15.7918 90.9622C16.5957 91.444 17.5001 91.7334 18.4343 91.808C19.3686 91.8825 20.3074 91.7402 21.1775 91.392C22.0477 91.0439 22.8256 90.4994 23.4506 89.801C24.0757 89.1027 24.5308 88.2693 24.7806 87.366C25.0304 86.4627 25.0681 85.5139 24.8908 84.5936C24.7134 83.6733 24.3258 82.8065 23.7581 82.0607C23.1905 81.315 22.4582 80.7105 21.6184 80.2944C20.7786 79.8784 19.854 79.662 18.9168 79.6622V79.662ZM10.5833 85.7452C10.582 85.4277 10.6536 85.1142 10.7926 84.8287C10.9316 84.5432 11.1342 84.2934 11.3849 84.0986C11.6356 83.9037 11.9277 83.769 12.2386 83.7048C12.5496 83.6406 12.8711 83.6486 13.1785 83.7282C12.7182 85.0336 12.7182 86.4571 13.1785 87.7625C12.8711 87.8421 12.5496 87.8501 12.2386 87.7859C11.9276 87.7217 11.6355 87.5869 11.3848 87.3921C11.1341 87.1972 10.9315 86.9474 10.7925 86.6619C10.6535 86.3764 10.582 86.0628 10.5833 85.7452ZM18.9168 87.8287C18.744 87.8281 18.572 87.8058 18.4048 87.7625C18.8651 86.4571 18.8651 85.0336 18.4048 83.7282C18.691 83.6553 18.9895 83.6441 19.2805 83.6954C19.5714 83.7466 19.8481 83.8592 20.0922 84.0257C20.3362 84.1921 20.5421 84.4086 20.6961 84.6607C20.85 84.9128 20.9486 85.1948 20.9852 85.488C21.0218 85.7811 20.9956 86.0787 20.9084 86.3609C20.8211 86.6432 20.6748 86.9036 20.4792 87.125C20.2836 87.3463 20.0431 87.5235 19.7737 87.6448C19.5043 87.766 19.2122 87.8286 18.9168 87.8282V87.8287Z" fill="#06DB8F"/>
<path d="M63 99.1101C63 99.6405 63.2107 100.149 63.5858 100.524C63.9609 100.899 64.4696 101.11 65 101.11C65.5304 101.11 66.0391 100.899 66.4142 100.524C66.7893 100.149 67 99.6405 67 99.1101V50.2141C67 49.6837 66.7893 49.175 66.4142 48.7999C66.0391 48.4248 65.5304 48.2141 65 48.2141C64.4696 48.2141 63.9609 48.4248 63.5858 48.7999C63.2107 49.175 63 49.6837 63 50.2141V50.6621H8.75C6.62364 50.6763 4.58919 51.5308 3.09047 53.0393C1.59175 54.5478 0.750415 56.5877 0.75 58.7141V90.6101C0.750415 92.7365 1.59175 94.7765 3.09047 96.2849C4.58919 97.7934 6.62364 98.6479 8.75 98.6621H63V99.1101ZM4.75 64.9121H63V70.1621H4.75V64.9121ZM8.75 54.6621H63V60.9121H4.75V58.7141C4.74939 57.6482 5.16898 56.6251 5.91778 55.8666C6.66658 55.108 7.68422 54.6753 8.75 54.6621ZM8.75 94.6621C7.68422 94.649 6.66658 94.2162 5.91778 93.4577C5.16898 92.6991 4.74939 91.676 4.75 90.6101V74.1621H63V94.6621H8.75Z" fill="#06DB8F"/>
<path fill-rule="evenodd" clip-rule="evenodd" d="M79.5946 63.9786C79.1116 63.9137 78.464 63.9121 77.5 63.9121H76.4C75.7308 63.9121 75.2816 63.9129 74.9378 63.9456C74.6053 63.9772 74.4497 64.0333 74.3469 64.0963C74.1787 64.1994 74.0373 64.3408 73.9342 64.509C73.8712 64.6118 73.8151 64.7674 73.7835 65.0999C73.7508 65.4437 73.75 65.8929 73.75 66.5621C73.75 66.9763 73.4142 67.3121 73 67.3121C72.5858 67.3121 72.25 66.9763 72.25 66.5621V66.5264C72.25 65.9021 72.25 65.3811 72.2902 64.9579C72.3323 64.5156 72.4235 64.1033 72.6552 63.7252C72.882 63.3552 73.1931 63.0441 73.5631 62.8173C73.9413 62.5856 74.3535 62.4944 74.7959 62.4523C75.219 62.4121 75.74 62.4121 76.3643 62.4121H77.552C78.4505 62.4121 79.1997 62.412 79.7945 62.492C80.4223 62.5764 80.9891 62.7621 81.4445 63.2176C81.9 63.673 82.0857 64.2398 82.1701 64.8676C82.2501 65.4624 82.25 66.2116 82.25 67.1101V68.2978C82.25 68.9221 82.25 69.4431 82.2098 69.8663C82.1677 70.3086 82.0765 70.7209 81.8448 71.099C81.618 71.469 81.3069 71.7801 80.9369 72.0069C80.5588 72.2386 80.1465 72.3298 79.7042 72.3719C79.281 72.4121 78.76 72.4121 78.1357 72.4121H78.0623C77.1123 72.4121 76.3461 72.4121 75.7293 72.3535C75.0932 72.293 74.539 72.1649 74.0406 71.8595C73.5361 71.5503 73.1118 71.1261 72.8026 70.6215C72.5862 70.2683 72.697 69.8065 73.0502 69.5901C73.4034 69.3737 73.8651 69.4845 74.0816 69.8377C74.2671 70.1405 74.5216 70.395 74.8244 70.5805C75.0474 70.7172 75.345 70.8102 75.8713 70.8602C76.4087 70.9113 77.1035 70.9121 78.1 70.9121C78.7692 70.9121 79.2185 70.9113 79.5622 70.8786C79.8947 70.847 80.0503 70.7909 80.1531 70.7279C80.3213 70.6248 80.4627 70.4834 80.5658 70.3152C80.6288 70.2124 80.6849 70.0568 80.7165 69.7243C80.7492 69.3805 80.75 68.9313 80.75 68.2621V67.1621C80.75 66.1981 80.7484 65.5505 80.6835 65.0675C80.6214 64.606 80.5142 64.4085 80.3839 64.2782C80.2536 64.1479 80.0561 64.0407 79.5946 63.9786ZM87.8643 50.9121H87.9376C88.8877 50.9121 89.6539 50.9121 90.2707 50.9707C90.9068 51.0312 91.461 51.1593 91.9594 51.4647C92.464 51.7739 92.8882 52.1982 93.1974 52.7027C93.4138 53.0559 93.303 53.5177 92.9498 53.7341C92.5966 53.9505 92.1349 53.8397 91.9184 53.4865C91.7329 53.1837 91.4784 52.9292 91.1756 52.7437C90.9526 52.607 90.655 52.514 90.1288 52.464C89.5913 52.4129 88.8966 52.4121 87.9 52.4121C87.2308 52.4121 86.7816 52.4129 86.4378 52.4456C86.1053 52.4772 85.9497 52.5333 85.8469 52.5963C85.6787 52.6994 85.5373 52.8408 85.4342 53.009C85.3712 53.1118 85.3151 53.2674 85.2835 53.5999C85.2508 53.9437 85.25 54.3929 85.25 55.0621V56.1621C85.25 57.1261 85.2516 57.7737 85.3165 58.2567C85.3786 58.7182 85.4858 58.9157 85.6161 59.046C85.7464 59.1763 85.9439 59.2835 86.4054 59.3456C86.8884 59.4105 87.536 59.4121 88.5 59.4121H89.6C90.2692 59.4121 90.7184 59.4113 91.0622 59.3786C91.3947 59.347 91.5503 59.2909 91.6531 59.2279C91.8213 59.1248 91.9627 58.9834 92.0658 58.8152C92.1288 58.7124 92.1849 58.5568 92.2165 58.2243C92.2492 57.8806 92.25 57.4313 92.25 56.7621C92.25 56.3479 92.5858 56.0121 93 56.0121C93.4142 56.0121 93.75 56.3479 93.75 56.7621V56.7978C93.75 57.4221 93.75 57.9431 93.7098 58.3663C93.6677 58.8086 93.5765 59.2209 93.3448 59.599C93.118 59.969 92.8069 60.2801 92.4369 60.5069C92.0588 60.7386 91.6465 60.8298 91.2042 60.8719C90.781 60.9121 90.26 60.9121 89.6357 60.9121H88.448C87.5495 60.9121 86.8003 60.9122 86.2055 60.8322C85.5777 60.7478 85.0109 60.5621 84.5555 60.1066C84.1 59.6512 83.9143 59.0844 83.8299 58.4566C83.7499 57.8618 83.75 57.1126 83.75 56.2141V55.0264C83.75 54.4021 83.75 53.8811 83.7902 53.458C83.8323 53.0156 83.9235 52.6034 84.1552 52.2252C84.382 51.8552 84.6931 51.5441 85.0631 51.3173C85.4412 51.0856 85.8535 50.9944 86.2958 50.9523C86.719 50.9121 87.24 50.9121 87.8643 50.9121Z" fill="#06DB8F"/>
<path d="M87.5 55.9121C87.5 55.3967 87.5 55.139 87.6291 54.957C87.6747 54.8928 87.7307 54.8368 87.7949 54.7912C87.9769 54.6621 88.2346 54.6621 88.75 54.6621C89.2654 54.6621 89.5231 54.6621 89.7051 54.7912C89.7693 54.8368 89.8253 54.8928 89.8709 54.957C90 55.139 90 55.3967 90 55.9121C90 56.4275 90 56.6852 89.8709 56.8672C89.8253 56.9314 89.7693 56.9874 89.7051 57.033C89.5231 57.1621 89.2654 57.1621 88.75 57.1621C88.2346 57.1621 87.9769 57.1621 87.7949 57.033C87.7307 56.9874 87.6747 56.9314 87.6291 56.8672C87.5 56.6852 87.5 56.4275 87.5 55.9121Z" fill="#06DB8F"/>
<path fill-rule="evenodd" clip-rule="evenodd" d="M87.9617 62.4121H90V63.9121H88C87.2822 63.9121 86.8002 63.913 86.4328 63.9504C86.078 63.9865 85.914 64.0503 85.8055 64.1228C85.669 64.214 85.5519 64.3312 85.4607 64.4676C85.3882 64.5761 85.3244 64.7401 85.2883 65.0949C85.2509 65.4623 85.25 65.9443 85.25 66.6621H83.75V66.6238C83.75 65.9542 83.75 65.3955 83.796 64.9431C83.8441 64.4696 83.9489 64.0303 84.2135 63.6343C84.4141 63.334 84.6719 63.0762 84.9722 62.8756C85.3682 62.611 85.8075 62.5063 86.281 62.4581C86.7334 62.4121 87.2921 62.4121 87.9617 62.4121ZM83.75 71.6621V68.6621H85.25V71.6621C85.25 72.0763 84.9142 72.4121 84.5 72.4121C84.0858 72.4121 83.75 72.0763 83.75 71.6621ZM93 62.4121C93.4142 62.4121 93.75 62.7479 93.75 63.1621V66.6621H92.25V63.1621C92.25 62.7479 92.5858 62.4121 93 62.4121ZM92.2327 69.7054C92.2496 69.4579 92.25 69.1383 92.25 68.6621H93.75V68.6874C93.75 69.1318 93.75 69.5029 93.7292 69.8075C93.7076 70.1246 93.661 70.4241 93.5407 70.7145C93.2616 71.3883 92.7262 71.9237 92.0524 72.2028C91.762 72.3231 91.4625 72.3697 91.1454 72.3913C90.8408 72.4121 90.4697 72.4121 90.0253 72.4121H88V70.9121H90C90.4762 70.9121 90.7958 70.9117 91.0433 70.8948C91.284 70.8784 91.4012 70.8489 91.4784 70.817C91.7846 70.6901 92.028 70.4467 92.1548 70.1405C92.1868 70.0633 92.2163 69.9461 92.2327 69.7054ZM79.5622 52.4456C79.2185 52.4129 78.7692 52.4121 78.1 52.4121C77.1035 52.4121 76.4087 52.4129 75.8713 52.464C75.345 52.514 75.0474 52.607 74.8244 52.7437C74.5216 52.9292 74.2671 53.1837 74.0816 53.4865C73.9449 53.7095 73.8519 54.0071 73.8019 54.5334C73.7508 55.0708 73.75 55.7656 73.75 56.7621C73.75 57.4313 73.7508 57.8806 73.7835 58.2243C73.8151 58.5568 73.8712 58.7124 73.9342 58.8152C74.0373 58.9834 74.1787 59.1248 74.3469 59.2279C74.4497 59.2909 74.6053 59.347 74.9378 59.3786C75.2816 59.4113 75.7308 59.4121 76.4 59.4121H77.5C78.464 59.4121 79.1116 59.4105 79.5946 59.3456C80.0561 59.2835 80.2536 59.1763 80.3839 59.046C80.5142 58.9157 80.6214 58.7182 80.6835 58.2567C80.7484 57.7737 80.75 57.1261 80.75 56.1621V55.0621C80.75 54.3929 80.7492 53.9437 80.7165 53.5999C80.6849 53.2674 80.6288 53.1118 80.5658 53.009C80.4627 52.8408 80.3213 52.6994 80.1531 52.5963C80.0503 52.5333 79.8947 52.4772 79.5622 52.4456ZM79.7042 50.9523C80.1465 50.9944 80.5588 51.0856 80.9369 51.3173C81.3069 51.5441 81.618 51.8552 81.8448 52.2252C82.0765 52.6034 82.1677 53.0156 82.2098 53.458C82.25 53.8811 82.25 54.4021 82.25 55.0264V56.2141C82.25 57.1126 82.2501 57.8618 82.1701 58.4566C82.0857 59.0844 81.9 59.6512 81.4445 60.1066C80.9891 60.5621 80.4223 60.7478 79.7945 60.8322C79.1997 60.9122 78.4505 60.9121 77.552 60.9121H76.3643C75.74 60.9121 75.219 60.9121 74.7959 60.8719C74.3535 60.8298 73.9413 60.7386 73.5631 60.5069C73.1931 60.2801 72.882 59.969 72.6552 59.599C72.4235 59.2209 72.3323 58.8086 72.2902 58.3663C72.25 57.9431 72.25 57.4221 72.25 56.7978V56.7245C72.25 55.7744 72.25 55.0082 72.3086 54.3914C72.3691 53.7553 72.4972 53.2011 72.8026 52.7027C73.1118 52.1982 73.5361 51.7739 74.0406 51.4647C74.539 51.1593 75.0932 51.0312 75.7293 50.9707C76.3461 50.9121 77.1123 50.9121 78.0624 50.9121H78.1357C78.76 50.9121 79.281 50.9121 79.7042 50.9523Z" fill="#06DB8F"/>
<path d="M76 55.9121C76 55.3967 76 55.139 76.1291 54.957C76.1747 54.8928 76.2307 54.8368 76.2949 54.7912C76.4769 54.6621 76.7346 54.6621 77.25 54.6621C77.7654 54.6621 78.0231 54.6621 78.2051 54.7912C78.2693 54.8368 78.3253 54.8928 78.3709 54.957C78.5 55.139 78.5 55.3967 78.5 55.9121C78.5 56.4275 78.5 56.6852 78.3709 56.8672C78.3253 56.9314 78.2693 56.9874 78.2051 57.033C78.0231 57.1621 77.7654 57.1621 77.25 57.1621C76.7346 57.1621 76.4769 57.1621 76.2949 57.033C76.2307 56.9874 76.1747 56.9314 76.1291 56.8672C76 56.6852 76 56.4275 76 55.9121ZM76 67.4121C76 66.8967 76 66.639 76.1291 66.457C76.1747 66.3928 76.2307 66.3368 76.2949 66.2912C76.4769 66.1621 76.7346 66.1621 77.25 66.1621C77.7654 66.1621 78.0231 66.1621 78.2051 66.2912C78.2693 66.3368 78.3253 66.3928 78.3709 66.457C78.5 66.639 78.5 66.8967 78.5 67.4121C78.5 67.9275 78.5 68.1852 78.3709 68.3672C78.3253 68.4314 78.2693 68.4874 78.2051 68.533C78.0231 68.6621 77.7654 68.6621 77.25 68.6621C76.7346 68.6621 76.4769 68.6621 76.2949 68.533C76.2307 68.4874 76.1747 68.4314 76.1291 68.3672C76 68.1852 76 67.9275 76 67.4121ZM87 67.4121C87 66.7099 87 66.3588 87.1685 66.1065C87.2415 65.9973 87.3352 65.9036 87.4444 65.8306C87.6967 65.6621 88.0478 65.6621 88.75 65.6621C89.4522 65.6621 89.8033 65.6621 90.0556 65.8306C90.1648 65.9036 90.2585 65.9973 90.3315 66.1065C90.5 66.3588 90.5 66.7099 90.5 67.4121C90.5 68.1143 90.5 68.4654 90.3315 68.7177C90.2585 68.8269 90.1648 68.9206 90.0556 68.9936C89.8033 69.1621 89.4522 69.1621 88.75 69.1621C88.0478 69.1621 87.6967 69.1621 87.4444 68.9936C87.3352 68.9206 87.2415 68.8269 87.1685 68.7177C87 68.4654 87 68.1143 87 67.4121Z" fill="#06DB8F"/>
<path d="M114.203 64.6658V62.324L112.298 63.4227V65.7665L114.203 64.6658Z" fill="white"/>
<path d="M114.203 58.6584L112.227 57.5166L109 59.3803L105.773 57.5166L103.797 58.6584V60.7341L107.078 62.6297V66.5616L109 67.6716L110.922 66.5616V62.6297L114.203 60.7341V58.6584ZM117.503 58.8291V56.7534L115.527 55.6116L113.603 56.7216L115.579 57.8634V59.9391L117.503 58.8291ZM102.421 59.9391V57.8634L104.397 56.7216L102.473 55.6116L100.497 56.7534V58.8291L102.421 59.9391Z" fill="white"/>
<path d="M103.797 64.666L105.702 65.7666V63.4228L103.797 62.3241V64.666ZM110.922 68.1516L109 69.2616L107.078 68.1516V70.3716L109 71.4816L110.922 70.3716V68.1516ZM110.851 56.7216L109 55.6528L107.149 56.7216L109 57.7903L110.851 56.7216ZM115.579 61.5291V65.461L112.298 67.3566V69.5766L117.503 66.571V60.4191L115.579 61.5291Z" fill="white"/>
<path d="M105.702 67.3565L102.421 65.4609V61.529L100.497 60.419V66.5709L105.702 69.5765V67.3565ZM105.773 55.9265L109 54.0646L112.227 55.9265L114.151 54.8165L109 51.8428L103.849 54.8165L105.773 55.9265Z" fill="white"/>
<path d="M89.9376 89.1077C89.2438 87.6077 87.5282 87.0152 87.5282 87.0152C87.5282 87.0152 89.6901 85.9052 89.2157 83.7264C88.9101 82.3052 87.622 80.8764 85.2238 80.8408V78.7783H83.0882V80.8408H81.5338V78.7783H79.4001V80.8408H76.7207V82.7871H77.9582C78.0247 82.7871 78.0905 82.8002 78.1519 82.8256C78.2134 82.851 78.2692 82.8883 78.3162 82.9353C78.3632 82.9824 78.4005 83.0382 78.4259 83.0996C78.4514 83.161 78.4645 83.2268 78.4645 83.2933V91.6933C78.4645 91.8425 78.4052 91.9856 78.2997 92.0911C78.1942 92.1966 78.0511 92.2558 77.902 92.2558H77.1651L76.7207 94.3502H79.4001V96.5533H81.5338V94.3502H83.0882V96.5533H85.222V94.3502H85.6345C89.7651 94.3502 90.8751 91.1721 89.9376 89.1077ZM83.707 82.7871C84.7926 82.7871 85.7995 83.4864 85.8276 84.5589C85.8557 85.6314 84.967 86.5577 83.7876 86.5727C82.702 86.5858 81.5376 86.5727 81.5376 86.5727V82.7871H83.707ZM84.3445 92.2502C83.2195 92.2708 81.532 92.2502 81.532 92.2502V88.3127C81.532 88.3127 83.0901 88.3352 84.2526 88.3127C85.6513 88.2902 86.6807 88.9427 86.6901 90.1746C86.6995 91.4064 85.8613 92.2258 84.3445 92.2539V92.2502Z" fill="white"/>
<path d="M109 82.1946L115.671 86.5446L109 76.9746L102.482 86.5502L109 82.1946Z" fill="#06DB8F"/>
<path d="M115.733 87.6583L109 83.4302L102.267 87.6621L109 91.8939L115.733 87.6583Z" fill="#06DB8F"/>
<path d="M102.329 88.7741L109 98.3497L115.518 88.7722L109 93.1297L102.329 88.7741Z" fill="#06DB8F"/>
</svg>
