<svg
  width="128"
  height="129"
  viewBox="0 0 128 129"
  fill="none"
  xmlns="http://www.w3.org/2000/svg"
>
  <path
    d="M18.95 21.8223C18.5428 22.2408 18.1931 22.7116 17.91 23.2223H17.8992C17.8111 23.3746 17.6843 23.5011 17.5317 23.5889C17.3791 23.6766 17.2061 23.7226 17.0301 23.7223C16.858 23.7243 16.6886 23.6793 16.5401 23.5923C16.3876 23.504 16.2611 23.3771 16.1733 23.2244C16.0856 23.0716 16.0396 22.8984 16.0401 22.7223C16.0383 22.5502 16.0832 22.3808 16.1701 22.2323C16.5408 21.5793 16.9909 20.9747 17.5101 20.4323C17.6964 20.2502 17.9463 20.1479 18.2067 20.1471C18.4672 20.1463 18.7177 20.2471 18.9051 20.428C19.0925 20.6089 19.202 20.8557 19.2104 21.116C19.2188 21.3763 19.1254 21.6297 18.95 21.8223ZM16 31.5423C15.735 31.5431 15.4812 31.6487 15.2938 31.8361C15.1064 32.0234 15.0008 32.2773 15 32.5423V34.5423C15 34.8075 15.1054 35.0618 15.2929 35.2494C15.4804 35.4369 15.7348 35.5423 16 35.5423C16.2652 35.5423 16.5196 35.4369 16.7071 35.2494C16.8946 35.0618 17 34.8075 17 34.5423V32.5423C16.9992 32.2773 16.8936 32.0234 16.7062 31.8361C16.5188 31.6487 16.265 31.5431 16 31.5423ZM21.59 20.0323C21.692 20.031 21.7932 20.0139 21.89 19.9815C22.4483 19.8075 23.0261 19.7036 23.61 19.672C23.8746 19.6566 24.1224 19.537 24.299 19.3394C24.4756 19.1417 24.5666 18.8821 24.5521 18.6174C24.5376 18.3528 24.4188 18.1046 24.2217 17.9274C24.0246 17.7502 23.7653 17.6583 23.5006 17.672C22.7497 17.7154 22.0072 17.8531 21.2906 18.082C21.0879 18.1451 20.9107 18.2712 20.7848 18.4421C20.6588 18.613 20.5908 18.8197 20.5906 19.032C20.5925 19.1339 20.6094 19.2349 20.6406 19.332C20.7024 19.5353 20.8281 19.7134 20.9992 19.8395C21.1702 19.9657 21.3774 20.0333 21.59 20.0323ZM16 37.5423C15.735 37.5431 15.4812 37.6487 15.2938 37.8361C15.1065 38.0234 15.0008 38.2773 15 38.5423V40.5423C15 40.8075 15.1054 41.0618 15.2929 41.2494C15.4804 41.4369 15.7348 41.5423 16 41.5423C16.2652 41.5423 16.5196 41.4369 16.7071 41.2494C16.8946 41.0618 17 40.8075 17 40.5423V38.5423C16.9992 38.2773 16.8935 38.0234 16.7062 37.8361C16.5188 37.6487 16.265 37.5431 16 37.5423ZM16.01 25.5423H16C15.7371 25.544 15.4852 25.6486 15.2984 25.8336C15.1115 26.0186 15.0044 26.2693 15 26.5323V28.5423C15 28.8075 15.1054 29.0618 15.2929 29.2494C15.4804 29.4369 15.7348 29.5423 16 29.5423C16.2652 29.5423 16.5196 29.4369 16.7071 29.2494C16.8946 29.0618 17 28.8075 17 28.5423V26.5623C17.0039 26.2957 16.9018 26.0386 16.7162 25.8473C16.5305 25.656 16.2765 25.5463 16.01 25.5423ZM78.5693 123.662H76.5693C76.3041 123.662 76.0497 123.768 75.8622 123.955C75.6747 124.143 75.5693 124.397 75.5693 124.662C75.5693 124.927 75.6747 125.182 75.8622 125.369C76.0497 125.557 76.3041 125.662 76.5693 125.662H78.5693C78.8345 125.662 79.0889 125.557 79.2764 125.369C79.4639 125.182 79.5693 124.927 79.5693 124.662C79.5693 124.397 79.4639 124.143 79.2764 123.955C79.0889 123.768 78.8345 123.662 78.5693 123.662ZM89.12 121.432L89.1159 121.433L89.1123 121.435L89.11 121.439L89.1093 121.443C88.7113 121.864 88.2651 122.236 87.78 122.552C87.6681 122.622 87.5714 122.714 87.4957 122.822C87.42 122.931 87.3669 123.053 87.3395 123.182C87.2892 123.441 87.3392 123.709 87.4795 123.932C87.5697 124.073 87.6939 124.189 87.8407 124.27C87.9875 124.35 88.1522 124.392 88.3195 124.392C88.5109 124.39 88.698 124.335 88.8595 124.232C89.4941 123.83 90.0726 123.346 90.58 122.792C90.7518 122.611 90.8482 122.372 90.8495 122.122C90.851 121.983 90.8234 121.846 90.7684 121.718C90.7134 121.591 90.6322 121.476 90.5302 121.382C90.3345 121.206 90.0781 121.113 89.815 121.122C89.5519 121.132 89.3027 121.243 89.12 121.432ZM92 115.662C91.735 115.663 91.4812 115.769 91.2938 115.956C91.1065 116.143 91.0008 116.397 91 116.662C91.0012 117.246 90.9273 117.827 90.78 118.392C90.7144 118.65 90.7534 118.922 90.8883 119.151C91.0232 119.38 91.2431 119.546 91.5 119.613C91.582 119.632 91.6658 119.642 91.75 119.642C91.9722 119.643 92.1883 119.57 92.364 119.434C92.5398 119.298 92.6651 119.108 92.72 118.892C92.904 118.163 92.998 117.414 93 116.662C92.9992 116.397 92.8935 116.143 92.7062 115.956C92.5188 115.769 92.265 115.663 92 115.662ZM72.5693 123.662H70.5693C70.3041 123.662 70.0497 123.768 69.8622 123.955C69.6747 124.143 69.5693 124.397 69.5693 124.662C69.5693 124.927 69.6747 125.182 69.8622 125.369C70.0497 125.557 70.3041 125.662 70.5693 125.662H72.5693C72.8345 125.662 73.0889 125.557 73.2764 125.369C73.4639 125.182 73.5693 124.927 73.5693 124.662C73.5693 124.397 73.4639 124.143 73.2764 123.955C73.0889 123.768 72.8345 123.662 72.5693 123.662ZM84.5 123.642C84.3193 123.653 84.1494 123.662 84 123.662H82.5693C82.3041 123.662 82.0497 123.768 81.8622 123.955C81.6747 124.143 81.5693 124.397 81.5693 124.662C81.5693 124.927 81.6747 125.182 81.8622 125.369C82.0497 125.557 82.3041 125.662 82.5693 125.662H84C84.24 125.662 84.45 125.652 84.64 125.642C84.8904 125.623 85.1245 125.511 85.2965 125.328C85.4686 125.145 85.5661 124.904 85.57 124.653C85.5715 124.626 85.5681 124.599 85.56 124.573C85.5417 124.309 85.4201 124.064 85.2215 123.889C85.023 123.715 84.7637 123.626 84.5 123.642ZM112 95.5323C111.735 95.533 111.481 95.6385 111.294 95.8259C111.106 96.0133 111.001 96.2673 111 96.5323V98.5323C111 98.7975 111.105 99.0518 111.293 99.2394C111.48 99.4269 111.735 99.5323 112 99.5323C112.265 99.5323 112.52 99.4269 112.707 99.2394C112.895 99.0518 113 98.7975 113 98.5323V96.5323C112.999 96.2673 112.894 96.0133 112.706 95.8259C112.519 95.6385 112.265 95.533 112 95.5323ZM112 89.5323C111.735 89.533 111.481 89.6385 111.294 89.8259C111.106 90.0133 111.001 90.2673 111 90.5323V92.5323C111 92.7975 111.105 93.0518 111.293 93.2394C111.48 93.4269 111.735 93.5323 112 93.5323C112.265 93.5323 112.52 93.4269 112.707 93.2394C112.895 93.0518 113 92.7975 113 92.5323V90.5323C112.999 90.2673 112.894 90.0133 112.706 89.8259C112.519 89.6385 112.265 89.533 112 89.5323ZM112 83.5323C111.735 83.533 111.481 83.6385 111.294 83.8259C111.106 84.0133 111.001 84.2673 111 84.5323V86.5323C111 86.7975 111.105 87.0518 111.293 87.2394C111.48 87.4269 111.735 87.5323 112 87.5323C112.265 87.5323 112.52 87.4269 112.707 87.2394C112.895 87.0518 113 86.7975 113 86.5323V84.5323C112.999 84.2673 112.894 84.0133 112.706 83.8259C112.519 83.6385 112.265 83.533 112 83.5323ZM108.569 106.962C108.236 107.247 107.879 107.502 107.5 107.722C107.386 107.788 107.286 107.876 107.206 107.981C107.127 108.086 107.068 108.205 107.035 108.332C107.001 108.46 106.993 108.592 107.012 108.723C107.03 108.853 107.073 108.979 107.14 109.092C107.277 109.318 107.497 109.482 107.752 109.549C108.008 109.616 108.279 109.581 108.51 109.452C108.994 109.166 109.453 108.838 109.88 108.472C109.988 108.377 110.074 108.26 110.134 108.129C110.195 107.998 110.227 107.856 110.23 107.712C110.229 107.472 110.14 107.241 109.98 107.062C109.802 106.868 109.557 106.75 109.295 106.731C109.032 106.713 108.773 106.795 108.569 106.962ZM112.059 101.532C111.797 101.505 111.535 101.582 111.329 101.747C111.123 101.911 110.99 102.151 110.959 102.412V102.422C110.896 103.003 110.762 103.574 110.559 104.122C110.511 104.244 110.487 104.374 110.491 104.504C110.494 104.635 110.524 104.764 110.579 104.882C110.633 105.002 110.711 105.109 110.807 105.199C110.903 105.288 111.016 105.357 111.139 105.402C111.249 105.45 111.369 105.474 111.489 105.472C111.693 105.471 111.893 105.409 112.06 105.293C112.228 105.177 112.357 105.013 112.429 104.822C112.688 104.115 112.863 103.38 112.949 102.632V102.532C112.951 102.285 112.861 102.046 112.697 101.861C112.533 101.676 112.305 101.559 112.059 101.532ZM109.889 37.8823C109.979 38.0241 110.103 38.1408 110.25 38.2213C110.397 38.3018 110.562 38.3434 110.729 38.3423C110.921 38.3403 111.108 38.2849 111.269 38.1823C111.49 38.0371 111.645 37.8113 111.701 37.5534C111.757 37.2955 111.71 37.0259 111.569 36.8023C111.167 36.168 110.683 35.5897 110.13 35.0823C109.933 34.9084 109.677 34.8167 109.415 34.826C109.153 34.8353 108.904 34.9449 108.72 35.1323C108.632 35.2239 108.563 35.332 108.516 35.4504C108.47 35.5688 108.447 35.6951 108.45 35.8223C108.448 35.9581 108.476 36.0927 108.531 36.2169C108.586 36.3411 108.668 36.4521 108.769 36.5423C109.196 36.942 109.571 37.392 109.889 37.8823ZM112.979 41.0223C112.957 40.7587 112.833 40.5141 112.633 40.3405C112.434 40.1669 112.174 40.0778 111.91 40.0923C111.657 40.1108 111.421 40.2241 111.248 40.4096C111.076 40.5951 110.98 40.8389 110.979 41.0923V41.1623C110.99 41.3117 110.999 41.4816 110.999 41.6623V42.5923C110.999 42.8575 111.105 43.1118 111.292 43.2994C111.48 43.4869 111.734 43.5923 111.999 43.5923C112.265 43.5923 112.519 43.4869 112.706 43.2994C112.894 43.1118 112.999 42.8575 112.999 42.5923V41.6623C113 41.4423 112.989 41.2323 112.979 41.0223ZM104 34.6623C104.584 34.6593 105.165 34.7333 105.73 34.8823C105.812 34.9023 105.896 34.9124 105.98 34.9123C106.224 34.913 106.46 34.8245 106.643 34.6634C106.827 34.5023 106.945 34.2798 106.975 34.0377C107.006 33.7956 106.947 33.5507 106.81 33.3489C106.673 33.1472 106.466 33.0025 106.23 32.9423C105.502 32.7543 104.752 32.6602 104 32.6623C103.735 32.6623 103.48 32.7676 103.293 32.9552C103.105 33.1427 103 33.397 103 33.6623C103 33.9275 103.105 34.1818 103.293 34.3694C103.48 34.5569 103.735 34.6623 104 34.6623ZM104 106.662H102C101.221 106.66 100.453 106.475 99.7584 106.123C99.0637 105.77 98.4615 105.259 98 104.631C97.5385 105.259 96.9363 105.77 96.2416 106.123C95.5469 106.475 94.7791 106.66 94 106.662H89V116.662C88.9984 117.988 88.4711 119.259 87.5338 120.196C86.5965 121.133 85.3256 121.661 84 121.662H24C22.6744 121.661 21.4035 121.133 20.4662 120.196C19.5288 119.259 19.0016 117.988 19 116.662V26.6623C19.0016 25.3367 19.5288 24.0658 20.4662 23.1285C21.4035 22.1911 22.6744 21.6638 24 21.6623H28C28.0016 20.3367 28.5288 19.0658 29.4662 18.1285C30.4035 17.1911 31.6744 16.6638 33 16.6623H40V4.66226C40 4.46451 40.0587 4.27121 40.1686 4.1068C40.2785 3.94239 40.4346 3.81425 40.6173 3.73858C40.8 3.66291 41.0011 3.64311 41.195 3.68168C41.389 3.72025 41.5671 3.81545 41.707 3.95526L47.9434 10.1923L53.2412 4.01226C53.3379 3.90743 53.4552 3.82377 53.5858 3.76654C53.7164 3.70932 53.8574 3.67977 54 3.67977C54.1426 3.67977 54.2836 3.70932 54.4142 3.76654C54.5448 3.82377 54.6621 3.90743 54.7588 4.01226L60.0566 10.1923L66.293 3.95546C66.4328 3.81567 66.611 3.72046 66.8049 3.68189C66.9989 3.64331 67.1999 3.6631 67.3826 3.73875C67.5653 3.81439 67.7214 3.9425 67.8313 4.10688C67.9412 4.27126 67.9999 4.46453 68 4.66226V16.6623H75C76.3256 16.6638 77.5965 17.1911 78.5338 18.1285C79.4711 19.0658 79.9984 20.3367 80 21.6623H84C85.3256 21.6638 86.5965 22.1911 87.5338 23.1285C88.4711 24.0658 88.9984 25.3367 89 26.6623V36.6623H94C94.7791 36.6644 95.5469 36.8492 96.2416 37.2019C96.9363 37.5547 97.5385 38.0654 98 38.6932C98.4615 38.0654 99.0637 37.5547 99.7584 37.2019C100.453 36.8492 101.221 36.6644 102 36.6623H104C105.326 36.6638 106.596 37.1911 107.534 38.1285C108.471 39.0658 108.998 40.3367 109 41.6623V101.662C108.998 102.988 108.471 104.259 107.534 105.196C106.596 106.133 105.326 106.661 104 106.662ZM42 31.6623H66V7.07656L60.707 12.3695C60.6105 12.468 60.4942 12.545 60.3657 12.5953C60.2373 12.6457 60.0997 12.6682 59.9619 12.6615C59.8242 12.6563 59.6891 12.6227 59.565 12.5627C59.441 12.5027 59.3307 12.4176 59.2412 12.3129L54 6.19856L48.7588 12.3129C48.6693 12.4176 48.559 12.5027 48.435 12.5627C48.3109 12.6227 48.1758 12.6563 48.0381 12.6615C47.9003 12.6684 47.7626 12.646 47.6341 12.5957C47.5057 12.5453 47.3894 12.4682 47.293 12.3695L42 7.07656V31.6623ZM30 55.6623C30.0009 56.4576 30.3172 57.2202 30.8796 57.7826C31.4421 58.345 32.2046 58.6614 33 58.6623H75C75.7954 58.6614 76.5579 58.345 77.1204 57.7826C77.6828 57.2202 77.9991 56.4576 78 55.6623V21.6623C77.9991 20.8669 77.6828 20.1043 77.1204 19.5419C76.5579 18.9795 75.7954 18.6631 75 18.6623H68V31.6623H71C71.2652 31.6623 71.5196 31.7676 71.7071 31.9552C71.8946 32.1427 72 32.397 72 32.6623C72 32.9275 71.8946 33.1818 71.7071 33.3694C71.5196 33.5569 71.2652 33.6623 71 33.6623H37C36.7348 33.6623 36.4804 33.5569 36.2929 33.3694C36.1054 33.1818 36 32.9275 36 32.6623C36 32.397 36.1054 32.1427 36.2929 31.9552C36.4804 31.7676 36.7348 31.6623 37 31.6623H40V18.6623H33C32.2046 18.6631 31.4421 18.9795 30.8796 19.5419C30.3172 20.1043 30.0009 20.8669 30 21.6623V55.6623ZM87 26.6623C86.9991 25.8669 86.6828 25.1043 86.1204 24.5419C85.5579 23.9795 84.7954 23.6631 84 23.6623H80V55.6623C79.9984 56.9879 79.4711 58.2587 78.5338 59.1961C77.5965 60.1334 76.3256 60.6607 75 60.6623H33C31.6744 60.6607 30.4035 60.1334 29.4662 59.1961C28.5288 58.2587 28.0016 56.9879 28 55.6623V23.6623H24C23.2046 23.6631 22.4421 23.9795 21.8796 24.5419C21.3172 25.1043 21.0009 25.8669 21 26.6623V116.662C21.0009 117.458 21.3172 118.22 21.8796 118.783C22.4421 119.345 23.2046 119.661 24 119.662H84C84.7954 119.661 85.5579 119.345 86.1204 118.783C86.6828 118.22 86.9991 117.458 87 116.662V26.6623ZM97 41.6623C96.9991 40.8669 96.6828 40.1043 96.1204 39.5419C95.5579 38.9795 94.7954 38.6631 94 38.6623H89V104.662H94C94.7954 104.661 95.5579 104.345 96.1204 103.783C96.6828 103.22 96.9991 102.458 97 101.662V41.6623ZM107 41.6623C106.999 40.8669 106.683 40.1043 106.12 39.5419C105.558 38.9795 104.795 38.6631 104 38.6623H102C101.205 38.6631 100.442 38.9795 99.8796 39.5419C99.3172 40.1043 99.0009 40.8669 99 41.6623V101.662C99.0009 102.458 99.3172 103.22 99.8796 103.783C100.442 104.345 101.205 104.661 102 104.662H104C104.795 104.661 105.558 104.345 106.12 103.783C106.683 103.22 106.999 102.458 107 101.662V41.6623ZM43 68.6623V72.6623C42.9991 73.4576 42.6828 74.2202 42.1204 74.7826C41.5579 75.345 40.7954 75.6614 40 75.6623H34C33.2046 75.6614 32.4421 75.345 31.8796 74.7826C31.3172 74.2202 31.0009 73.4576 31 72.6623V68.6623C31.0009 67.8669 31.3172 67.1043 31.8796 66.5419C32.4421 65.9795 33.2046 65.6631 34 65.6623H40C40.7954 65.6631 41.5579 65.9795 42.1204 66.5419C42.6828 67.1043 42.9991 67.8669 43 68.6623ZM41 68.6623C40.9998 68.3971 40.8944 68.1428 40.7069 67.9553C40.5194 67.7678 40.2652 67.6624 40 67.6623H34C33.7348 67.6624 33.4806 67.7678 33.2931 67.9553C33.1056 68.1428 33.0002 68.3971 33 68.6623V72.6623C33.0002 72.9274 33.1056 73.1817 33.2931 73.3692C33.4806 73.5567 33.7348 73.6621 34 73.6623H40C40.2652 73.6621 40.5194 73.5567 40.7069 73.3692C40.8944 73.1817 40.9998 72.9274 41 72.6623V68.6623ZM77 68.6623V72.6623C76.9991 73.4576 76.6828 74.2202 76.1204 74.7826C75.5579 75.345 74.7954 75.6614 74 75.6623H68C67.2046 75.6614 66.4421 75.345 65.8796 74.7826C65.3172 74.2202 65.0009 73.4576 65 72.6623V68.6623C65.0009 67.8669 65.3172 67.1043 65.8796 66.5419C66.4421 65.9795 67.2046 65.6631 68 65.6623H74C74.7954 65.6631 75.5579 65.9795 76.1204 66.5419C76.6828 67.1043 76.9991 67.8669 77 68.6623ZM75 68.6623C74.9998 68.3971 74.8944 68.1428 74.7069 67.9553C74.5194 67.7678 74.2652 67.6624 74 67.6623H68C67.7348 67.6624 67.4806 67.7678 67.2931 67.9553C67.1056 68.1428 67.0002 68.3971 67 68.6623V72.6623C67.0002 72.9274 67.1056 73.1817 67.2931 73.3692C67.4806 73.5567 67.7348 73.6621 68 73.6623H74C74.2652 73.6621 74.5194 73.5567 74.7069 73.3692C74.8944 73.1817 74.9998 72.9274 75 72.6623V68.6623ZM60 68.6623V72.6623C59.9991 73.4576 59.6828 74.2202 59.1204 74.7826C58.5579 75.345 57.7954 75.6614 57 75.6623H51C50.2046 75.6614 49.4421 75.345 48.8796 74.7826C48.3172 74.2202 48.0009 73.4576 48 72.6623V68.6623C48.0009 67.8669 48.3172 67.1043 48.8796 66.5419C49.4421 65.9795 50.2046 65.6631 51 65.6623H57C57.7954 65.6631 58.5579 65.9795 59.1204 66.5419C59.6828 67.1043 59.9991 67.8669 60 68.6623ZM58 68.6623C57.9998 68.3971 57.8944 68.1428 57.7069 67.9553C57.5194 67.7678 57.2652 67.6624 57 67.6623H51C50.7348 67.6624 50.4806 67.7678 50.2931 67.9553C50.1056 68.1428 50.0002 68.3971 50 68.6623V72.6623C50.0002 72.9274 50.1056 73.1817 50.2931 73.3692C50.4806 73.5567 50.7348 73.6621 51 73.6623H57C57.2652 73.6621 57.5194 73.5567 57.7069 73.3692C57.8944 73.1817 57.9998 72.9274 58 72.6623V68.6623ZM43 81.6623V85.6623C42.9991 86.4576 42.6828 87.2202 42.1204 87.7826C41.5579 88.345 40.7954 88.6614 40 88.6623H34C33.2046 88.6614 32.4421 88.345 31.8796 87.7826C31.3172 87.2202 31.0009 86.4576 31 85.6623V81.6623C31.0009 80.8669 31.3172 80.1043 31.8796 79.5419C32.4421 78.9795 33.2046 78.6631 34 78.6623H40C40.7954 78.6631 41.5579 78.9795 42.1204 79.5419C42.6828 80.1043 42.9991 80.8669 43 81.6623ZM41 81.6623C40.9998 81.3971 40.8944 81.1428 40.7069 80.9553C40.5194 80.7678 40.2652 80.6624 40 80.6623H34C33.7348 80.6624 33.4806 80.7678 33.2931 80.9553C33.1056 81.1428 33.0002 81.3971 33 81.6623V85.6623C33.0002 85.9274 33.1056 86.1817 33.2931 86.3692C33.4806 86.5567 33.7348 86.6621 34 86.6623H40C40.2652 86.6621 40.5194 86.5567 40.7069 86.3692C40.8944 86.1817 40.9998 85.9274 41 85.6623V81.6623ZM77 81.6623V85.6623C76.9991 86.4576 76.6828 87.2202 76.1204 87.7826C75.5579 88.345 74.7954 88.6614 74 88.6623H68C67.2046 88.6614 66.4421 88.345 65.8796 87.7826C65.3172 87.2202 65.0009 86.4576 65 85.6623V81.6623C65.0009 80.8669 65.3172 80.1043 65.8796 79.5419C66.4421 78.9795 67.2046 78.6631 68 78.6623H74C74.7954 78.6631 75.5579 78.9795 76.1204 79.5419C76.6828 80.1043 76.9991 80.8669 77 81.6623ZM75 81.6623C74.9998 81.3971 74.8944 81.1428 74.7069 80.9553C74.5194 80.7678 74.2652 80.6624 74 80.6623H68C67.7348 80.6624 67.4806 80.7678 67.2931 80.9553C67.1056 81.1428 67.0002 81.3971 67 81.6623V85.6623C67.0002 85.9274 67.1056 86.1817 67.2931 86.3692C67.4806 86.5567 67.7348 86.6621 68 86.6623H74C74.2652 86.6621 74.5194 86.5567 74.7069 86.3692C74.8944 86.1817 74.9998 85.9274 75 85.6623V81.6623ZM60 81.6623V85.6623C59.9991 86.4576 59.6828 87.2202 59.1204 87.7826C58.5579 88.345 57.7954 88.6614 57 88.6623H51C50.2046 88.6614 49.4421 88.345 48.8796 87.7826C48.3172 87.2202 48.0009 86.4576 48 85.6623V81.6623C48.0009 80.8669 48.3172 80.1043 48.8796 79.5419C49.4421 78.9795 50.2046 78.6631 51 78.6623H57C57.7954 78.6631 58.5579 78.9795 59.1204 79.5419C59.6828 80.1043 59.9991 80.8669 60 81.6623ZM58 81.6623C57.9998 81.3971 57.8944 81.1428 57.7069 80.9553C57.5194 80.7678 57.2652 80.6624 57 80.6623H51C50.7348 80.6624 50.4806 80.7678 50.2931 80.9553C50.1056 81.1428 50.0002 81.3971 50 81.6623V85.6623C50.0002 85.9274 50.1056 86.1817 50.2931 86.3692C50.4806 86.5567 50.7348 86.6621 51 86.6623H57C57.2652 86.6621 57.5194 86.5567 57.7069 86.3692C57.8944 86.1817 57.9998 85.9274 58 85.6623V81.6623ZM43 94.6623V98.6623C42.9991 99.4576 42.6828 100.22 42.1204 100.783C41.5579 101.345 40.7954 101.661 40 101.662H34C33.2046 101.661 32.4421 101.345 31.8796 100.783C31.3172 100.22 31.0009 99.4576 31 98.6623V94.6623C31.0009 93.8669 31.3172 93.1043 31.8796 92.5419C32.4421 91.9795 33.2046 91.6631 34 91.6623H40C40.7954 91.6631 41.5579 91.9795 42.1204 92.5419C42.6828 93.1043 42.9991 93.8669 43 94.6623ZM41 94.6623C40.9998 94.3971 40.8944 94.1428 40.7069 93.9553C40.5194 93.7678 40.2652 93.6624 40 93.6623H34C33.7348 93.6624 33.4806 93.7678 33.2931 93.9553C33.1056 94.1428 33.0002 94.3971 33 94.6623V98.6623C33.0002 98.9274 33.1056 99.1817 33.2931 99.3692C33.4806 99.5567 33.7348 99.6621 34 99.6623H40C40.2652 99.6621 40.5194 99.5567 40.7069 99.3692C40.8944 99.1817 40.9998 98.9274 41 98.6623V94.6623ZM77 94.6623V98.6623C76.9991 99.4576 76.6828 100.22 76.1204 100.783C75.5579 101.345 74.7954 101.661 74 101.662H68C67.2046 101.661 66.4421 101.345 65.8796 100.783C65.3172 100.22 65.0009 99.4576 65 98.6623V94.6623C65.0009 93.8669 65.3172 93.1043 65.8796 92.5419C66.4421 91.9795 67.2046 91.6631 68 91.6623H74C74.7954 91.6631 75.5579 91.9795 76.1204 92.5419C76.6828 93.1043 76.9991 93.8669 77 94.6623ZM75 94.6623C74.9998 94.3971 74.8944 94.1428 74.7069 93.9553C74.5194 93.7678 74.2652 93.6624 74 93.6623H68C67.7348 93.6624 67.4806 93.7678 67.2931 93.9553C67.1056 94.1428 67.0002 94.3971 67 94.6623V98.6623C67.0002 98.9274 67.1056 99.1817 67.2931 99.3692C67.4806 99.5567 67.7348 99.6621 68 99.6623H74C74.2652 99.6621 74.5194 99.5567 74.7069 99.3692C74.8944 99.1817 74.9998 98.9274 75 98.6623V94.6623ZM60 94.6623V98.6623C59.9991 99.4576 59.6828 100.22 59.1204 100.783C58.5579 101.345 57.7954 101.661 57 101.662H51C50.2046 101.661 49.4421 101.345 48.8796 100.783C48.3172 100.22 48.0009 99.4576 48 98.6623V94.6623C48.0009 93.8669 48.3172 93.1043 48.8796 92.5419C49.4421 91.9795 50.2046 91.6631 51 91.6623H57C57.7954 91.6631 58.5579 91.9795 59.1204 92.5419C59.6828 93.1043 59.9991 93.8669 60 94.6623ZM58 94.6623C57.9998 94.3971 57.8944 94.1428 57.7069 93.9553C57.5194 93.7678 57.2652 93.6624 57 93.6623H51C50.7348 93.6624 50.4806 93.7678 50.2931 93.9553C50.1056 94.1428 50.0002 94.3971 50 94.6623V98.6623C50.0002 98.9274 50.1056 99.1817 50.2931 99.3692C50.4806 99.5567 50.7348 99.6621 51 99.6623H57C57.2652 99.6621 57.5194 99.5567 57.7069 99.3692C57.8944 99.1817 57.9998 98.9274 58 98.6623V94.6623ZM43 107.662V111.662C42.9991 112.458 42.6828 113.22 42.1204 113.783C41.5579 114.345 40.7954 114.661 40 114.662H34C33.2046 114.661 32.4421 114.345 31.8796 113.783C31.3172 113.22 31.0009 112.458 31 111.662V107.662C31.0009 106.867 31.3172 106.104 31.8796 105.542C32.4421 104.979 33.2046 104.663 34 104.662H40C40.7954 104.663 41.5579 104.979 42.1204 105.542C42.6828 106.104 42.9991 106.867 43 107.662ZM41 107.662C40.9998 107.397 40.8944 107.143 40.7069 106.955C40.5194 106.768 40.2652 106.662 40 106.662H34C33.7348 106.662 33.4806 106.768 33.2931 106.955C33.1056 107.143 33.0002 107.397 33 107.662V111.662C33.0002 111.927 33.1056 112.182 33.2931 112.369C33.4806 112.557 33.7348 112.662 34 112.662H40C40.2652 112.662 40.5194 112.557 40.7069 112.369C40.8944 112.182 40.9998 111.927 41 111.662V107.662ZM77 107.662V111.662C76.9991 112.458 76.6828 113.22 76.1204 113.783C75.5579 114.345 74.7954 114.661 74 114.662H68C67.2046 114.661 66.4421 114.345 65.8796 113.783C65.3172 113.22 65.0009 112.458 65 111.662V107.662C65.0009 106.867 65.3172 106.104 65.8796 105.542C66.4421 104.979 67.2046 104.663 68 104.662H74C74.7954 104.663 75.5579 104.979 76.1204 105.542C76.6828 106.104 76.9991 106.867 77 107.662ZM75 107.662C74.9998 107.397 74.8944 107.143 74.7069 106.955C74.5194 106.768 74.2652 106.662 74 106.662H68C67.7348 106.662 67.4806 106.768 67.2931 106.955C67.1056 107.143 67.0002 107.397 67 107.662V111.662C67.0002 111.927 67.1056 112.182 67.2931 112.369C67.4806 112.557 67.7348 112.662 68 112.662H74C74.2652 112.662 74.5194 112.557 74.7069 112.369C74.8944 112.182 74.9998 111.927 75 111.662V107.662ZM60 107.662V111.662C59.9991 112.458 59.6828 113.22 59.1204 113.783C58.5579 114.345 57.7954 114.661 57 114.662H51C50.2046 114.661 49.4421 114.345 48.8796 113.783C48.3172 113.22 48.0009 112.458 48 111.662V107.662C48.0009 106.867 48.3172 106.104 48.8796 105.542C49.4421 104.979 50.2046 104.663 51 104.662H57C57.7954 104.663 58.5579 104.979 59.1204 105.542C59.6828 106.104 59.9991 106.867 60 107.662ZM58 107.662C57.9998 107.397 57.8944 107.143 57.7069 106.955C57.5194 106.768 57.2652 106.662 57 106.662H51C50.7348 106.662 50.4806 106.768 50.2931 106.955C50.1056 107.143 50.0002 107.397 50 107.662V111.662C50.0002 111.927 50.1056 112.182 50.2931 112.369C50.4806 112.557 50.7348 112.662 51 112.662H57C57.2652 112.662 57.5194 112.557 57.7069 112.369C57.8944 112.182 57.9998 111.927 58 111.662V107.662ZM33 52.6623V38.6623C33.0009 37.8669 33.3172 37.1043 33.8796 36.5419C34.4421 35.9795 35.2046 35.6631 36 35.6623H72C72.7954 35.6631 73.5579 35.9795 74.1204 36.5419C74.6828 37.1043 74.9991 37.8669 75 38.6623V52.6623C74.9991 53.4576 74.6828 54.2202 74.1204 54.7826C73.5579 55.345 72.7954 55.6614 72 55.6623H36C35.2046 55.6614 34.4421 55.345 33.8796 54.7826C33.3172 54.2202 33.0009 53.4576 33 52.6623ZM35 52.6623C35.0002 52.9274 35.1056 53.1817 35.2931 53.3692C35.4806 53.5567 35.7348 53.6621 36 53.6623H72C72.2652 53.6621 72.5194 53.5567 72.7069 53.3692C72.8944 53.1817 72.9998 52.9274 73 52.6623V38.6623C72.9998 38.3971 72.8944 38.1428 72.7069 37.9553C72.5194 37.7678 72.2652 37.6624 72 37.6623H36C35.7348 37.6624 35.4806 37.7678 35.2931 37.9553C35.1056 38.1428 35.0002 38.3971 35 38.6623V52.6623ZM56 27.6623H46C45.7348 27.6623 45.4804 27.7676 45.2929 27.9552C45.1054 28.1427 45 28.397 45 28.6623C45 28.9275 45.1054 29.1818 45.2929 29.3694C45.4804 29.5569 45.7348 29.6623 46 29.6623H56C56.2652 29.6623 56.5196 29.5569 56.7071 29.3694C56.8946 29.1818 57 28.9275 57 28.6623C57 28.397 56.8946 28.1427 56.7071 27.9552C56.5196 27.7676 56.2652 27.6623 56 27.6623ZM62 27.6623H60C59.7348 27.6623 59.4804 27.7676 59.2929 27.9552C59.1054 28.1427 59 28.397 59 28.6623C59 28.9275 59.1054 29.1818 59.2929 29.3694C59.4804 29.5569 59.7348 29.6623 60 29.6623H62C62.2652 29.6623 62.5196 29.5569 62.7071 29.3694C62.8946 29.1818 63 28.9275 63 28.6623C63 28.397 62.8946 28.1427 62.7071 27.9552C62.5196 27.7676 62.2652 27.6623 62 27.6623ZM62 23.6623H53C52.7348 23.6623 52.4804 23.7676 52.2929 23.9552C52.1054 24.1427 52 24.397 52 24.6623C52 24.9275 52.1054 25.1818 52.2929 25.3694C52.4804 25.5569 52.7348 25.6623 53 25.6623H62C62.2652 25.6623 62.5196 25.5569 62.7071 25.3694C62.8946 25.1818 63 24.9275 63 24.6623C63 24.397 62.8946 24.1427 62.7071 23.9552C62.5196 23.7676 62.2652 23.6623 62 23.6623ZM46 25.6623H49C49.2652 25.6623 49.5196 25.5569 49.7071 25.3694C49.8946 25.1818 50 24.9275 50 24.6623C50 24.397 49.8946 24.1427 49.7071 23.9552C49.5196 23.7676 49.2652 23.6623 49 23.6623H46C45.7348 23.6623 45.4804 23.7676 45.2929 23.9552C45.1054 24.1427 45 24.397 45 24.6623C45 24.9275 45.1054 25.1818 45.2929 25.3694C45.4804 25.5569 45.7348 25.6623 46 25.6623ZM46 21.6623H56C56.2652 21.6623 56.5196 21.5569 56.7071 21.3694C56.8946 21.1818 57 20.9275 57 20.6623C57 20.397 56.8946 20.1427 56.7071 19.9552C56.5196 19.7676 56.2652 19.6623 56 19.6623H46C45.7348 19.6623 45.4804 19.7676 45.2929 19.9552C45.1054 20.1427 45 20.397 45 20.6623C45 20.9275 45.1054 21.1818 45.2929 21.3694C45.4804 21.5569 45.7348 21.6623 46 21.6623ZM62 19.6623H60C59.7348 19.6623 59.4804 19.7676 59.2929 19.9552C59.1054 20.1427 59 20.397 59 20.6623C59 20.9275 59.1054 21.1818 59.2929 21.3694C59.4804 21.5569 59.7348 21.6623 60 21.6623H62C62.2652 21.6623 62.5196 21.5569 62.7071 21.3694C62.8946 21.1818 63 20.9275 63 20.6623C63 20.397 62.8946 20.1427 62.7071 19.9552C62.5196 19.7676 62.2652 19.6623 62 19.6623ZM62 15.6623H53C52.7348 15.6623 52.4804 15.7676 52.2929 15.9552C52.1054 16.1427 52 16.397 52 16.6623C52 16.9275 52.1054 17.1818 52.2929 17.3694C52.4804 17.5569 52.7348 17.6623 53 17.6623H62C62.2652 17.6623 62.5196 17.5569 62.7071 17.3694C62.8946 17.1818 63 16.9275 63 16.6623C63 16.397 62.8946 16.1427 62.7071 15.9552C62.5196 15.7676 62.2652 15.6623 62 15.6623ZM46 17.6623H49C49.2652 17.6623 49.5196 17.5569 49.7071 17.3694C49.8946 17.1818 50 16.9275 50 16.6623C50 16.397 49.8946 16.1427 49.7071 15.9552C49.5196 15.7676 49.2652 15.6623 49 15.6623H46C45.7348 15.6623 45.4804 15.7676 45.2929 15.9552C45.1054 16.1427 45 16.397 45 16.6623C45 16.9275 45.1054 17.1818 45.2929 17.3694C45.4804 17.5569 45.7348 17.6623 46 17.6623Z"
    fill="#06DB8F"
  />
  <path
    d="M18.95 21.8223C18.5428 22.2408 18.1931 22.7116 17.91 23.2223H17.8992C17.811 23.3746 17.6843 23.5011 17.5317 23.5889C17.3791 23.6766 17.2061 23.7226 17.0301 23.7223C16.858 23.7243 16.6886 23.6793 16.5401 23.5923C16.3876 23.504 16.2611 23.3771 16.1733 23.2244C16.0855 23.0716 16.0396 22.8984 16.0401 22.7223C16.0383 22.5502 16.0832 22.3808 16.1701 22.2323C16.5408 21.5793 16.9908 20.9747 17.5101 20.4323C17.6964 20.2502 17.9463 20.1479 18.2067 20.1471C18.4672 20.1463 18.7177 20.2471 18.9051 20.428C19.0925 20.6089 19.202 20.8557 19.2104 21.116C19.2188 21.3763 19.1254 21.6297 18.95 21.8223ZM21.59 20.0323C21.692 20.031 21.7932 20.0139 21.89 19.9815C22.4483 19.8075 23.0261 19.7036 23.61 19.672C23.8746 19.6566 24.1224 19.537 24.299 19.3394C24.4756 19.1417 24.5666 18.8821 24.5521 18.6174C24.5376 18.3528 24.4188 18.1046 24.2217 17.9274C24.0246 17.7502 23.7653 17.6583 23.5006 17.672C22.7496 17.7154 22.0071 17.8531 21.2906 18.082C21.0879 18.1451 20.9107 18.2712 20.7848 18.4421C20.6588 18.613 20.5908 18.8197 20.5906 19.032C20.5925 19.1339 20.6094 19.2349 20.6406 19.332C20.7024 19.5353 20.8281 19.7134 20.9992 19.8395C21.1702 19.9657 21.3774 20.0333 21.59 20.0323ZM89.12 121.432L89.1158 121.433L89.1123 121.435L89.11 121.439L89.1093 121.443C88.7113 121.864 88.2651 122.236 87.78 122.552C87.6681 122.622 87.5714 122.714 87.4957 122.822C87.42 122.931 87.3669 123.053 87.3395 123.182C87.2892 123.441 87.3392 123.709 87.4795 123.932C87.5697 124.073 87.6939 124.189 87.8407 124.27C87.9875 124.35 88.1521 124.392 88.3195 124.392C88.5109 124.39 88.698 124.335 88.8595 124.232C89.4941 123.83 90.0726 123.346 90.58 122.792C90.7518 122.611 90.8482 122.372 90.8495 122.122C90.851 121.983 90.8234 121.846 90.7684 121.718C90.7134 121.591 90.6322 121.476 90.5302 121.382C90.3345 121.206 90.0781 121.113 89.815 121.122C89.5519 121.132 89.3027 121.243 89.12 121.432ZM112.059 101.532C111.797 101.505 111.535 101.582 111.329 101.747C111.123 101.911 110.99 102.151 110.959 102.412V102.422C110.896 103.003 110.762 103.574 110.559 104.122C110.511 104.244 110.487 104.374 110.491 104.504C110.494 104.635 110.524 104.764 110.579 104.882C110.633 105.002 110.711 105.109 110.807 105.199C110.903 105.288 111.016 105.357 111.139 105.402C111.249 105.45 111.369 105.474 111.489 105.472C111.693 105.471 111.892 105.409 112.06 105.293C112.228 105.177 112.357 105.013 112.429 104.822C112.688 104.115 112.863 103.38 112.949 102.632V102.532C112.951 102.285 112.861 102.046 112.697 101.861C112.533 101.676 112.305 101.559 112.059 101.532ZM109.889 37.8823C109.979 38.0241 110.103 38.1408 110.25 38.2213C110.397 38.3018 110.562 38.3434 110.729 38.3423C110.921 38.3403 111.108 38.2849 111.269 38.1823C111.49 38.0371 111.645 37.8113 111.701 37.5534C111.757 37.2955 111.71 37.0259 111.569 36.8023C111.167 36.168 110.683 35.5897 110.13 35.0823C109.933 34.9084 109.677 34.8167 109.415 34.826C109.153 34.8353 108.904 34.9449 108.72 35.1323C108.632 35.2239 108.563 35.332 108.516 35.4504C108.47 35.5688 108.447 35.6951 108.45 35.8223C108.448 35.9581 108.476 36.0927 108.531 36.2169C108.586 36.3411 108.668 36.4521 108.769 36.5423C109.196 36.942 109.571 37.392 109.889 37.8823ZM112.979 41.0223C112.957 40.7587 112.833 40.5141 112.633 40.3405C112.434 40.1669 112.174 40.0778 111.91 40.0923C111.657 40.1108 111.421 40.2241 111.248 40.4096C111.076 40.5951 110.98 40.8389 110.979 41.0923V41.1623C110.99 41.3117 110.999 41.4816 110.999 41.6623V42.5923C110.999 42.8575 111.105 43.1118 111.292 43.2994C111.48 43.4869 111.734 43.5923 111.999 43.5923C112.265 43.5923 112.519 43.4869 112.706 43.2994C112.894 43.1118 112.999 42.8575 112.999 42.5923V41.6623C113 41.4423 112.989 41.2323 112.979 41.0223ZM104 34.6623C104.584 34.6593 105.165 34.7333 105.73 34.8823C105.812 34.9023 105.896 34.9124 105.98 34.9123C106.224 34.913 106.46 34.8245 106.643 34.6634C106.827 34.5023 106.945 34.2798 106.975 34.0377C107.006 33.7956 106.947 33.5507 106.81 33.3489C106.673 33.1472 106.466 33.0025 106.23 32.9423C105.502 32.7543 104.752 32.6602 104 32.6623C103.735 32.6623 103.48 32.7676 103.293 32.9552C103.105 33.1427 103 33.397 103 33.6623C103 33.9275 103.105 34.1818 103.293 34.3694C103.48 34.5569 103.735 34.6623 104 34.6623ZM104 106.662H102C101.221 106.66 100.453 106.475 99.7584 106.123C99.0637 105.77 98.4615 105.259 98 104.631C97.5385 105.259 96.9363 105.77 96.2416 106.123C95.5469 106.475 94.7791 106.66 94 106.662H89V116.662C88.9984 117.988 88.4711 119.259 87.5338 120.196C86.5965 121.133 85.3256 121.661 84 121.662H24C22.6744 121.661 21.4035 121.133 20.4662 120.196C19.5288 119.259 19.0016 117.988 19 116.662V26.6623C19.0016 25.3367 19.5288 24.0658 20.4662 23.1285C21.4035 22.1911 22.6744 21.6638 24 21.6623H28C28.0016 20.3367 28.5288 19.0658 29.4662 18.1285C30.4035 17.1911 31.6744 16.6638 33 16.6623H40V4.66226C40 4.46451 40.0587 4.27121 40.1686 4.1068C40.2785 3.94239 40.4346 3.81425 40.6173 3.73858C40.8 3.66291 41.0011 3.64311 41.195 3.68168C41.389 3.72025 41.5671 3.81545 41.707 3.95526L47.9434 10.1923L53.2412 4.01226C53.3378 3.90743 53.4552 3.82377 53.5858 3.76654C53.7164 3.70932 53.8574 3.67977 54 3.67977C54.1426 3.67977 54.2836 3.70932 54.4142 3.76654C54.5448 3.82377 54.6621 3.90743 54.7588 4.01226L60.0566 10.1923L66.293 3.95546C66.4328 3.81567 66.611 3.72046 66.8049 3.68189C66.9988 3.64331 67.1999 3.6631 67.3826 3.73875C67.5652 3.81439 67.7214 3.9425 67.8313 4.10688C67.9412 4.27126 67.9999 4.46453 68 4.66226V16.6623H75C76.3256 16.6638 77.5965 17.1911 78.5338 18.1285C79.4711 19.0658 79.9984 20.3367 80 21.6623H84C85.3256 21.6638 86.5965 22.1911 87.5338 23.1285C88.4711 24.0658 88.9984 25.3367 89 26.6623V36.6623H94C94.7791 36.6644 95.5469 36.8492 96.2416 37.2019C96.9363 37.5547 97.5385 38.0654 98 38.6932C98.4615 38.0654 99.0637 37.5547 99.7584 37.2019C100.453 36.8492 101.221 36.6644 102 36.6623H104C105.326 36.6638 106.596 37.1911 107.534 38.1285C108.471 39.0658 108.998 40.3367 109 41.6623V101.662C108.998 102.988 108.471 104.259 107.534 105.196C106.596 106.133 105.326 106.661 104 106.662ZM42 31.6623H66V7.07656L60.707 12.3695C60.6105 12.468 60.4942 12.545 60.3657 12.5953C60.2373 12.6457 60.0997 12.6682 59.9619 12.6615C59.8242 12.6563 59.6891 12.6227 59.565 12.5627C59.441 12.5027 59.3307 12.4176 59.2412 12.3129L54 6.19856L48.7588 12.3129C48.6693 12.4176 48.559 12.5027 48.435 12.5627C48.3109 12.6227 48.1758 12.6563 48.0381 12.6615C47.9003 12.6684 47.7626 12.646 47.6341 12.5957C47.5056 12.5453 47.3894 12.4682 47.293 12.3695L42 7.07656V31.6623ZM30 55.6623C30.0009 56.4576 30.3172 57.2202 30.8796 57.7826C31.4421 58.345 32.2046 58.6614 33 58.6623H75C75.7954 58.6614 76.5579 58.345 77.1203 57.7826C77.6828 57.2202 77.9991 56.4576 78 55.6623V21.6623C77.9991 20.8669 77.6828 20.1043 77.1203 19.5419C76.5579 18.9795 75.7954 18.6631 75 18.6623H68V31.6623H71C71.2652 31.6623 71.5196 31.7676 71.7071 31.9552C71.8946 32.1427 72 32.397 72 32.6623C72 32.9275 71.8946 33.1818 71.7071 33.3694C71.5196 33.5569 71.2652 33.6623 71 33.6623H37C36.7348 33.6623 36.4804 33.5569 36.2929 33.3694C36.1053 33.1818 36 32.9275 36 32.6623C36 32.397 36.1053 32.1427 36.2929 31.9552C36.4804 31.7676 36.7348 31.6623 37 31.6623H40V18.6623H33C32.2046 18.6631 31.4421 18.9795 30.8796 19.5419C30.3172 20.1043 30.0009 20.8669 30 21.6623V55.6623ZM87 26.6623C86.9991 25.8669 86.6828 25.1043 86.1203 24.5419C85.5579 23.9795 84.7954 23.6631 84 23.6623H80V55.6623C79.9984 56.9879 79.4711 58.2587 78.5338 59.1961C77.5965 60.1334 76.3256 60.6607 75 60.6623H33C31.6744 60.6607 30.4035 60.1334 29.4662 59.1961C28.5288 58.2587 28.0016 56.9879 28 55.6623V23.6623H24C23.2046 23.6631 22.4421 23.9795 21.8796 24.5419C21.3172 25.1043 21.0009 25.8669 21 26.6623V116.662C21.0009 117.458 21.3172 118.22 21.8796 118.783C22.4421 119.345 23.2046 119.661 24 119.662H84C84.7954 119.661 85.5579 119.345 86.1203 118.783C86.6828 118.22 86.9991 117.458 87 116.662V26.6623ZM97 41.6623C96.9991 40.8669 96.6828 40.1043 96.1203 39.5419C95.5579 38.9795 94.7954 38.6631 94 38.6623H89V104.662H94C94.7954 104.661 95.5579 104.345 96.1203 103.783C96.6828 103.22 96.9991 102.458 97 101.662V41.6623ZM107 41.6623C106.999 40.8669 106.683 40.1043 106.12 39.5419C105.558 38.9795 104.795 38.6631 104 38.6623H102C101.205 38.6631 100.442 38.9795 99.8796 39.5419C99.3172 40.1043 99.0009 40.8669 99 41.6623V101.662C99.0009 102.458 99.3172 103.22 99.8796 103.783C100.442 104.345 101.205 104.661 102 104.662H104C104.795 104.661 105.558 104.345 106.12 103.783C106.683 103.22 106.999 102.458 107 101.662V41.6623Z"
    fill="white"
  />
</svg>
