<svg width="112" height="104" viewBox="0 0 112 104" fill="none" xmlns="http://www.w3.org/2000/svg">
<g filter="url(#filter0_b_20268_39088)">
<path d="M79.3624 8.79221V94.5272C79.3627 94.9989 79.2701 95.466 79.0898 95.9018C78.9096 96.3377 78.6452 96.7337 78.3118 97.0673C77.9784 97.401 77.5825 97.6656 77.1468 97.8462C76.7111 98.0268 76.2441 98.1197 75.7724 98.1197H35.6799C34.7271 98.1197 33.8133 97.7412 33.1396 97.0675C32.4659 96.3938 32.0874 95.48 32.0874 94.5272V8.79221C32.0881 7.83962 32.4668 6.92624 33.1404 6.25266C33.8139 5.57908 34.7273 5.20037 35.6799 5.19971H44.3074C44.8995 5.19971 45.4673 5.43492 45.886 5.85359C46.3047 6.27226 46.5399 6.84011 46.5399 7.43221C46.5399 8.02364 46.7748 8.59085 47.1931 9.00905C47.6113 9.42726 48.1785 9.66221 48.7699 9.66221H62.6724C62.9653 9.66221 63.2552 9.60453 63.5258 9.49246C63.7963 9.38039 64.0422 9.21613 64.2493 9.00905C64.4563 8.80198 64.6206 8.55615 64.7327 8.28559C64.8447 8.01504 64.9024 7.72505 64.9024 7.43221C64.9024 6.84054 65.1373 6.27308 65.5554 5.85447C65.9735 5.43587 66.5407 5.20037 67.1324 5.19971H75.7724C76.2441 5.19971 76.7111 5.29265 77.1468 5.47322C77.5825 5.65379 77.9784 5.91845 78.3118 6.25208C78.6452 6.5857 78.9096 6.98176 79.0898 7.4176C79.2701 7.85345 79.3627 8.32055 79.3624 8.79221Z" fill="#F5F5F5" fill-opacity="0.15"/>
</g>
<path d="M62.5324 86.6623H48.9174C47.788 86.6623 46.7047 86.2136 45.9061 85.4149C45.1074 84.6162 44.6587 83.533 44.6587 82.4035C44.6587 81.274 45.1074 80.1908 45.9061 79.3921C46.7047 78.5935 47.788 78.1448 48.9174 78.1448H62.5324C63.6619 78.1448 64.7452 78.5935 65.5438 79.3921C66.3425 80.1908 66.7912 81.274 66.7912 82.4035C66.7912 83.533 66.3425 84.6162 65.5438 85.4149C64.7452 86.2136 63.6619 86.6623 62.5324 86.6623Z" fill="#06DB8F"/>
<path d="M75.3775 103.24H36.0775C33.6628 103.237 31.3478 102.277 29.6404 100.569C27.933 98.8619 26.9726 96.5469 26.97 94.1322V9.18972C26.9733 6.7755 27.934 4.46115 29.6413 2.75428C31.3486 1.04741 33.6633 0.0873624 36.0775 0.0847168H75.3775C77.7921 0.0853795 80.1076 1.04487 81.8149 2.75224C83.5223 4.45962 84.4818 6.77512 84.4825 9.18972V94.1322C84.4798 96.5464 83.5198 98.861 81.8129 100.568C80.106 102.276 77.7917 103.236 75.3775 103.24ZM36.0775 1.58472C34.0609 1.5867 32.1274 2.3885 30.7012 3.81421C29.275 5.23992 28.4726 7.17313 28.47 9.18972V94.1322C28.472 96.1492 29.2741 98.0831 30.7003 99.5093C32.1266 100.936 34.0604 101.738 36.0775 101.74H75.3775C77.3941 101.737 79.3273 100.935 80.753 99.5085C82.1787 98.0823 82.9805 96.1488 82.9825 94.1322V9.18972C82.9818 7.17295 82.1804 5.23897 80.7543 3.8129C79.3282 2.38683 77.3942 1.58538 75.3775 1.58472H36.0775Z" fill="white"/>
<path d="M54.38 64.8521C49.88 62.7884 46.0661 59.4778 43.3903 55.3127C40.7144 51.1476 39.2888 46.3027 39.2825 41.3521V29.5671H44.86C47.6475 29.5671 51.005 28.5221 54.07 26.6971L55.72 25.7146L57.375 26.6946C60.4625 28.5196 63.8225 29.5671 66.5925 29.5671H72.17V41.3571C72.17 50.8871 66.605 59.6321 57.285 64.7446L55.8575 65.5271L54.38 64.8521Z" fill="#F5F5F5"/>
<path d="M55.89 66.3673L54.0675 65.5348C49.438 63.4111 45.5143 60.005 42.761 55.72C40.0077 51.435 38.5403 46.4506 38.5325 41.3573V28.8173H44.86C47.5175 28.8173 50.735 27.8173 53.685 26.0548L55.72 24.8423L57.7575 26.0473C60.7325 27.7973 63.9525 28.8173 66.5925 28.8173H72.9175V41.3573C72.9175 51.1673 67.2075 60.1573 57.645 65.4023L55.89 66.3673ZM40.0325 30.3173V41.3573C40.0408 46.1618 41.4259 50.8633 44.0236 54.905C46.6213 58.9467 50.3229 62.1593 54.69 64.1623L55.8275 64.6823L56.9225 64.0823C66 59.1023 71.4225 50.6023 71.4225 41.3498V30.3173H66.5975C63.695 30.3173 60.1975 29.2323 56.9975 27.3398L55.7275 26.5898L54.4575 27.3398C51.28 29.2298 47.785 30.3148 44.865 30.3148L40.0325 30.3173Z" fill="#009260"/>
<path d="M68.2801 41.5698V33.4398H66.0576C62.5876 33.4398 58.7926 32.0948 55.7251 30.2798C52.6576 32.1048 48.9026 33.4398 45.3926 33.4398H43.1726V41.5698C43.1722 45.6869 44.3551 49.7175 46.5806 53.1813C48.8061 56.6452 51.9803 59.3964 55.7251 61.1073C62.9226 57.1623 68.2801 50.1248 68.2801 41.5698Z" fill="#06DB8F"/>
<path d="M54.3425 49.5597L49.2725 44.4897L51.0225 42.7372L54.3425 46.0572L61.8575 38.5422L63.6075 40.2947L54.3425 49.5597Z" fill="#F5F5F5"/>
<path d="M66.2175 68.5072H86.5175C90.361 68.5039 94.0459 66.9747 96.7625 64.2558C99.4791 61.5369 101.005 57.8506 101.005 54.0072V37.2222" stroke="#06DB8F" stroke-width="4.5" stroke-miterlimit="10"/>
<path d="M101 31.5098L94.4099 39.0448H107.59L101 31.5098Z" fill="#06DB8F"/>
<path d="M43.8176 19.3672H25.4826C21.6391 19.3705 17.9542 20.8996 15.2376 23.6186C12.5211 26.3375 10.9951 30.0237 10.9951 33.8672V50.6622" stroke="#06DB8F" stroke-width="4.5" stroke-miterlimit="10"/>
<path d="M11 56.3623L17.59 48.8298H4.40503L11 56.3623Z" fill="#06DB8F"/>
<path d="M10.995 81.5398C16.5151 81.5398 20.99 77.0649 20.99 71.5448C20.99 66.0247 16.5151 61.5498 10.995 61.5498C5.47491 61.5498 1 66.0247 1 71.5448C1 77.0649 5.47491 81.5398 10.995 81.5398Z" fill="#F5F5F5"/>
<path d="M11 82.2898C8.87386 82.2898 6.79545 81.6593 5.02763 80.4781C3.2598 79.2969 1.88194 77.618 1.0683 75.6536C0.254658 73.6893 0.0417718 71.5279 0.456563 69.4426C0.871354 67.3573 1.89519 65.4418 3.39861 63.9384C4.90202 62.435 6.81749 61.4112 8.90278 60.9964C10.9881 60.5816 13.1495 60.7944 15.1139 61.6081C17.0782 62.4217 18.7571 63.7996 19.9383 65.5674C21.1195 67.3352 21.75 69.4137 21.75 71.5398C21.75 74.3909 20.6174 77.1252 18.6014 79.1412C16.5854 81.1572 13.8511 82.2898 11 82.2898ZM11 62.2898C9.17053 62.2898 7.38213 62.8323 5.86098 63.8487C4.33983 64.8651 3.15423 66.3098 2.45412 68C1.75401 69.6902 1.57083 71.5501 1.92774 73.3444C2.28465 75.1387 3.16563 76.7869 4.45927 78.0805C5.7529 79.3742 7.40109 80.2551 9.19542 80.6121C10.9897 80.969 12.8496 80.7858 14.5398 80.0857C16.23 79.3856 17.6747 78.2 18.6911 76.6788C19.7075 75.1577 20.25 73.3693 20.25 71.5398C20.2474 69.0883 19.2716 66.7381 17.5372 65.0055C15.8028 63.273 13.4515 62.2998 11 62.2998V62.2898Z" fill="#009260"/>
<path d="M9.08004 70.7373V68.0848H12.08C12.259 68.077 12.4378 68.1056 12.6055 68.1687C12.7731 68.2318 12.9263 68.3283 13.0557 68.4522C13.1851 68.5761 13.2881 68.725 13.3585 68.8897C13.4289 69.0545 13.4651 69.2319 13.4651 69.411C13.4651 69.5902 13.4289 69.7675 13.3585 69.9323C13.2881 70.0971 13.1851 70.2459 13.0557 70.3699C12.9263 70.4938 12.7731 70.5902 12.6055 70.6534C12.4378 70.7165 12.259 70.7451 12.08 70.7373H9.08004ZM12.08 66.5423H7.54004V76.4723H9.08004V72.2798H12.08C12.8425 72.2798 13.5738 71.9769 14.113 71.4377C14.6521 70.8985 14.955 70.1673 14.955 69.4048C14.955 68.6423 14.6521 67.911 14.113 67.3718C13.5738 66.8327 12.8425 66.5298 12.08 66.5298V66.5423Z" fill="#06DB8F"/>
<path d="M12.885 74.9323H9.08004V72.2798H12.885C13.064 72.272 13.2428 72.3006 13.4105 72.3637C13.5781 72.4269 13.7313 72.5233 13.8607 72.6472C13.9901 72.7711 14.0931 72.92 14.1635 73.0848C14.2339 73.2496 14.2701 73.4269 14.2701 73.6061C14.2701 73.7852 14.2339 73.9626 14.1635 74.1273C14.0931 74.2921 13.9901 74.441 13.8607 74.5649C13.7313 74.6888 13.5781 74.7852 13.4105 74.8484C13.2428 74.9115 13.064 74.9401 12.885 74.9323ZM12.885 70.7373H7.54004V76.4723H12.885C13.6455 76.4723 14.3749 76.1702 14.9127 75.6324C15.4504 75.0947 15.7525 74.3653 15.7525 73.6048C15.7525 72.8443 15.4504 72.1149 14.9127 71.5772C14.3749 71.0394 13.6455 70.7373 12.885 70.7373Z" fill="#06DB8F"/>
<path d="M9.97262 65.2771H8.43262V67.5196H9.97262V65.2771Z" fill="#06DB8F"/>
<path d="M12.6699 65.2771H11.1299V67.5196H12.6699V65.2771Z" fill="#06DB8F"/>
<path d="M9.97262 75.3523H8.43262V77.5948H9.97262V75.3523Z" fill="#06DB8F"/>
<path d="M12.6699 75.3523H11.1299V77.5948H12.6699V75.3523Z" fill="#06DB8F"/>
<path d="M101.005 26.9097C106.525 26.9097 111 22.4348 111 16.9147C111 11.3946 106.525 6.91968 101.005 6.91968C95.4849 6.91968 91.01 11.3946 91.01 16.9147C91.01 22.4348 95.4849 26.9097 101.005 26.9097Z" fill="#F5F5F5"/>
<path d="M101 27.6621C98.8739 27.6621 96.7955 27.0316 95.0276 25.8504C93.2598 24.6692 91.8819 22.9903 91.0683 21.026C90.2547 19.0617 90.0418 16.9002 90.4566 14.8149C90.8714 12.7296 91.8952 10.8141 93.3986 9.31072C94.902 7.8073 96.8175 6.78346 98.9028 6.36867C100.988 5.95388 103.15 6.16677 105.114 6.98041C107.078 7.79405 108.757 9.17191 109.938 10.9397C111.12 12.7076 111.75 14.786 111.75 16.9121C111.75 19.7632 110.617 22.4975 108.601 24.5135C106.585 26.5295 103.851 27.6621 101 27.6621ZM101 7.66211C99.1705 7.66211 97.3821 8.20462 95.861 9.22102C94.3398 10.2374 93.1542 11.6821 92.4541 13.3723C91.754 15.0625 91.5708 16.9224 91.9277 18.7167C92.2847 20.511 93.1656 22.1592 94.4593 23.4529C95.7529 24.7465 97.4011 25.6275 99.1954 25.9844C100.99 26.3413 102.85 26.1581 104.54 25.458C106.23 24.7579 107.675 23.5723 108.691 22.0511C109.708 20.53 110.25 18.7416 110.25 16.9121C110.25 14.4589 109.275 12.1061 107.541 10.3714C105.806 8.63667 103.453 7.66211 101 7.66211Z" fill="#009260"/>
<path d="M101 22.5247C100.118 22.5234 99.2728 22.1723 98.6495 21.5485C98.0262 20.9247 97.6757 20.0791 97.675 19.1972H99.7575C99.7575 19.4445 99.8309 19.6861 99.9682 19.8917C100.106 20.0973 100.301 20.2575 100.529 20.3521C100.758 20.4467 101.009 20.4715 101.251 20.4232C101.494 20.375 101.717 20.2559 101.891 20.0811C102.066 19.9063 102.185 19.6836 102.234 19.4411C102.282 19.1986 102.257 18.9473 102.162 18.7189C102.068 18.4905 101.908 18.2953 101.702 18.1579C101.496 18.0205 101.255 17.9472 101.008 17.9472C100.349 17.9477 99.7057 17.753 99.1582 17.3877C98.6107 17.0223 98.1838 16.5028 97.9316 15.8948C97.6793 15.2869 97.6131 14.6177 97.7412 13.9721C97.8693 13.3265 98.186 12.7333 98.6513 12.2677C99.1165 11.8021 99.7094 11.485 100.355 11.3564C101.001 11.2278 101.67 11.2935 102.278 11.5453C102.886 11.7971 103.406 12.2236 103.772 12.7708C104.137 13.3181 104.333 13.9615 104.333 14.6197H102.25C102.25 14.3725 102.177 14.1308 102.039 13.9253C101.902 13.7197 101.707 13.5595 101.478 13.4649C101.25 13.3703 100.999 13.3455 100.756 13.3938C100.514 13.442 100.291 13.561 100.116 13.7359C99.9413 13.9107 99.8223 14.1334 99.7741 14.3759C99.7258 14.6183 99.7506 14.8697 99.8452 15.0981C99.9398 15.3265 100.1 15.5217 100.306 15.6591C100.511 15.7964 100.753 15.8697 101 15.8697C101.866 15.8935 102.689 16.2544 103.294 16.8756C103.898 17.4968 104.236 18.3293 104.236 19.196C104.236 20.0627 103.898 20.8952 103.294 21.5164C102.689 22.1376 101.866 22.4985 101 22.5222V22.5247Z" fill="#06DB8F"/>
<path d="M102.047 21.4822H99.9624V23.5597H102.047V21.4822Z" fill="#06DB8F"/>
<path d="M102.047 10.2698H99.9624V12.3473H102.047V10.2698Z" fill="#06DB8F"/>
<path d="M103.148 67.275L102.098 68.3459L105.299 71.4844L106.349 70.4135L103.148 67.275Z" fill="#009260"/>
<path d="M109.466 63.3374L104.961 63.3594L104.968 64.8594L109.473 64.8373L109.466 63.3374Z" fill="#009260"/>
<path d="M99.9492 70.2622L98.4492 70.2698L98.4718 74.7297L99.9718 74.7221L99.9492 70.2622Z" fill="#009260"/>
<path d="M5.17505 42.4272H3.67505V41.2897H5.17505V42.4272ZM5.17505 38.7897H3.67505V37.2897H5.17505V38.7897ZM5.17505 34.7897H3.67505V33.2897H5.17505V34.7897ZM5.29505 30.8772L3.79505 30.7122C3.85255 30.2122 3.92755 29.6822 4.02255 29.1747L5.49755 29.4497C5.42005 29.9122 5.34755 30.4122 5.29505 30.8772ZM6.09505 27.1272L4.66755 26.6622C4.82255 26.1622 5.00005 25.6797 5.19505 25.1997L6.58505 25.7622C6.40505 26.2072 6.25005 26.6622 6.09505 27.1197V27.1272ZM7.62255 23.6022L6.31255 22.8722C6.56255 22.4197 6.83505 21.9722 7.11755 21.5422L8.36755 22.3672C8.10755 22.7597 7.85505 23.1747 7.62255 23.5947V23.6022ZM9.81505 20.4447L8.67255 19.4722C9.00755 19.0797 9.36005 18.6947 9.72505 18.3272L10.7925 19.3797C10.455 19.7147 10.125 20.0722 9.81505 20.4372V20.4447ZM12.585 17.7772L11.655 16.5997C12.06 16.2797 12.4825 15.9697 12.905 15.6797L13.75 16.9122C13.3525 17.1847 12.96 17.4722 12.585 17.7697V17.7772ZM15.835 15.7022L15.155 14.3647C15.6175 14.1297 16.0925 13.9097 16.5675 13.7122L17.145 15.0947C16.6925 15.2722 16.25 15.4772 15.8225 15.6947L15.835 15.7022ZM19.4175 14.3072L19.0175 12.8622C19.5175 12.7222 20.0175 12.6122 20.5175 12.4997L20.81 13.9722C20.34 14.0572 19.8675 14.1622 19.405 14.2997L19.4175 14.3072ZM23.205 13.6497L23.095 12.1497C23.61 12.1122 24.1325 12.0947 24.6475 12.0947V13.5947C24.1575 13.5897 23.6725 13.6072 23.1925 13.6422L23.205 13.6497Z" fill="#A9AFC4"/>
<defs>
<filter id="filter0_b_20268_39088" x="16.0874" y="-10.8003" width="79.2749" height="124.92" filterUnits="userSpaceOnUse" color-interpolation-filters="sRGB">
<feFlood flood-opacity="0" result="BackgroundImageFix"/>
<feGaussianBlur in="BackgroundImageFix" stdDeviation="8"/>
<feComposite in2="SourceAlpha" operator="in" result="effect1_backgroundBlur_20268_39088"/>
<feBlend mode="normal" in="SourceGraphic" in2="effect1_backgroundBlur_20268_39088" result="shape"/>
</filter>
</defs>
</svg>
